{"glyphs":{"0":{"ha":833,"x_min":94,"x_max":739,"o":"m 417 -14 l 417 -14 q 318 -14 246 24 q 174 61 134 129 q 94 197 94 289 l 94 289 l 94 725 q 94 817 134 885 q 174 953 246 990 q 318 1028 417 1028 l 417 1028 q 515 1028 588 990 q 660 953 699 885 q 739 817 739 725 l 739 725 l 739 289 q 739 197 699 129 q 660 61 588 24 q 515 -14 417 -14 z m 417 136 l 417 136 q 489 136 532 178 q 575 219 575 289 l 575 289 l 575 725 q 575 794 533 836 q 490 878 417 878 l 417 878 q 343 878 301 836 q 258 794 258 725 l 258 725 l 258 289 q 258 219 301 178 q 344 136 417 136 z m 417 424 l 417 424 q 375 424 350 447 q 325 469 325 511 l 325 511 q 325 553 350 574 q 375 596 417 596 l 417 596 q 458 596 483 574 q 508 553 508 511 l 508 511 q 508 469 483 447 q 458 424 417 424 z "},"1":{"ha":833,"x_min":115,"x_max":767,"o":"m 767 0 l 117 0 l 117 157 l 381 157 l 381 846 l 115 651 l 115 846 l 349 1014 l 554 1014 l 554 157 l 767 157 l 767 0 z "},"2":{"ha":833,"x_min":88,"x_max":747,"o":"m 747 0 l 103 0 l 103 157 l 468 531 q 557 624 557 719 l 557 719 q 557 788 517 830 q 478 872 411 872 l 411 872 q 343 872 302 828 q 261 785 261 713 l 261 713 l 88 713 q 88 807 129 878 q 171 949 244 988 q 318 1028 415 1028 l 415 1028 q 511 1028 583 990 q 656 953 695 885 q 735 818 735 728 l 735 728 q 735 650 698 572 q 661 494 576 411 l 576 411 l 321 157 l 747 157 l 747 0 z "},"3":{"ha":833,"x_min":82,"x_max":733,"o":"m 407 -14 l 407 -14 q 257 -14 169 65 q 82 143 82 278 l 82 278 l 257 278 q 257 214 297 176 q 338 138 408 138 l 408 138 q 478 138 518 176 q 558 214 558 278 l 558 278 l 558 354 q 558 422 519 460 q 479 499 408 499 l 408 499 l 281 499 l 281 638 l 514 861 l 118 861 l 118 1014 l 704 1014 l 704 867 l 471 643 q 593 626 663 551 q 733 475 733 354 l 733 354 l 733 278 q 733 143 645 65 q 557 -14 407 -14 z "},"4":{"ha":833,"x_min":82,"x_max":706,"o":"m 706 0 l 531 0 l 531 201 l 82 201 l 82 453 l 457 1014 l 650 1014 l 249 407 l 249 354 l 531 354 l 531 583 l 706 583 l 706 0 z "},"5":{"ha":833,"x_min":86,"x_max":736,"o":"m 411 -14 l 411 -14 q 263 -14 174 65 q 86 143 86 278 l 86 278 l 260 278 q 260 214 301 176 q 342 138 413 138 l 413 138 q 483 138 523 176 q 563 214 563 282 l 563 282 l 563 349 q 563 417 524 455 q 485 493 414 493 l 414 493 l 121 493 l 121 1014 l 699 1014 l 699 857 l 285 857 l 286 646 l 422 646 q 572 646 654 568 q 736 490 736 349 l 736 349 l 736 282 q 736 144 649 65 q 563 -14 411 -14 z "},"6":{"ha":833,"x_min":74,"x_max":760,"o":"m 417 -14 l 417 -14 q 313 -14 235 28 q 158 69 116 145 q 74 221 74 322 l 74 322 q 74 382 99 459 q 125 536 169 615 l 169 615 l 389 1014 l 586 1014 l 325 567 l 331 564 q 351 593 392 610 q 432 626 479 626 l 479 626 q 564 626 627 588 q 690 550 725 481 q 760 411 760 317 l 760 317 q 760 217 717 142 q 675 68 598 27 q 521 -14 417 -14 z m 417 133 l 417 133 q 494 133 542 183 q 589 232 589 314 l 589 314 q 589 397 542 447 q 494 496 417 496 l 417 496 q 339 496 292 447 q 244 397 244 314 l 244 314 q 244 232 292 183 q 339 133 417 133 z "},"7":{"ha":833,"x_min":93,"x_max":778,"o":"m 410 0 l 219 0 l 590 861 l 267 861 l 267 696 l 93 696 l 93 1014 l 778 1014 l 778 861 l 410 0 z "},"8":{"ha":833,"x_min":74,"x_max":760,"o":"m 417 -14 l 417 -14 q 315 -14 238 24 q 160 63 117 130 q 74 197 74 286 l 74 286 q 74 379 127 449 q 181 518 267 536 l 267 536 l 267 539 q 193 554 148 614 q 103 674 103 756 l 103 756 q 103 836 142 897 q 182 958 253 993 q 324 1028 417 1028 l 417 1028 q 510 1028 581 993 q 653 958 692 897 q 732 836 732 756 l 732 756 q 732 674 686 614 q 640 554 567 539 l 567 539 l 567 536 q 653 518 706 449 q 760 379 760 286 l 760 286 q 760 197 717 130 q 674 63 596 24 q 518 -14 417 -14 z m 417 599 l 417 599 q 482 599 522 638 q 563 678 563 740 l 563 740 q 563 804 522 844 q 482 883 417 883 l 417 883 q 351 883 311 844 q 271 804 271 740 l 271 740 q 271 678 311 638 q 351 599 417 599 z m 417 133 l 417 133 q 493 133 542 178 q 590 222 590 294 l 590 294 q 590 368 542 413 q 493 458 417 458 l 417 458 q 340 458 292 413 q 243 368 243 294 l 243 294 q 243 222 292 178 q 340 133 417 133 z "},"9":{"ha":833,"x_min":74,"x_max":760,"o":"m 444 0 l 243 0 l 481 410 q 464 397 442 388 q 419 379 375 379 l 375 379 q 292 379 223 419 q 154 460 114 531 q 74 603 74 697 l 74 697 q 74 797 116 872 q 158 946 235 987 q 313 1028 417 1028 l 417 1028 q 521 1028 598 986 q 675 944 717 869 q 760 793 760 692 l 760 692 q 760 632 734 555 q 708 478 664 399 l 664 399 l 444 0 z m 417 518 l 417 518 q 494 518 542 567 q 589 617 589 700 l 589 700 q 589 782 542 831 q 494 881 417 881 l 417 881 q 339 881 292 831 q 244 782 244 700 l 244 700 q 244 617 292 567 q 339 518 417 518 z "},"A":{"ha":833,"x_min":49,"x_max":785,"o":"m 226 0 l 49 0 l 304 1014 l 528 1014 l 785 0 l 607 0 l 551 246 l 282 246 l 226 0 z m 375 661 l 314 388 l 519 388 l 458 660 q 443 728 432 783 q 421 838 417 863 l 417 863 q 413 838 401 783 q 390 728 375 661 l 375 661 z "},"Á":{"ha":833,"x_min":49,"x_max":785,"o":"m 226 0 l 49 0 l 304 1014 l 528 1014 l 785 0 l 607 0 l 551 246 l 282 246 l 226 0 z m 375 661 l 314 388 l 519 388 l 458 660 q 443 728 432 783 q 421 838 417 863 l 417 863 q 413 838 401 783 q 390 728 375 661 l 375 661 z m 486 1125 l 311 1125 l 458 1319 l 644 1319 l 486 1125 z "},"Ă":{"ha":833,"x_min":49,"x_max":785,"o":"m 226 0 l 49 0 l 304 1014 l 528 1014 l 785 0 l 607 0 l 551 246 l 282 246 l 226 0 z m 375 661 l 314 388 l 519 388 l 458 660 q 443 728 432 783 q 421 838 417 863 l 417 863 q 413 838 401 783 q 390 728 375 661 l 375 661 z m 417 1114 l 417 1114 q 308 1114 242 1170 q 175 1226 175 1319 l 175 1319 l 310 1319 q 310 1274 339 1246 q 368 1218 417 1218 l 417 1218 q 465 1218 495 1246 q 525 1274 525 1319 l 525 1319 l 660 1319 q 660 1226 593 1170 q 526 1114 417 1114 z "},"Ắ":{"ha":833,"x_min":49,"x_max":785,"o":"m 474 1254 l 324 1254 l 468 1417 l 629 1417 l 474 1254 z m 458 1083 l 374 1083 q 274 1083 216 1133 q 158 1183 158 1268 l 158 1268 l 276 1268 q 276 1229 301 1206 q 326 1183 374 1183 l 374 1183 l 458 1183 q 504 1183 531 1206 q 557 1229 557 1268 l 557 1268 l 674 1268 q 674 1183 616 1133 q 558 1083 458 1083 l 458 1083 z m 226 0 l 49 0 l 304 1014 l 528 1014 l 785 0 l 607 0 l 551 246 l 282 246 l 226 0 z m 375 661 l 314 388 l 519 388 l 458 660 q 443 728 432 783 q 421 838 417 863 l 417 863 q 413 838 401 783 q 390 728 375 661 l 375 661 z "},"Ặ":{"ha":833,"x_min":49,"x_max":785,"o":"m 417 1114 l 417 1114 q 308 1114 242 1170 q 175 1226 175 1319 l 175 1319 l 310 1319 q 310 1274 339 1246 q 368 1218 417 1218 l 417 1218 q 465 1218 495 1246 q 525 1274 525 1319 l 525 1319 l 660 1319 q 660 1226 593 1170 q 526 1114 417 1114 z m 226 0 l 49 0 l 304 1014 l 528 1014 l 785 0 l 607 0 l 551 246 l 282 246 l 226 0 z m 375 661 l 314 388 l 519 388 l 458 660 q 443 728 432 783 q 421 838 417 863 l 417 863 q 413 838 401 783 q 390 728 375 661 l 375 661 z m 417 -312 l 417 -312 q 364 -312 333 -285 q 303 -258 303 -212 l 303 -212 q 303 -165 333 -138 q 364 -111 417 -111 l 417 -111 q 469 -111 500 -138 q 531 -165 531 -212 l 531 -212 q 531 -258 500 -285 q 469 -312 417 -312 z "},"Ằ":{"ha":833,"x_min":49,"x_max":785,"o":"m 226 0 l 49 0 l 304 1014 l 528 1014 l 785 0 l 607 0 l 551 246 l 282 246 l 226 0 z m 375 661 l 314 388 l 519 388 l 458 660 q 443 728 432 783 q 421 838 417 863 l 417 863 q 413 838 401 783 q 390 728 375 661 l 375 661 z m 507 1254 l 365 1254 l 231 1417 l 383 1417 l 507 1254 z m 458 1083 l 374 1083 q 274 1083 216 1133 q 158 1183 158 1268 l 158 1268 l 276 1268 q 276 1229 301 1206 q 326 1183 374 1183 l 374 1183 l 458 1183 q 504 1183 531 1206 q 557 1229 557 1268 l 557 1268 l 674 1268 q 674 1183 616 1133 q 558 1083 458 1083 l 458 1083 z "},"Ẳ":{"ha":833,"x_min":49,"x_max":785,"o":"m 226 0 l 49 0 l 304 1014 l 528 1014 l 785 0 l 607 0 l 551 246 l 282 246 l 226 0 z m 375 661 l 314 388 l 519 388 l 458 660 q 443 728 432 783 q 421 838 417 863 l 417 863 q 413 838 401 783 q 390 728 375 661 l 375 661 z m 478 1231 l 349 1231 l 396 1288 q 407 1300 407 1311 l 407 1311 q 407 1325 390 1325 l 390 1325 l 292 1325 l 292 1417 l 429 1417 q 478 1417 504 1395 q 531 1374 531 1335 l 531 1335 q 531 1314 522 1296 q 514 1278 503 1263 l 503 1263 l 478 1231 z m 458 1083 l 374 1083 q 274 1083 216 1133 q 158 1183 158 1268 l 158 1268 l 276 1268 q 276 1229 301 1206 q 326 1183 374 1183 l 374 1183 l 458 1183 q 504 1183 531 1206 q 557 1229 557 1268 l 557 1268 l 674 1268 q 674 1183 616 1133 q 558 1083 458 1083 l 458 1083 z "},"Ẵ":{"ha":833,"x_min":49,"x_max":785,"o":"m 226 0 l 49 0 l 304 1014 l 528 1014 l 785 0 l 607 0 l 551 246 l 282 246 l 226 0 z m 375 661 l 314 388 l 519 388 l 458 660 q 443 728 432 783 q 421 838 417 863 l 417 863 q 413 838 401 783 q 390 728 375 661 l 375 661 z m 526 1269 l 526 1269 q 471 1269 436 1283 q 401 1297 375 1311 q 349 1325 319 1325 l 319 1325 q 282 1325 282 1288 l 282 1288 l 282 1279 l 175 1279 l 175 1288 q 175 1347 211 1382 q 247 1417 308 1417 l 308 1417 q 364 1417 398 1403 q 432 1389 458 1375 q 485 1361 514 1361 l 514 1361 q 551 1361 551 1399 l 551 1399 l 551 1407 l 658 1407 l 658 1399 q 658 1339 622 1304 q 586 1269 526 1269 z m 467 1083 l 367 1083 q 279 1083 227 1124 q 175 1165 175 1242 l 175 1242 l 293 1242 q 293 1213 312 1198 q 331 1183 363 1183 l 363 1183 l 471 1183 q 503 1183 522 1198 q 540 1213 540 1242 l 540 1242 l 658 1242 q 658 1165 606 1124 q 554 1083 467 1083 l 467 1083 z "},"Ǎ":{"ha":833,"x_min":49,"x_max":785,"o":"m 226 0 l 49 0 l 304 1014 l 528 1014 l 785 0 l 607 0 l 551 246 l 282 246 l 226 0 z m 375 661 l 314 388 l 519 388 l 458 660 q 443 728 432 783 q 421 838 417 863 l 417 863 q 413 838 401 783 q 390 728 375 661 l 375 661 z m 497 1125 l 336 1125 l 146 1319 l 313 1319 l 418 1218 l 519 1319 l 688 1319 l 497 1125 z "},"Â":{"ha":833,"x_min":49,"x_max":785,"o":"m 226 0 l 49 0 l 304 1014 l 528 1014 l 785 0 l 607 0 l 551 246 l 282 246 l 226 0 z m 375 661 l 314 388 l 519 388 l 458 660 q 443 728 432 783 q 421 838 417 863 l 417 863 q 413 838 401 783 q 390 728 375 661 l 375 661 z m 314 1125 l 146 1125 l 336 1319 l 497 1319 l 688 1125 l 521 1125 l 415 1226 l 314 1125 z "},"Ấ":{"ha":833,"x_min":49,"x_max":899,"o":"m 226 0 l 49 0 l 304 1014 l 528 1014 l 785 0 l 607 0 l 551 246 l 282 246 l 226 0 z m 375 661 l 314 388 l 519 388 l 458 660 q 443 728 432 783 q 421 838 417 863 l 417 863 q 413 838 401 783 q 390 728 375 661 l 375 661 z m 742 1254 l 576 1254 l 722 1417 l 899 1417 l 742 1254 z m 314 1083 l 146 1083 l 336 1278 l 497 1278 l 688 1083 l 519 1083 l 417 1185 l 314 1083 z "},"Ậ":{"ha":833,"x_min":49,"x_max":785,"o":"m 314 1125 l 146 1125 l 336 1319 l 497 1319 l 688 1125 l 521 1125 l 415 1226 l 314 1125 z m 226 0 l 49 0 l 304 1014 l 528 1014 l 785 0 l 607 0 l 551 246 l 282 246 l 226 0 z m 375 661 l 314 388 l 519 388 l 458 660 q 443 728 432 783 q 421 838 417 863 l 417 863 q 413 838 401 783 q 390 728 375 661 l 375 661 z m 417 -312 l 417 -312 q 364 -312 333 -285 q 303 -258 303 -212 l 303 -212 q 303 -165 333 -138 q 364 -111 417 -111 l 417 -111 q 469 -111 500 -138 q 531 -165 531 -212 l 531 -212 q 531 -258 500 -285 q 469 -312 417 -312 z "},"Ầ":{"ha":833,"x_min":49,"x_max":790,"o":"m 226 0 l 49 0 l 304 1014 l 528 1014 l 785 0 l 607 0 l 551 246 l 282 246 l 226 0 z m 375 661 l 314 388 l 519 388 l 458 660 q 443 728 432 783 q 421 838 417 863 l 417 863 q 413 838 401 783 q 390 728 375 661 l 375 661 z m 790 1254 l 626 1254 l 464 1417 l 639 1417 l 790 1254 z m 314 1083 l 146 1083 l 336 1278 l 497 1278 l 688 1083 l 519 1083 l 417 1185 l 314 1083 z "},"Ẩ":{"ha":833,"x_min":49,"x_max":797,"o":"m 226 0 l 49 0 l 304 1014 l 528 1014 l 785 0 l 607 0 l 551 246 l 282 246 l 226 0 z m 375 661 l 314 388 l 519 388 l 458 660 q 443 728 432 783 q 421 838 417 863 l 417 863 q 413 838 401 783 q 390 728 375 661 l 375 661 z m 732 1214 l 599 1214 l 653 1269 q 668 1283 668 1299 l 668 1299 q 668 1321 639 1321 l 639 1321 l 544 1321 l 544 1417 l 671 1417 q 728 1417 763 1390 q 797 1363 797 1314 l 797 1314 q 797 1272 768 1247 l 768 1247 l 732 1214 z m 314 1083 l 146 1083 l 336 1278 l 497 1278 l 688 1083 l 519 1083 l 417 1185 l 314 1083 z "},"Ẫ":{"ha":833,"x_min":49,"x_max":785,"o":"m 226 0 l 49 0 l 304 1014 l 528 1014 l 785 0 l 607 0 l 551 246 l 282 246 l 226 0 z m 375 661 l 314 388 l 519 388 l 458 660 q 443 728 432 783 q 421 838 417 863 l 417 863 q 413 838 401 783 q 390 728 375 661 l 375 661 z m 526 1269 l 526 1269 q 471 1269 436 1283 q 401 1297 375 1311 q 349 1325 319 1325 l 319 1325 q 282 1325 282 1288 l 282 1288 l 282 1279 l 175 1279 l 175 1288 q 175 1347 211 1382 q 247 1417 308 1417 l 308 1417 q 364 1417 398 1403 q 432 1389 458 1375 q 485 1361 514 1361 l 514 1361 q 551 1361 551 1399 l 551 1399 l 551 1407 l 658 1407 l 658 1399 q 658 1339 622 1304 q 586 1269 526 1269 z m 314 1083 l 146 1083 l 290 1231 l 543 1231 l 688 1083 l 518 1083 l 417 1186 l 314 1083 z "},"Ä":{"ha":833,"x_min":49,"x_max":785,"o":"m 226 0 l 49 0 l 304 1014 l 528 1014 l 785 0 l 607 0 l 551 246 l 282 246 l 226 0 z m 375 661 l 314 388 l 519 388 l 458 660 q 443 728 432 783 q 421 838 417 863 l 417 863 q 413 838 401 783 q 390 728 375 661 l 375 661 z m 579 1122 l 579 1122 q 533 1122 506 1149 q 478 1176 478 1222 l 478 1222 q 478 1269 506 1297 q 533 1324 579 1324 l 579 1324 q 626 1324 654 1297 q 682 1269 682 1222 l 682 1222 q 682 1176 654 1149 q 626 1122 579 1122 z m 254 1122 l 254 1122 q 207 1122 179 1149 q 151 1176 151 1222 l 151 1222 q 151 1269 179 1297 q 207 1324 254 1324 l 254 1324 q 300 1324 328 1297 q 356 1269 356 1222 l 356 1222 q 356 1176 328 1149 q 300 1122 254 1122 z "},"Ạ":{"ha":833,"x_min":49,"x_max":785,"o":"m 226 0 l 49 0 l 304 1014 l 528 1014 l 785 0 l 607 0 l 551 246 l 282 246 l 226 0 z m 375 661 l 314 388 l 519 388 l 458 660 q 443 728 432 783 q 421 838 417 863 l 417 863 q 413 838 401 783 q 390 728 375 661 l 375 661 z m 417 -312 l 417 -312 q 364 -312 333 -285 q 303 -258 303 -212 l 303 -212 q 303 -165 333 -138 q 364 -111 417 -111 l 417 -111 q 469 -111 500 -138 q 531 -165 531 -212 l 531 -212 q 531 -258 500 -285 q 469 -312 417 -312 z "},"À":{"ha":833,"x_min":49,"x_max":785,"o":"m 226 0 l 49 0 l 304 1014 l 528 1014 l 785 0 l 607 0 l 551 246 l 282 246 l 226 0 z m 375 661 l 314 388 l 519 388 l 458 660 q 443 728 432 783 q 421 838 417 863 l 417 863 q 413 838 401 783 q 390 728 375 661 l 375 661 z m 525 1125 l 346 1125 l 185 1319 l 376 1319 l 525 1125 z "},"Ả":{"ha":833,"x_min":49,"x_max":785,"o":"m 226 0 l 49 0 l 304 1014 l 528 1014 l 785 0 l 607 0 l 551 246 l 282 246 l 226 0 z m 375 661 l 314 388 l 519 388 l 458 660 q 443 728 432 783 q 421 838 417 863 l 417 863 q 413 838 401 783 q 390 728 375 661 l 375 661 z m 485 1108 l 346 1108 l 413 1192 q 432 1217 432 1233 l 432 1233 q 432 1258 392 1258 l 392 1258 l 283 1258 l 283 1365 l 415 1365 q 481 1365 521 1334 q 561 1303 561 1251 l 561 1251 q 561 1208 533 1172 l 533 1172 l 485 1108 z "},"Ā":{"ha":833,"x_min":49,"x_max":785,"o":"m 226 0 l 49 0 l 304 1014 l 528 1014 l 785 0 l 607 0 l 551 246 l 282 246 l 226 0 z m 375 661 l 314 388 l 519 388 l 458 660 q 443 728 432 783 q 421 838 417 863 l 417 863 q 413 838 401 783 q 390 728 375 661 l 375 661 z m 656 1150 l 178 1150 l 178 1283 l 656 1283 l 656 1150 z "},"Ą":{"ha":833,"x_min":49,"x_max":801,"o":"m 226 0 l 49 0 l 304 1014 l 528 1014 l 785 0 l 728 0 l 713 -14 q 642 -75 642 -121 l 642 -121 q 642 -146 660 -163 q 679 -181 711 -181 l 711 -181 l 801 -181 l 801 -300 l 669 -300 q 588 -300 540 -260 q 493 -219 493 -157 l 493 -157 q 493 -71 607 0 l 607 0 l 551 246 l 282 246 l 226 0 z m 375 661 l 314 388 l 519 388 l 458 660 q 443 728 432 783 q 421 838 417 863 l 417 863 q 413 838 401 783 q 390 728 375 661 l 375 661 z "},"Å":{"ha":833,"x_min":49,"x_max":785,"o":"m 226 0 l 49 0 l 304 1014 l 528 1014 l 785 0 l 607 0 l 551 246 l 282 246 l 226 0 z m 375 661 l 314 388 l 519 388 l 458 660 q 443 728 432 783 q 421 838 417 863 l 417 863 q 413 838 401 783 q 390 728 375 661 l 375 661 z m 417 1053 l 417 1053 q 335 1053 284 1099 q 233 1146 233 1222 l 233 1222 q 233 1299 284 1345 q 335 1392 417 1392 l 417 1392 q 499 1392 549 1345 q 600 1299 600 1222 l 600 1222 q 600 1146 549 1099 q 499 1053 417 1053 z m 417 1140 l 417 1140 q 454 1140 477 1163 q 500 1186 500 1222 l 500 1222 q 500 1258 477 1281 q 454 1304 417 1304 l 417 1304 q 379 1304 356 1281 q 333 1258 333 1222 l 333 1222 q 333 1186 356 1163 q 379 1140 417 1140 z "},"Ã":{"ha":833,"x_min":49,"x_max":785,"o":"m 226 0 l 49 0 l 304 1014 l 528 1014 l 785 0 l 607 0 l 551 246 l 282 246 l 226 0 z m 375 661 l 314 388 l 519 388 l 458 660 q 443 728 432 783 q 421 838 417 863 l 417 863 q 413 838 401 783 q 390 728 375 661 l 375 661 z m 514 1119 l 514 1119 q 471 1119 444 1133 q 417 1147 399 1165 q 381 1182 365 1195 q 349 1208 326 1208 l 326 1208 q 285 1208 285 1163 l 285 1163 l 285 1126 l 178 1126 l 178 1172 q 178 1240 217 1283 q 256 1325 319 1325 l 319 1325 q 363 1325 390 1311 q 417 1297 435 1280 q 453 1263 469 1249 q 485 1236 507 1236 l 507 1236 q 549 1236 549 1279 l 549 1279 l 549 1318 l 656 1318 l 656 1272 q 656 1204 617 1162 q 578 1119 514 1119 z "},"Æ":{"ha":833,"x_min":17,"x_max":800,"o":"m 186 0 l 17 0 l 213 1014 l 800 1014 l 800 865 l 561 865 l 561 596 l 765 596 l 765 443 l 561 443 l 561 150 l 800 150 l 800 0 l 411 0 l 411 251 l 231 251 l 186 0 z m 339 865 l 251 379 l 411 379 l 411 865 l 339 865 z "},"Ǽ":{"ha":833,"x_min":17,"x_max":800,"o":"m 186 0 l 17 0 l 213 1014 l 800 1014 l 800 865 l 561 865 l 561 596 l 765 596 l 765 443 l 561 443 l 561 150 l 800 150 l 800 0 l 411 0 l 411 251 l 231 251 l 186 0 z m 339 865 l 251 379 l 411 379 l 411 865 l 339 865 z m 486 1125 l 311 1125 l 458 1319 l 644 1319 l 486 1125 z "},"B":{"ha":833,"x_min":107,"x_max":761,"o":"m 433 0 l 107 0 l 107 1014 l 418 1014 q 564 1014 651 943 q 738 872 738 753 l 738 753 q 738 669 690 610 q 642 550 565 538 l 565 538 l 565 535 q 622 528 667 494 q 711 460 736 406 q 761 353 761 289 l 761 289 q 761 201 721 136 q 681 71 607 35 q 533 0 433 0 l 433 0 z m 276 869 l 276 596 l 415 596 q 483 596 524 633 q 564 669 564 733 l 564 733 q 564 796 524 833 q 485 869 415 869 l 415 869 l 276 869 z m 276 456 l 276 144 l 424 144 q 500 144 544 185 q 588 226 588 297 l 588 297 q 588 368 544 412 q 500 456 424 456 l 424 456 l 276 456 z "},"C":{"ha":833,"x_min":106,"x_max":750,"o":"m 428 -14 l 428 -14 q 329 -14 257 23 q 185 60 145 127 q 106 194 106 286 l 106 286 l 106 728 q 106 819 145 887 q 185 954 257 991 q 329 1028 428 1028 l 428 1028 q 525 1028 597 991 q 669 954 710 887 q 750 819 750 728 l 750 728 l 575 728 q 575 799 537 837 q 499 875 428 875 l 428 875 q 357 875 318 837 q 279 799 279 728 l 279 728 l 279 286 q 279 215 318 177 q 357 139 428 139 l 428 139 q 499 139 537 177 q 575 215 575 286 l 575 286 l 750 286 q 750 194 710 127 q 669 60 597 23 q 525 -14 428 -14 z "},"Ć":{"ha":833,"x_min":106,"x_max":750,"o":"m 428 -14 l 428 -14 q 329 -14 257 23 q 185 60 145 127 q 106 194 106 286 l 106 286 l 106 728 q 106 819 145 887 q 185 954 257 991 q 329 1028 428 1028 l 428 1028 q 525 1028 597 991 q 669 954 710 887 q 750 819 750 728 l 750 728 l 575 728 q 575 799 537 837 q 499 875 428 875 l 428 875 q 357 875 318 837 q 279 799 279 728 l 279 728 l 279 286 q 279 215 318 177 q 357 139 428 139 l 428 139 q 499 139 537 177 q 575 215 575 286 l 575 286 l 750 286 q 750 194 710 127 q 669 60 597 23 q 525 -14 428 -14 z m 493 1125 l 318 1125 l 465 1319 l 651 1319 l 493 1125 z "},"Č":{"ha":833,"x_min":106,"x_max":750,"o":"m 428 -14 l 428 -14 q 329 -14 257 23 q 185 60 145 127 q 106 194 106 286 l 106 286 l 106 728 q 106 819 145 887 q 185 954 257 991 q 329 1028 428 1028 l 428 1028 q 525 1028 597 991 q 669 954 710 887 q 750 819 750 728 l 750 728 l 575 728 q 575 799 537 837 q 499 875 428 875 l 428 875 q 357 875 318 837 q 279 799 279 728 l 279 728 l 279 286 q 279 215 318 177 q 357 139 428 139 l 428 139 q 499 139 537 177 q 575 215 575 286 l 575 286 l 750 286 q 750 194 710 127 q 669 60 597 23 q 525 -14 428 -14 z m 504 1125 l 343 1125 l 153 1319 l 319 1319 l 425 1218 l 526 1319 l 694 1319 l 504 1125 z "},"Ç":{"ha":833,"x_min":106,"x_max":750,"o":"m 422 -300 l 283 -300 l 283 -211 l 389 -211 q 422 -211 442 -195 q 463 -179 463 -161 l 463 -161 q 463 -132 422 -114 q 381 -96 307 -96 l 307 -96 l 343 -6 q 232 17 169 93 q 106 169 106 286 l 106 286 l 106 728 q 106 819 145 887 q 185 954 257 991 q 329 1028 428 1028 l 428 1028 q 525 1028 597 991 q 669 954 710 887 q 750 819 750 728 l 750 728 l 575 728 q 575 799 537 837 q 499 875 428 875 l 428 875 q 357 875 318 837 q 279 799 279 728 l 279 728 l 279 286 q 279 215 318 177 q 357 139 428 139 l 428 139 q 499 139 537 177 q 575 215 575 286 l 575 286 l 750 286 q 750 194 710 127 q 671 60 599 23 q 528 -14 433 -14 l 433 -14 l 421 -51 q 460 -56 503 -70 q 546 -85 575 -111 q 604 -137 604 -178 l 604 -178 q 604 -226 554 -263 q 504 -300 422 -300 l 422 -300 z "},"Ĉ":{"ha":833,"x_min":106,"x_max":750,"o":"m 428 -14 l 428 -14 q 329 -14 257 23 q 185 60 145 127 q 106 194 106 286 l 106 286 l 106 728 q 106 819 145 887 q 185 954 257 991 q 329 1028 428 1028 l 428 1028 q 525 1028 597 991 q 669 954 710 887 q 750 819 750 728 l 750 728 l 575 728 q 575 799 537 837 q 499 875 428 875 l 428 875 q 357 875 318 837 q 279 799 279 728 l 279 728 l 279 286 q 279 215 318 177 q 357 139 428 139 l 428 139 q 499 139 537 177 q 575 215 575 286 l 575 286 l 750 286 q 750 194 710 127 q 669 60 597 23 q 525 -14 428 -14 z m 321 1125 l 153 1125 l 343 1319 l 504 1319 l 694 1125 l 528 1125 l 422 1226 l 321 1125 z "},"Ċ":{"ha":833,"x_min":106,"x_max":750,"o":"m 428 -14 l 428 -14 q 329 -14 257 23 q 185 60 145 127 q 106 194 106 286 l 106 286 l 106 728 q 106 819 145 887 q 185 954 257 991 q 329 1028 428 1028 l 428 1028 q 525 1028 597 991 q 669 954 710 887 q 750 819 750 728 l 750 728 l 575 728 q 575 799 537 837 q 499 875 428 875 l 428 875 q 357 875 318 837 q 279 799 279 728 l 279 728 l 279 286 q 279 215 318 177 q 357 139 428 139 l 428 139 q 499 139 537 177 q 575 215 575 286 l 575 286 l 750 286 q 750 194 710 127 q 669 60 597 23 q 525 -14 428 -14 z m 424 1122 l 424 1122 q 371 1122 340 1149 q 310 1176 310 1222 l 310 1222 q 310 1268 340 1295 q 371 1322 424 1322 l 424 1322 q 476 1322 507 1295 q 538 1268 538 1222 l 538 1222 q 538 1176 507 1149 q 476 1122 424 1122 z "},"D":{"ha":833,"x_min":104,"x_max":743,"o":"m 406 0 l 104 0 l 104 1014 l 406 1014 q 508 1014 584 974 q 660 935 701 864 q 743 793 743 697 l 743 697 l 743 318 q 743 222 701 151 q 660 79 584 40 q 508 0 406 0 l 406 0 z m 278 858 l 278 156 l 406 156 q 481 156 525 199 q 569 243 569 318 l 569 318 l 569 697 q 569 771 525 815 q 481 858 406 858 l 406 858 l 278 858 z "},"Ď":{"ha":833,"x_min":104,"x_max":743,"o":"m 406 0 l 104 0 l 104 1014 l 406 1014 q 508 1014 584 974 q 660 935 701 864 q 743 793 743 697 l 743 697 l 743 318 q 743 222 701 151 q 660 79 584 40 q 508 0 406 0 l 406 0 z m 278 858 l 278 156 l 406 156 q 481 156 525 199 q 569 243 569 318 l 569 318 l 569 697 q 569 771 525 815 q 481 858 406 858 l 406 858 l 278 858 z m 497 1125 l 336 1125 l 146 1319 l 313 1319 l 418 1218 l 519 1319 l 688 1319 l 497 1125 z "},"Đ":{"ha":833,"x_min":14,"x_max":743,"o":"m 406 0 l 104 0 l 104 457 l 14 457 l 14 578 l 104 578 l 104 1014 l 406 1014 q 508 1014 584 974 q 660 935 701 864 q 743 793 743 697 l 743 697 l 743 318 q 743 222 701 151 q 660 79 584 40 q 508 0 406 0 l 406 0 z m 278 457 l 278 156 l 406 156 q 481 156 525 199 q 569 243 569 318 l 569 318 l 569 697 q 569 771 525 815 q 481 858 406 858 l 406 858 l 278 858 l 278 578 l 403 578 l 403 457 l 278 457 z "},"Ð":{"ha":833,"x_min":14,"x_max":743,"o":"m 406 0 l 104 0 l 104 457 l 14 457 l 14 578 l 104 578 l 104 1014 l 406 1014 q 508 1014 584 974 q 660 935 701 864 q 743 793 743 697 l 743 697 l 743 318 q 743 222 701 151 q 660 79 584 40 q 508 0 406 0 l 406 0 z m 278 457 l 278 156 l 406 156 q 481 156 525 199 q 569 243 569 318 l 569 318 l 569 697 q 569 771 525 815 q 481 858 406 858 l 406 858 l 278 858 l 278 578 l 403 578 l 403 457 l 278 457 z "},"E":{"ha":833,"x_min":122,"x_max":731,"o":"m 731 0 l 122 0 l 122 1014 l 731 1014 l 731 861 l 293 861 l 293 597 l 682 597 l 682 450 l 293 450 l 293 153 l 731 153 l 731 0 z "},"É":{"ha":833,"x_min":122,"x_max":731,"o":"m 731 0 l 122 0 l 122 1014 l 731 1014 l 731 861 l 293 861 l 293 597 l 682 597 l 682 450 l 293 450 l 293 153 l 731 153 l 731 0 z m 496 1125 l 321 1125 l 468 1319 l 654 1319 l 496 1125 z "},"Ĕ":{"ha":833,"x_min":122,"x_max":731,"o":"m 731 0 l 122 0 l 122 1014 l 731 1014 l 731 861 l 293 861 l 293 597 l 682 597 l 682 450 l 293 450 l 293 153 l 731 153 l 731 0 z m 426 1114 l 426 1114 q 318 1114 251 1170 q 185 1226 185 1319 l 185 1319 l 319 1319 q 319 1274 349 1246 q 378 1218 426 1218 l 426 1218 q 475 1218 505 1246 q 535 1274 535 1319 l 535 1319 l 669 1319 q 669 1226 603 1170 q 536 1114 426 1114 z "},"Ě":{"ha":833,"x_min":122,"x_max":731,"o":"m 731 0 l 122 0 l 122 1014 l 731 1014 l 731 861 l 293 861 l 293 597 l 682 597 l 682 450 l 293 450 l 293 153 l 731 153 l 731 0 z m 507 1125 l 346 1125 l 156 1319 l 322 1319 l 428 1218 l 529 1319 l 697 1319 l 507 1125 z "},"Ê":{"ha":833,"x_min":122,"x_max":731,"o":"m 731 0 l 122 0 l 122 1014 l 731 1014 l 731 861 l 293 861 l 293 597 l 682 597 l 682 450 l 293 450 l 293 153 l 731 153 l 731 0 z m 324 1125 l 156 1125 l 346 1319 l 507 1319 l 697 1125 l 531 1125 l 425 1226 l 324 1125 z "},"Ế":{"ha":833,"x_min":122,"x_max":908,"o":"m 731 0 l 122 0 l 122 1014 l 731 1014 l 731 861 l 293 861 l 293 597 l 682 597 l 682 450 l 293 450 l 293 153 l 731 153 l 731 0 z m 751 1254 l 586 1254 l 732 1417 l 908 1417 l 751 1254 z m 324 1083 l 156 1083 l 346 1278 l 507 1278 l 697 1083 l 529 1083 l 426 1185 l 324 1083 z "},"Ệ":{"ha":833,"x_min":122,"x_max":731,"o":"m 731 0 l 122 0 l 122 1014 l 731 1014 l 731 861 l 293 861 l 293 597 l 682 597 l 682 450 l 293 450 l 293 153 l 731 153 l 731 0 z m 426 -312 l 426 -312 q 374 -312 343 -285 q 313 -258 313 -212 l 313 -212 q 313 -165 343 -138 q 374 -111 426 -111 l 426 -111 q 479 -111 510 -138 q 540 -165 540 -212 l 540 -212 q 540 -258 510 -285 q 479 -312 426 -312 z m 324 1125 l 156 1125 l 346 1319 l 507 1319 l 697 1125 l 531 1125 l 425 1226 l 324 1125 z "},"Ề":{"ha":833,"x_min":122,"x_max":800,"o":"m 731 0 l 122 0 l 122 1014 l 731 1014 l 731 861 l 293 861 l 293 597 l 682 597 l 682 450 l 293 450 l 293 153 l 731 153 l 731 0 z m 800 1254 l 636 1254 l 474 1417 l 649 1417 l 800 1254 z m 324 1083 l 156 1083 l 346 1278 l 507 1278 l 697 1083 l 529 1083 l 426 1185 l 324 1083 z "},"Ể":{"ha":833,"x_min":122,"x_max":807,"o":"m 731 0 l 122 0 l 122 1014 l 731 1014 l 731 861 l 293 861 l 293 597 l 682 597 l 682 450 l 293 450 l 293 153 l 731 153 l 731 0 z m 742 1214 l 608 1214 l 663 1269 q 678 1283 678 1299 l 678 1299 q 678 1321 649 1321 l 649 1321 l 554 1321 l 554 1417 l 681 1417 q 738 1417 772 1390 q 807 1363 807 1314 l 807 1314 q 807 1272 778 1247 l 778 1247 l 742 1214 z m 324 1083 l 156 1083 l 346 1278 l 507 1278 l 697 1083 l 529 1083 l 426 1185 l 324 1083 z "},"Ễ":{"ha":833,"x_min":122,"x_max":731,"o":"m 731 0 l 122 0 l 122 1014 l 731 1014 l 731 861 l 293 861 l 293 597 l 682 597 l 682 450 l 293 450 l 293 153 l 731 153 l 731 0 z m 536 1269 l 536 1269 q 481 1269 446 1283 q 411 1297 385 1311 q 358 1325 329 1325 l 329 1325 q 292 1325 292 1288 l 292 1288 l 292 1279 l 185 1279 l 185 1288 q 185 1347 221 1382 q 257 1417 318 1417 l 318 1417 q 374 1417 408 1403 q 442 1389 468 1375 q 494 1361 524 1361 l 524 1361 q 561 1361 561 1399 l 561 1399 l 561 1407 l 668 1407 l 668 1399 q 668 1339 632 1304 q 596 1269 536 1269 z m 324 1083 l 156 1083 l 300 1231 l 553 1231 l 697 1083 l 528 1083 l 426 1186 l 324 1083 z "},"Ë":{"ha":833,"x_min":122,"x_max":731,"o":"m 731 0 l 122 0 l 122 1014 l 731 1014 l 731 861 l 293 861 l 293 597 l 682 597 l 682 450 l 293 450 l 293 153 l 731 153 l 731 0 z m 589 1122 l 589 1122 q 543 1122 515 1149 q 488 1176 488 1222 l 488 1222 q 488 1269 515 1297 q 543 1324 589 1324 l 589 1324 q 636 1324 664 1297 q 692 1269 692 1222 l 692 1222 q 692 1176 664 1149 q 636 1122 589 1122 z m 264 1122 l 264 1122 q 217 1122 189 1149 q 161 1176 161 1222 l 161 1222 q 161 1269 189 1297 q 217 1324 264 1324 l 264 1324 q 310 1324 338 1297 q 365 1269 365 1222 l 365 1222 q 365 1176 338 1149 q 310 1122 264 1122 z "},"Ė":{"ha":833,"x_min":122,"x_max":731,"o":"m 731 0 l 122 0 l 122 1014 l 731 1014 l 731 861 l 293 861 l 293 597 l 682 597 l 682 450 l 293 450 l 293 153 l 731 153 l 731 0 z m 426 1122 l 426 1122 q 374 1122 343 1149 q 313 1176 313 1222 l 313 1222 q 313 1268 343 1295 q 374 1322 426 1322 l 426 1322 q 479 1322 510 1295 q 540 1268 540 1222 l 540 1222 q 540 1176 510 1149 q 479 1122 426 1122 z "},"Ẹ":{"ha":833,"x_min":122,"x_max":731,"o":"m 731 0 l 122 0 l 122 1014 l 731 1014 l 731 861 l 293 861 l 293 597 l 682 597 l 682 450 l 293 450 l 293 153 l 731 153 l 731 0 z m 426 -312 l 426 -312 q 374 -312 343 -285 q 313 -258 313 -212 l 313 -212 q 313 -165 343 -138 q 374 -111 426 -111 l 426 -111 q 479 -111 510 -138 q 540 -165 540 -212 l 540 -212 q 540 -258 510 -285 q 479 -312 426 -312 z "},"È":{"ha":833,"x_min":122,"x_max":731,"o":"m 731 0 l 122 0 l 122 1014 l 731 1014 l 731 861 l 293 861 l 293 597 l 682 597 l 682 450 l 293 450 l 293 153 l 731 153 l 731 0 z m 535 1125 l 356 1125 l 194 1319 l 386 1319 l 535 1125 z "},"Ẻ":{"ha":833,"x_min":122,"x_max":731,"o":"m 731 0 l 122 0 l 122 1014 l 731 1014 l 731 861 l 293 861 l 293 597 l 682 597 l 682 450 l 293 450 l 293 153 l 731 153 l 731 0 z m 494 1108 l 356 1108 l 422 1192 q 442 1217 442 1233 l 442 1233 q 442 1258 401 1258 l 401 1258 l 293 1258 l 293 1365 l 425 1365 q 490 1365 531 1334 q 571 1303 571 1251 l 571 1251 q 571 1208 543 1172 l 543 1172 l 494 1108 z "},"Ē":{"ha":833,"x_min":122,"x_max":731,"o":"m 731 0 l 122 0 l 122 1014 l 731 1014 l 731 861 l 293 861 l 293 597 l 682 597 l 682 450 l 293 450 l 293 153 l 731 153 l 731 0 z m 665 1150 l 188 1150 l 188 1283 l 665 1283 l 665 1150 z "},"Ę":{"ha":833,"x_min":122,"x_max":736,"o":"m 540 0 l 122 0 l 122 1014 l 731 1014 l 731 861 l 293 861 l 293 597 l 682 597 l 682 450 l 293 450 l 293 153 l 731 153 l 731 0 l 663 0 l 647 -14 q 576 -75 576 -121 l 576 -121 q 576 -146 595 -163 q 614 -181 646 -181 l 646 -181 l 736 -181 l 736 -300 l 604 -300 q 522 -300 474 -260 q 426 -219 426 -157 l 426 -157 q 426 -71 540 0 l 540 0 z "},"Ɛ":{"ha":833,"x_min":74,"x_max":778,"o":"m 429 -14 l 429 -14 q 324 -14 244 24 q 164 61 119 128 q 74 194 74 283 l 74 283 q 74 378 126 448 q 179 518 264 535 l 264 535 l 264 539 q 193 553 148 614 q 103 675 103 757 l 103 757 q 103 838 144 899 q 185 960 257 994 q 329 1028 424 1028 l 424 1028 q 521 1028 594 990 q 668 951 709 884 q 750 817 750 728 l 750 728 l 579 728 q 579 796 536 838 q 493 881 425 881 l 425 881 q 360 881 318 842 q 276 804 276 742 l 276 742 q 276 679 318 640 q 360 600 426 600 l 426 600 l 544 600 l 544 453 l 429 453 q 349 453 299 409 q 250 365 250 294 l 250 294 q 250 224 299 180 q 349 136 429 136 l 429 136 q 507 136 556 178 q 606 219 607 286 l 607 286 l 778 286 q 778 197 733 130 q 689 63 610 24 q 532 -14 429 -14 z "},"Ẽ":{"ha":833,"x_min":122,"x_max":731,"o":"m 731 0 l 122 0 l 122 1014 l 731 1014 l 731 861 l 293 861 l 293 597 l 682 597 l 682 450 l 293 450 l 293 153 l 731 153 l 731 0 z m 524 1119 l 524 1119 q 481 1119 453 1133 q 426 1147 408 1165 q 390 1182 374 1195 q 358 1208 336 1208 l 336 1208 q 294 1208 294 1163 l 294 1163 l 294 1126 l 188 1126 l 188 1172 q 188 1240 226 1283 q 265 1325 329 1325 l 329 1325 q 372 1325 399 1311 q 426 1297 444 1280 q 463 1263 478 1249 q 494 1236 517 1236 l 517 1236 q 558 1236 558 1279 l 558 1279 l 558 1318 l 665 1318 l 665 1272 q 665 1204 626 1162 q 588 1119 524 1119 z "},"Ə":{"ha":833,"x_min":100,"x_max":733,"o":"m 418 -14 l 418 -14 q 321 -14 249 24 q 178 61 139 128 q 100 196 100 286 l 100 286 l 100 568 l 558 568 l 558 729 q 558 800 523 838 q 488 876 418 876 l 418 876 q 347 876 312 838 q 276 799 276 728 l 276 728 l 103 728 q 103 865 188 947 q 272 1028 418 1028 l 418 1028 q 564 1028 649 947 q 733 865 733 728 l 733 728 l 733 286 q 733 196 694 128 q 656 61 585 24 q 515 -14 418 -14 z m 418 122 l 418 122 q 493 122 526 165 q 558 207 558 286 l 558 286 l 558 439 l 275 439 l 275 286 q 275 122 418 122 z "},"F":{"ha":833,"x_min":111,"x_max":742,"o":"m 285 0 l 111 0 l 111 1014 l 742 1014 l 742 853 l 282 853 l 282 582 l 706 582 l 706 421 l 285 421 l 285 0 z "},"G":{"ha":833,"x_min":100,"x_max":744,"o":"m 422 -14 l 422 -14 q 324 -14 251 23 q 179 60 140 127 q 100 194 100 286 l 100 286 l 100 728 q 100 819 140 887 q 179 954 251 991 q 324 1028 422 1028 l 422 1028 q 519 1028 592 991 q 664 954 704 887 q 744 819 744 728 l 744 728 l 569 728 q 569 799 531 837 q 493 875 422 875 l 422 875 q 351 875 313 838 q 274 800 274 729 l 274 729 l 274 286 q 274 215 313 176 q 351 138 422 138 l 422 138 q 493 138 531 176 q 569 215 569 286 l 569 286 l 569 399 l 397 399 l 397 549 l 744 549 l 744 286 q 744 194 704 127 q 664 60 592 23 q 519 -14 422 -14 z "},"Ǵ":{"ha":833,"x_min":100,"x_max":744,"o":"m 422 -14 l 422 -14 q 324 -14 251 23 q 179 60 140 127 q 100 194 100 286 l 100 286 l 100 728 q 100 819 140 887 q 179 954 251 991 q 324 1028 422 1028 l 422 1028 q 519 1028 592 991 q 664 954 704 887 q 744 819 744 728 l 744 728 l 569 728 q 569 799 531 837 q 493 875 422 875 l 422 875 q 351 875 313 838 q 274 800 274 729 l 274 729 l 274 286 q 274 215 313 176 q 351 138 422 138 l 422 138 q 493 138 531 176 q 569 215 569 286 l 569 286 l 569 399 l 397 399 l 397 549 l 744 549 l 744 286 q 744 194 704 127 q 664 60 592 23 q 519 -14 422 -14 z m 486 1125 l 311 1125 l 458 1319 l 644 1319 l 486 1125 z "},"Ğ":{"ha":833,"x_min":100,"x_max":744,"o":"m 422 -14 l 422 -14 q 324 -14 251 23 q 179 60 140 127 q 100 194 100 286 l 100 286 l 100 728 q 100 819 140 887 q 179 954 251 991 q 324 1028 422 1028 l 422 1028 q 519 1028 592 991 q 664 954 704 887 q 744 819 744 728 l 744 728 l 569 728 q 569 799 531 837 q 493 875 422 875 l 422 875 q 351 875 313 838 q 274 800 274 729 l 274 729 l 274 286 q 274 215 313 176 q 351 138 422 138 l 422 138 q 493 138 531 176 q 569 215 569 286 l 569 286 l 569 399 l 397 399 l 397 549 l 744 549 l 744 286 q 744 194 704 127 q 664 60 592 23 q 519 -14 422 -14 z m 417 1114 l 417 1114 q 308 1114 242 1170 q 175 1226 175 1319 l 175 1319 l 310 1319 q 310 1274 339 1246 q 368 1218 417 1218 l 417 1218 q 465 1218 495 1246 q 525 1274 525 1319 l 525 1319 l 660 1319 q 660 1226 593 1170 q 526 1114 417 1114 z "},"Ǧ":{"ha":833,"x_min":100,"x_max":744,"o":"m 422 -14 l 422 -14 q 324 -14 251 23 q 179 60 140 127 q 100 194 100 286 l 100 286 l 100 728 q 100 819 140 887 q 179 954 251 991 q 324 1028 422 1028 l 422 1028 q 519 1028 592 991 q 664 954 704 887 q 744 819 744 728 l 744 728 l 569 728 q 569 799 531 837 q 493 875 422 875 l 422 875 q 351 875 313 838 q 274 800 274 729 l 274 729 l 274 286 q 274 215 313 176 q 351 138 422 138 l 422 138 q 493 138 531 176 q 569 215 569 286 l 569 286 l 569 399 l 397 399 l 397 549 l 744 549 l 744 286 q 744 194 704 127 q 664 60 592 23 q 519 -14 422 -14 z m 497 1125 l 336 1125 l 146 1319 l 313 1319 l 418 1218 l 519 1319 l 688 1319 l 497 1125 z "},"Ĝ":{"ha":833,"x_min":100,"x_max":744,"o":"m 422 -14 l 422 -14 q 324 -14 251 23 q 179 60 140 127 q 100 194 100 286 l 100 286 l 100 728 q 100 819 140 887 q 179 954 251 991 q 324 1028 422 1028 l 422 1028 q 519 1028 592 991 q 664 954 704 887 q 744 819 744 728 l 744 728 l 569 728 q 569 799 531 837 q 493 875 422 875 l 422 875 q 351 875 313 838 q 274 800 274 729 l 274 729 l 274 286 q 274 215 313 176 q 351 138 422 138 l 422 138 q 493 138 531 176 q 569 215 569 286 l 569 286 l 569 399 l 397 399 l 397 549 l 744 549 l 744 286 q 744 194 704 127 q 664 60 592 23 q 519 -14 422 -14 z m 314 1125 l 146 1125 l 336 1319 l 497 1319 l 688 1125 l 521 1125 l 415 1226 l 314 1125 z "},"Ģ":{"ha":833,"x_min":100,"x_max":744,"o":"m 422 -14 l 422 -14 q 324 -14 251 23 q 179 60 140 127 q 100 194 100 286 l 100 286 l 100 728 q 100 819 140 887 q 179 954 251 991 q 324 1028 422 1028 l 422 1028 q 519 1028 592 991 q 664 954 704 887 q 744 819 744 728 l 744 728 l 569 728 q 569 799 531 837 q 493 875 422 875 l 422 875 q 351 875 313 838 q 274 800 274 729 l 274 729 l 274 286 q 274 215 313 176 q 351 138 422 138 l 422 138 q 493 138 531 176 q 569 215 569 286 l 569 286 l 569 399 l 397 399 l 397 549 l 744 549 l 744 286 q 744 194 704 127 q 664 60 592 23 q 519 -14 422 -14 z m 418 -333 l 257 -333 l 389 -132 l 572 -132 l 418 -333 z "},"Ġ":{"ha":833,"x_min":100,"x_max":744,"o":"m 422 -14 l 422 -14 q 324 -14 251 23 q 179 60 140 127 q 100 194 100 286 l 100 286 l 100 728 q 100 819 140 887 q 179 954 251 991 q 324 1028 422 1028 l 422 1028 q 519 1028 592 991 q 664 954 704 887 q 744 819 744 728 l 744 728 l 569 728 q 569 799 531 837 q 493 875 422 875 l 422 875 q 351 875 313 838 q 274 800 274 729 l 274 729 l 274 286 q 274 215 313 176 q 351 138 422 138 l 422 138 q 493 138 531 176 q 569 215 569 286 l 569 286 l 569 399 l 397 399 l 397 549 l 744 549 l 744 286 q 744 194 704 127 q 664 60 592 23 q 519 -14 422 -14 z m 417 1122 l 417 1122 q 364 1122 333 1149 q 303 1176 303 1222 l 303 1222 q 303 1268 333 1295 q 364 1322 417 1322 l 417 1322 q 469 1322 500 1295 q 531 1268 531 1222 l 531 1222 q 531 1176 500 1149 q 469 1122 417 1122 z "},"H":{"ha":833,"x_min":107,"x_max":726,"o":"m 281 0 l 107 0 l 107 1014 l 281 1014 l 281 603 l 553 603 l 553 1014 l 726 1014 l 726 0 l 553 0 l 553 446 l 281 446 l 281 0 z "},"Ħ":{"ha":833,"x_min":14,"x_max":819,"o":"m 281 0 l 107 0 l 107 729 l 14 729 l 14 850 l 107 850 l 107 1014 l 281 1014 l 281 850 l 553 850 l 553 1014 l 726 1014 l 726 850 l 819 850 l 819 729 l 726 729 l 726 0 l 553 0 l 553 446 l 281 446 l 281 0 z m 281 729 l 281 603 l 553 603 l 553 729 l 281 729 z "},"Ĥ":{"ha":833,"x_min":107,"x_max":726,"o":"m 281 0 l 107 0 l 107 1014 l 281 1014 l 281 603 l 553 603 l 553 1014 l 726 1014 l 726 0 l 553 0 l 553 446 l 281 446 l 281 0 z m 314 1125 l 146 1125 l 336 1319 l 497 1319 l 688 1125 l 521 1125 l 415 1226 l 314 1125 z "},"I":{"ha":833,"x_min":125,"x_max":708,"o":"m 708 0 l 125 0 l 125 157 l 329 157 l 329 857 l 125 857 l 125 1014 l 708 1014 l 708 857 l 504 857 l 504 157 l 708 157 l 708 0 z "},"Ĳ":{"ha":833,"x_min":22,"x_max":786,"o":"m 429 340 l 22 340 l 22 471 l 139 471 l 139 883 l 22 883 l 22 1014 l 429 1014 l 429 883 l 313 883 l 313 471 l 429 471 l 429 340 z m 460 -14 l 460 -14 q 315 -14 229 59 q 143 132 139 258 l 139 258 l 313 258 q 317 203 356 170 q 396 138 460 138 l 460 138 q 531 138 572 181 q 613 225 613 299 l 613 299 l 613 1014 l 786 1014 l 786 299 q 786 154 698 70 q 610 -14 460 -14 z "},"Í":{"ha":833,"x_min":125,"x_max":708,"o":"m 708 0 l 125 0 l 125 157 l 329 157 l 329 857 l 125 857 l 125 1014 l 708 1014 l 708 857 l 504 857 l 504 157 l 708 157 l 708 0 z m 486 1125 l 311 1125 l 458 1319 l 644 1319 l 486 1125 z "},"Ĭ":{"ha":833,"x_min":125,"x_max":708,"o":"m 708 0 l 125 0 l 125 157 l 329 157 l 329 857 l 125 857 l 125 1014 l 708 1014 l 708 857 l 504 857 l 504 157 l 708 157 l 708 0 z m 417 1114 l 417 1114 q 308 1114 242 1170 q 175 1226 175 1319 l 175 1319 l 310 1319 q 310 1274 339 1246 q 368 1218 417 1218 l 417 1218 q 465 1218 495 1246 q 525 1274 525 1319 l 525 1319 l 660 1319 q 660 1226 593 1170 q 526 1114 417 1114 z "},"Ǐ":{"ha":833,"x_min":125,"x_max":708,"o":"m 708 0 l 125 0 l 125 157 l 329 157 l 329 857 l 125 857 l 125 1014 l 708 1014 l 708 857 l 504 857 l 504 157 l 708 157 l 708 0 z m 497 1125 l 336 1125 l 146 1319 l 313 1319 l 418 1218 l 519 1319 l 688 1319 l 497 1125 z "},"Î":{"ha":833,"x_min":125,"x_max":708,"o":"m 708 0 l 125 0 l 125 157 l 329 157 l 329 857 l 125 857 l 125 1014 l 708 1014 l 708 857 l 504 857 l 504 157 l 708 157 l 708 0 z m 314 1125 l 146 1125 l 336 1319 l 497 1319 l 688 1125 l 521 1125 l 415 1226 l 314 1125 z "},"Ï":{"ha":833,"x_min":125,"x_max":708,"o":"m 708 0 l 125 0 l 125 157 l 329 157 l 329 857 l 125 857 l 125 1014 l 708 1014 l 708 857 l 504 857 l 504 157 l 708 157 l 708 0 z m 579 1122 l 579 1122 q 533 1122 506 1149 q 478 1176 478 1222 l 478 1222 q 478 1269 506 1297 q 533 1324 579 1324 l 579 1324 q 626 1324 654 1297 q 682 1269 682 1222 l 682 1222 q 682 1176 654 1149 q 626 1122 579 1122 z m 254 1122 l 254 1122 q 207 1122 179 1149 q 151 1176 151 1222 l 151 1222 q 151 1269 179 1297 q 207 1324 254 1324 l 254 1324 q 300 1324 328 1297 q 356 1269 356 1222 l 356 1222 q 356 1176 328 1149 q 300 1122 254 1122 z "},"İ":{"ha":833,"x_min":125,"x_max":708,"o":"m 708 0 l 125 0 l 125 157 l 329 157 l 329 857 l 125 857 l 125 1014 l 708 1014 l 708 857 l 504 857 l 504 157 l 708 157 l 708 0 z m 417 1122 l 417 1122 q 364 1122 333 1149 q 303 1176 303 1222 l 303 1222 q 303 1268 333 1295 q 364 1322 417 1322 l 417 1322 q 469 1322 500 1295 q 531 1268 531 1222 l 531 1222 q 531 1176 500 1149 q 469 1122 417 1122 z "},"Ị":{"ha":833,"x_min":125,"x_max":708,"o":"m 708 0 l 125 0 l 125 157 l 329 157 l 329 857 l 125 857 l 125 1014 l 708 1014 l 708 857 l 504 857 l 504 157 l 708 157 l 708 0 z m 417 -312 l 417 -312 q 364 -312 333 -285 q 303 -258 303 -212 l 303 -212 q 303 -165 333 -138 q 364 -111 417 -111 l 417 -111 q 469 -111 500 -138 q 531 -165 531 -212 l 531 -212 q 531 -258 500 -285 q 469 -312 417 -312 z "},"Ì":{"ha":833,"x_min":125,"x_max":708,"o":"m 708 0 l 125 0 l 125 157 l 329 157 l 329 857 l 125 857 l 125 1014 l 708 1014 l 708 857 l 504 857 l 504 157 l 708 157 l 708 0 z m 525 1125 l 346 1125 l 185 1319 l 376 1319 l 525 1125 z "},"Ỉ":{"ha":833,"x_min":125,"x_max":708,"o":"m 708 0 l 125 0 l 125 157 l 329 157 l 329 857 l 125 857 l 125 1014 l 708 1014 l 708 857 l 504 857 l 504 157 l 708 157 l 708 0 z m 485 1108 l 346 1108 l 413 1192 q 432 1217 432 1233 l 432 1233 q 432 1258 392 1258 l 392 1258 l 283 1258 l 283 1365 l 415 1365 q 481 1365 521 1334 q 561 1303 561 1251 l 561 1251 q 561 1208 533 1172 l 533 1172 l 485 1108 z "},"Ī":{"ha":833,"x_min":125,"x_max":708,"o":"m 708 0 l 125 0 l 125 157 l 329 157 l 329 857 l 125 857 l 125 1014 l 708 1014 l 708 857 l 504 857 l 504 157 l 708 157 l 708 0 z m 656 1150 l 178 1150 l 178 1283 l 656 1283 l 656 1150 z "},"Į":{"ha":833,"x_min":125,"x_max":708,"o":"m 354 0 l 125 0 l 125 157 l 329 157 l 329 857 l 125 857 l 125 1014 l 708 1014 l 708 857 l 504 857 l 504 157 l 708 157 l 708 0 l 476 0 l 461 -14 q 390 -75 390 -121 l 390 -121 q 390 -146 409 -163 q 428 -181 460 -181 l 460 -181 l 550 -181 l 550 -300 l 418 -300 q 336 -300 288 -260 q 240 -219 240 -157 l 240 -157 q 240 -71 354 0 l 354 0 z "},"Ĩ":{"ha":833,"x_min":125,"x_max":708,"o":"m 708 0 l 125 0 l 125 157 l 329 157 l 329 857 l 125 857 l 125 1014 l 708 1014 l 708 857 l 504 857 l 504 157 l 708 157 l 708 0 z m 514 1119 l 514 1119 q 471 1119 444 1133 q 417 1147 399 1165 q 381 1182 365 1195 q 349 1208 326 1208 l 326 1208 q 285 1208 285 1163 l 285 1163 l 285 1126 l 178 1126 l 178 1172 q 178 1240 217 1283 q 256 1325 319 1325 l 319 1325 q 363 1325 390 1311 q 417 1297 435 1280 q 453 1263 469 1249 q 485 1236 507 1236 l 507 1236 q 549 1236 549 1279 l 549 1279 l 549 1318 l 656 1318 l 656 1272 q 656 1204 617 1162 q 578 1119 514 1119 z "},"J":{"ha":833,"x_min":42,"x_max":708,"o":"m 375 -14 l 375 -14 q 221 -14 131 71 q 42 156 42 300 l 42 300 l 215 300 q 215 225 258 181 q 300 138 375 138 l 375 138 q 449 138 492 181 q 535 224 535 299 l 535 299 l 535 1014 l 708 1014 l 708 299 q 708 154 619 70 q 529 -14 375 -14 z "},"Ĵ":{"ha":833,"x_min":42,"x_max":896,"o":"m 375 -14 l 375 -14 q 221 -14 131 71 q 42 156 42 300 l 42 300 l 215 300 q 215 225 258 181 q 300 138 375 138 l 375 138 q 449 138 492 181 q 535 224 535 299 l 535 299 l 535 1014 l 708 1014 l 708 299 q 708 154 619 70 q 529 -14 375 -14 z m 522 1125 l 354 1125 l 544 1319 l 706 1319 l 896 1125 l 729 1125 l 624 1226 l 522 1125 z "},"K":{"ha":833,"x_min":106,"x_max":790,"o":"m 279 0 l 106 0 l 106 1014 l 279 1014 l 279 600 l 399 600 l 592 1014 l 779 1014 l 551 531 l 790 0 l 597 0 l 397 449 l 279 449 l 279 0 z "},"Ķ":{"ha":833,"x_min":106,"x_max":790,"o":"m 279 0 l 106 0 l 106 1014 l 279 1014 l 279 600 l 399 600 l 592 1014 l 779 1014 l 551 531 l 790 0 l 597 0 l 397 449 l 279 449 l 279 0 z m 413 -333 l 251 -333 l 383 -132 l 567 -132 l 413 -333 z "},"L":{"ha":833,"x_min":168,"x_max":772,"o":"m 772 0 l 168 0 l 168 1014 l 342 1014 l 342 157 l 772 157 l 772 0 z "},"Ĺ":{"ha":833,"x_min":150,"x_max":772,"o":"m 772 0 l 168 0 l 168 1014 l 342 1014 l 342 157 l 772 157 l 772 0 z m 325 1125 l 150 1125 l 297 1319 l 483 1319 l 325 1125 z "},"Ľ":{"ha":833,"x_min":168,"x_max":772,"o":"m 772 0 l 168 0 l 168 1014 l 342 1014 l 342 157 l 772 157 l 772 0 z m 614 764 l 476 764 l 496 1014 l 644 1014 l 614 764 z "},"Ļ":{"ha":833,"x_min":168,"x_max":772,"o":"m 772 0 l 168 0 l 168 1014 l 342 1014 l 342 157 l 772 157 l 772 0 z m 468 -333 l 307 -333 l 439 -132 l 622 -132 l 468 -333 z "},"Ŀ":{"ha":833,"x_min":168,"x_max":796,"o":"m 772 0 l 168 0 l 168 1014 l 342 1014 l 342 157 l 772 157 l 772 0 z m 667 368 l 667 368 q 608 368 573 403 q 538 439 538 496 l 538 496 q 538 553 573 589 q 608 625 667 625 l 667 625 q 725 625 760 589 q 796 553 796 496 l 796 496 q 796 439 760 403 q 725 368 667 368 z "},"Ł":{"ha":833,"x_min":28,"x_max":781,"o":"m 781 0 l 176 0 l 176 404 l 28 319 l 28 479 l 176 564 l 176 1014 l 350 1014 l 350 664 l 550 778 l 550 618 l 350 504 l 350 157 l 781 157 l 781 0 z "},"M":{"ha":833,"x_min":75,"x_max":758,"o":"m 238 0 l 75 0 l 75 1014 l 301 1014 l 415 578 l 531 1014 l 758 1014 l 758 0 l 596 0 l 596 426 q 596 514 601 608 q 606 701 613 790 q 619 878 628 950 l 628 950 l 485 440 l 342 440 l 204 938 q 217 842 227 709 q 238 576 238 426 l 238 426 l 238 0 z "},"N":{"ha":833,"x_min":100,"x_max":733,"o":"m 258 0 l 100 0 l 100 1014 l 313 1014 l 594 194 q 590 239 586 299 q 582 360 578 422 q 575 485 575 533 l 575 533 l 575 1014 l 733 1014 l 733 0 l 521 0 l 242 819 q 244 779 249 722 q 253 665 256 606 q 258 546 258 496 l 258 496 l 258 0 z "},"Ń":{"ha":833,"x_min":100,"x_max":733,"o":"m 258 0 l 100 0 l 100 1014 l 313 1014 l 594 194 q 590 239 586 299 q 582 360 578 422 q 575 485 575 533 l 575 533 l 575 1014 l 733 1014 l 733 0 l 521 0 l 242 819 q 244 779 249 722 q 253 665 256 606 q 258 546 258 496 l 258 496 l 258 0 z m 486 1125 l 311 1125 l 458 1319 l 644 1319 l 486 1125 z "},"Ň":{"ha":833,"x_min":100,"x_max":733,"o":"m 258 0 l 100 0 l 100 1014 l 313 1014 l 594 194 q 590 239 586 299 q 582 360 578 422 q 575 485 575 533 l 575 533 l 575 1014 l 733 1014 l 733 0 l 521 0 l 242 819 q 244 779 249 722 q 253 665 256 606 q 258 546 258 496 l 258 496 l 258 0 z m 497 1125 l 336 1125 l 146 1319 l 313 1319 l 418 1218 l 519 1319 l 688 1319 l 497 1125 z "},"Ņ":{"ha":833,"x_min":100,"x_max":733,"o":"m 258 0 l 100 0 l 100 1014 l 313 1014 l 594 194 q 590 239 586 299 q 582 360 578 422 q 575 485 575 533 l 575 533 l 575 1014 l 733 1014 l 733 0 l 521 0 l 242 819 q 244 779 249 722 q 253 665 256 606 q 258 546 258 496 l 258 496 l 258 0 z m 413 -333 l 251 -333 l 383 -132 l 567 -132 l 413 -333 z "},"Ñ":{"ha":833,"x_min":100,"x_max":733,"o":"m 258 0 l 100 0 l 100 1014 l 313 1014 l 594 194 q 590 239 586 299 q 582 360 578 422 q 575 485 575 533 l 575 533 l 575 1014 l 733 1014 l 733 0 l 521 0 l 242 819 q 244 779 249 722 q 253 665 256 606 q 258 546 258 496 l 258 496 l 258 0 z m 514 1119 l 514 1119 q 471 1119 444 1133 q 417 1147 399 1165 q 381 1182 365 1195 q 349 1208 326 1208 l 326 1208 q 285 1208 285 1163 l 285 1163 l 285 1126 l 178 1126 l 178 1172 q 178 1240 217 1283 q 256 1325 319 1325 l 319 1325 q 363 1325 390 1311 q 417 1297 435 1280 q 453 1263 469 1249 q 485 1236 507 1236 l 507 1236 q 549 1236 549 1279 l 549 1279 l 549 1318 l 656 1318 l 656 1272 q 656 1204 617 1162 q 578 1119 514 1119 z "},"Ŋ":{"ha":833,"x_min":100,"x_max":733,"o":"m 419 -250 l 342 -250 l 342 -85 l 428 -85 q 489 -85 524 -51 q 558 -18 558 42 l 558 42 l 242 819 q 244 779 249 722 q 253 665 256 606 q 258 546 258 496 l 258 496 l 258 0 l 100 0 l 100 1014 l 313 1014 l 594 317 q 590 361 586 422 q 582 482 578 544 q 575 607 575 656 l 575 656 l 575 1014 l 733 1014 l 733 29 q 733 -54 694 -117 q 654 -179 583 -215 q 513 -250 419 -250 l 419 -250 z "},"O":{"ha":833,"x_min":100,"x_max":733,"o":"m 417 -14 l 417 -14 q 271 -14 185 69 q 100 153 100 300 l 100 300 l 100 714 q 100 861 185 944 q 271 1028 417 1028 l 417 1028 q 563 1028 648 944 q 733 861 733 715 l 733 715 l 733 300 q 733 153 648 69 q 563 -14 417 -14 z m 417 139 l 417 139 q 488 139 524 177 q 560 215 560 286 l 560 286 l 560 728 q 560 799 524 837 q 488 875 417 875 l 417 875 q 346 875 310 837 q 274 799 274 728 l 274 728 l 274 286 q 274 215 310 177 q 346 139 417 139 z "},"Ó":{"ha":833,"x_min":100,"x_max":733,"o":"m 417 -14 l 417 -14 q 271 -14 185 69 q 100 153 100 300 l 100 300 l 100 714 q 100 861 185 944 q 271 1028 417 1028 l 417 1028 q 563 1028 648 944 q 733 861 733 715 l 733 715 l 733 300 q 733 153 648 69 q 563 -14 417 -14 z m 417 139 l 417 139 q 488 139 524 177 q 560 215 560 286 l 560 286 l 560 728 q 560 799 524 837 q 488 875 417 875 l 417 875 q 346 875 310 837 q 274 799 274 728 l 274 728 l 274 286 q 274 215 310 177 q 346 139 417 139 z m 486 1125 l 311 1125 l 458 1319 l 644 1319 l 486 1125 z "},"Ŏ":{"ha":833,"x_min":100,"x_max":733,"o":"m 417 -14 l 417 -14 q 271 -14 185 69 q 100 153 100 300 l 100 300 l 100 714 q 100 861 185 944 q 271 1028 417 1028 l 417 1028 q 563 1028 648 944 q 733 861 733 715 l 733 715 l 733 300 q 733 153 648 69 q 563 -14 417 -14 z m 417 139 l 417 139 q 488 139 524 177 q 560 215 560 286 l 560 286 l 560 728 q 560 799 524 837 q 488 875 417 875 l 417 875 q 346 875 310 837 q 274 799 274 728 l 274 728 l 274 286 q 274 215 310 177 q 346 139 417 139 z m 417 1114 l 417 1114 q 308 1114 242 1170 q 175 1226 175 1319 l 175 1319 l 310 1319 q 310 1274 339 1246 q 368 1218 417 1218 l 417 1218 q 465 1218 495 1246 q 525 1274 525 1319 l 525 1319 l 660 1319 q 660 1226 593 1170 q 526 1114 417 1114 z "},"Ǒ":{"ha":833,"x_min":100,"x_max":733,"o":"m 417 -14 l 417 -14 q 271 -14 185 69 q 100 153 100 300 l 100 300 l 100 714 q 100 861 185 944 q 271 1028 417 1028 l 417 1028 q 563 1028 648 944 q 733 861 733 715 l 733 715 l 733 300 q 733 153 648 69 q 563 -14 417 -14 z m 417 139 l 417 139 q 488 139 524 177 q 560 215 560 286 l 560 286 l 560 728 q 560 799 524 837 q 488 875 417 875 l 417 875 q 346 875 310 837 q 274 799 274 728 l 274 728 l 274 286 q 274 215 310 177 q 346 139 417 139 z m 497 1125 l 336 1125 l 146 1319 l 313 1319 l 418 1218 l 519 1319 l 688 1319 l 497 1125 z "},"Ô":{"ha":833,"x_min":100,"x_max":733,"o":"m 417 -14 l 417 -14 q 271 -14 185 69 q 100 153 100 300 l 100 300 l 100 714 q 100 861 185 944 q 271 1028 417 1028 l 417 1028 q 563 1028 648 944 q 733 861 733 715 l 733 715 l 733 300 q 733 153 648 69 q 563 -14 417 -14 z m 417 139 l 417 139 q 488 139 524 177 q 560 215 560 286 l 560 286 l 560 728 q 560 799 524 837 q 488 875 417 875 l 417 875 q 346 875 310 837 q 274 799 274 728 l 274 728 l 274 286 q 274 215 310 177 q 346 139 417 139 z m 314 1125 l 146 1125 l 336 1319 l 497 1319 l 688 1125 l 521 1125 l 415 1226 l 314 1125 z "},"Ố":{"ha":833,"x_min":100,"x_max":899,"o":"m 417 -14 l 417 -14 q 271 -14 185 69 q 100 153 100 300 l 100 300 l 100 714 q 100 861 185 944 q 271 1028 417 1028 l 417 1028 q 563 1028 648 944 q 733 861 733 715 l 733 715 l 733 300 q 733 153 648 69 q 563 -14 417 -14 z m 417 139 l 417 139 q 488 139 524 177 q 560 215 560 286 l 560 286 l 560 728 q 560 799 524 837 q 488 875 417 875 l 417 875 q 346 875 310 837 q 274 799 274 728 l 274 728 l 274 286 q 274 215 310 177 q 346 139 417 139 z m 742 1254 l 576 1254 l 722 1417 l 899 1417 l 742 1254 z m 314 1083 l 146 1083 l 336 1278 l 497 1278 l 688 1083 l 519 1083 l 417 1185 l 314 1083 z "},"Ộ":{"ha":833,"x_min":100,"x_max":733,"o":"m 417 -14 l 417 -14 q 271 -14 185 69 q 100 153 100 300 l 100 300 l 100 714 q 100 861 185 944 q 271 1028 417 1028 l 417 1028 q 563 1028 648 944 q 733 861 733 715 l 733 715 l 733 300 q 733 153 648 69 q 563 -14 417 -14 z m 417 139 l 417 139 q 488 139 524 177 q 560 215 560 286 l 560 286 l 560 728 q 560 799 524 837 q 488 875 417 875 l 417 875 q 346 875 310 837 q 274 799 274 728 l 274 728 l 274 286 q 274 215 310 177 q 346 139 417 139 z m 417 -312 l 417 -312 q 364 -312 333 -285 q 303 -258 303 -212 l 303 -212 q 303 -165 333 -138 q 364 -111 417 -111 l 417 -111 q 469 -111 500 -138 q 531 -165 531 -212 l 531 -212 q 531 -258 500 -285 q 469 -312 417 -312 z m 314 1125 l 146 1125 l 336 1319 l 497 1319 l 688 1125 l 521 1125 l 415 1226 l 314 1125 z "},"Ồ":{"ha":833,"x_min":100,"x_max":790,"o":"m 417 -14 l 417 -14 q 271 -14 185 69 q 100 153 100 300 l 100 300 l 100 714 q 100 861 185 944 q 271 1028 417 1028 l 417 1028 q 563 1028 648 944 q 733 861 733 715 l 733 715 l 733 300 q 733 153 648 69 q 563 -14 417 -14 z m 417 139 l 417 139 q 488 139 524 177 q 560 215 560 286 l 560 286 l 560 728 q 560 799 524 837 q 488 875 417 875 l 417 875 q 346 875 310 837 q 274 799 274 728 l 274 728 l 274 286 q 274 215 310 177 q 346 139 417 139 z m 790 1254 l 626 1254 l 464 1417 l 639 1417 l 790 1254 z m 314 1083 l 146 1083 l 336 1278 l 497 1278 l 688 1083 l 519 1083 l 417 1185 l 314 1083 z "},"Ổ":{"ha":833,"x_min":100,"x_max":797,"o":"m 417 -14 l 417 -14 q 271 -14 185 69 q 100 153 100 300 l 100 300 l 100 714 q 100 861 185 944 q 271 1028 417 1028 l 417 1028 q 563 1028 648 944 q 733 861 733 715 l 733 715 l 733 300 q 733 153 648 69 q 563 -14 417 -14 z m 417 139 l 417 139 q 488 139 524 177 q 560 215 560 286 l 560 286 l 560 728 q 560 799 524 837 q 488 875 417 875 l 417 875 q 346 875 310 837 q 274 799 274 728 l 274 728 l 274 286 q 274 215 310 177 q 346 139 417 139 z m 732 1214 l 599 1214 l 653 1269 q 668 1283 668 1299 l 668 1299 q 668 1321 639 1321 l 639 1321 l 544 1321 l 544 1417 l 671 1417 q 728 1417 763 1390 q 797 1363 797 1314 l 797 1314 q 797 1272 768 1247 l 768 1247 l 732 1214 z m 314 1083 l 146 1083 l 336 1278 l 497 1278 l 688 1083 l 519 1083 l 417 1185 l 314 1083 z "},"Ỗ":{"ha":833,"x_min":100,"x_max":733,"o":"m 417 -14 l 417 -14 q 271 -14 185 69 q 100 153 100 300 l 100 300 l 100 714 q 100 861 185 944 q 271 1028 417 1028 l 417 1028 q 563 1028 648 944 q 733 861 733 715 l 733 715 l 733 300 q 733 153 648 69 q 563 -14 417 -14 z m 417 139 l 417 139 q 488 139 524 177 q 560 215 560 286 l 560 286 l 560 728 q 560 799 524 837 q 488 875 417 875 l 417 875 q 346 875 310 837 q 274 799 274 728 l 274 728 l 274 286 q 274 215 310 177 q 346 139 417 139 z m 526 1269 l 526 1269 q 471 1269 436 1283 q 401 1297 375 1311 q 349 1325 319 1325 l 319 1325 q 282 1325 282 1288 l 282 1288 l 282 1279 l 175 1279 l 175 1288 q 175 1347 211 1382 q 247 1417 308 1417 l 308 1417 q 364 1417 398 1403 q 432 1389 458 1375 q 485 1361 514 1361 l 514 1361 q 551 1361 551 1399 l 551 1399 l 551 1407 l 658 1407 l 658 1399 q 658 1339 622 1304 q 586 1269 526 1269 z m 314 1083 l 146 1083 l 290 1231 l 543 1231 l 688 1083 l 518 1083 l 417 1186 l 314 1083 z "},"Ö":{"ha":833,"x_min":100,"x_max":733,"o":"m 417 -14 l 417 -14 q 271 -14 185 69 q 100 153 100 300 l 100 300 l 100 714 q 100 861 185 944 q 271 1028 417 1028 l 417 1028 q 563 1028 648 944 q 733 861 733 715 l 733 715 l 733 300 q 733 153 648 69 q 563 -14 417 -14 z m 417 139 l 417 139 q 488 139 524 177 q 560 215 560 286 l 560 286 l 560 728 q 560 799 524 837 q 488 875 417 875 l 417 875 q 346 875 310 837 q 274 799 274 728 l 274 728 l 274 286 q 274 215 310 177 q 346 139 417 139 z m 579 1122 l 579 1122 q 533 1122 506 1149 q 478 1176 478 1222 l 478 1222 q 478 1269 506 1297 q 533 1324 579 1324 l 579 1324 q 626 1324 654 1297 q 682 1269 682 1222 l 682 1222 q 682 1176 654 1149 q 626 1122 579 1122 z m 254 1122 l 254 1122 q 207 1122 179 1149 q 151 1176 151 1222 l 151 1222 q 151 1269 179 1297 q 207 1324 254 1324 l 254 1324 q 300 1324 328 1297 q 356 1269 356 1222 l 356 1222 q 356 1176 328 1149 q 300 1122 254 1122 z "},"Ọ":{"ha":833,"x_min":100,"x_max":733,"o":"m 417 -14 l 417 -14 q 271 -14 185 69 q 100 153 100 300 l 100 300 l 100 714 q 100 861 185 944 q 271 1028 417 1028 l 417 1028 q 563 1028 648 944 q 733 861 733 715 l 733 715 l 733 300 q 733 153 648 69 q 563 -14 417 -14 z m 417 139 l 417 139 q 488 139 524 177 q 560 215 560 286 l 560 286 l 560 728 q 560 799 524 837 q 488 875 417 875 l 417 875 q 346 875 310 837 q 274 799 274 728 l 274 728 l 274 286 q 274 215 310 177 q 346 139 417 139 z m 417 -312 l 417 -312 q 364 -312 333 -285 q 303 -258 303 -212 l 303 -212 q 303 -165 333 -138 q 364 -111 417 -111 l 417 -111 q 469 -111 500 -138 q 531 -165 531 -212 l 531 -212 q 531 -258 500 -285 q 469 -312 417 -312 z "},"Ò":{"ha":833,"x_min":100,"x_max":733,"o":"m 417 -14 l 417 -14 q 271 -14 185 69 q 100 153 100 300 l 100 300 l 100 714 q 100 861 185 944 q 271 1028 417 1028 l 417 1028 q 563 1028 648 944 q 733 861 733 715 l 733 715 l 733 300 q 733 153 648 69 q 563 -14 417 -14 z m 417 139 l 417 139 q 488 139 524 177 q 560 215 560 286 l 560 286 l 560 728 q 560 799 524 837 q 488 875 417 875 l 417 875 q 346 875 310 837 q 274 799 274 728 l 274 728 l 274 286 q 274 215 310 177 q 346 139 417 139 z m 525 1125 l 346 1125 l 185 1319 l 376 1319 l 525 1125 z "},"Ỏ":{"ha":833,"x_min":100,"x_max":733,"o":"m 417 -14 l 417 -14 q 271 -14 185 69 q 100 153 100 300 l 100 300 l 100 714 q 100 861 185 944 q 271 1028 417 1028 l 417 1028 q 563 1028 648 944 q 733 861 733 715 l 733 715 l 733 300 q 733 153 648 69 q 563 -14 417 -14 z m 417 139 l 417 139 q 488 139 524 177 q 560 215 560 286 l 560 286 l 560 728 q 560 799 524 837 q 488 875 417 875 l 417 875 q 346 875 310 837 q 274 799 274 728 l 274 728 l 274 286 q 274 215 310 177 q 346 139 417 139 z m 485 1108 l 346 1108 l 413 1192 q 432 1217 432 1233 l 432 1233 q 432 1258 392 1258 l 392 1258 l 283 1258 l 283 1365 l 415 1365 q 481 1365 521 1334 q 561 1303 561 1251 l 561 1251 q 561 1208 533 1172 l 533 1172 l 485 1108 z "},"Ơ":{"ha":833,"x_min":100,"x_max":782,"o":"m 417 -14 l 417 -14 q 271 -14 185 69 q 100 153 100 300 l 100 300 l 100 714 q 100 861 185 944 q 271 1028 417 1028 l 417 1028 q 532 1028 611 975 l 611 975 q 640 985 640 1021 l 640 1021 l 640 1125 l 782 1125 l 782 1018 q 782 969 760 933 q 738 896 699 875 l 699 875 q 733 807 733 715 l 733 715 l 733 300 q 733 153 648 69 q 563 -14 417 -14 z m 417 139 l 417 139 q 488 139 524 177 q 560 215 560 286 l 560 286 l 560 728 q 560 799 524 837 q 488 875 417 875 l 417 875 q 346 875 310 837 q 274 799 274 728 l 274 728 l 274 286 q 274 215 310 177 q 346 139 417 139 z "},"Ớ":{"ha":833,"x_min":100,"x_max":782,"o":"m 417 -14 l 417 -14 q 271 -14 185 69 q 100 153 100 300 l 100 300 l 100 714 q 100 861 185 944 q 271 1028 417 1028 l 417 1028 q 532 1028 611 975 l 611 975 q 640 985 640 1021 l 640 1021 l 640 1125 l 782 1125 l 782 1018 q 782 969 760 933 q 738 896 699 875 l 699 875 q 733 807 733 715 l 733 715 l 733 300 q 733 153 648 69 q 563 -14 417 -14 z m 417 139 l 417 139 q 488 139 524 177 q 560 215 560 286 l 560 286 l 560 728 q 560 799 524 837 q 488 875 417 875 l 417 875 q 346 875 310 837 q 274 799 274 728 l 274 728 l 274 286 q 274 215 310 177 q 346 139 417 139 z m 472 1125 l 297 1125 l 444 1319 l 631 1319 l 472 1125 z "},"Ợ":{"ha":833,"x_min":100,"x_max":782,"o":"m 417 -14 l 417 -14 q 271 -14 185 69 q 100 153 100 300 l 100 300 l 100 714 q 100 861 185 944 q 271 1028 417 1028 l 417 1028 q 532 1028 611 975 l 611 975 q 640 985 640 1021 l 640 1021 l 640 1125 l 782 1125 l 782 1018 q 782 969 760 933 q 738 896 699 875 l 699 875 q 733 807 733 715 l 733 715 l 733 300 q 733 153 648 69 q 563 -14 417 -14 z m 417 139 l 417 139 q 488 139 524 177 q 560 215 560 286 l 560 286 l 560 728 q 560 799 524 837 q 488 875 417 875 l 417 875 q 346 875 310 837 q 274 799 274 728 l 274 728 l 274 286 q 274 215 310 177 q 346 139 417 139 z m 417 -312 l 417 -312 q 364 -312 333 -285 q 303 -258 303 -212 l 303 -212 q 303 -165 333 -138 q 364 -111 417 -111 l 417 -111 q 469 -111 500 -138 q 531 -165 531 -212 l 531 -212 q 531 -258 500 -285 q 469 -312 417 -312 z "},"Ờ":{"ha":833,"x_min":100,"x_max":782,"o":"m 417 -14 l 417 -14 q 271 -14 185 69 q 100 153 100 300 l 100 300 l 100 714 q 100 861 185 944 q 271 1028 417 1028 l 417 1028 q 532 1028 611 975 l 611 975 q 640 985 640 1021 l 640 1021 l 640 1125 l 782 1125 l 782 1018 q 782 969 760 933 q 738 896 699 875 l 699 875 q 733 807 733 715 l 733 715 l 733 300 q 733 153 648 69 q 563 -14 417 -14 z m 417 139 l 417 139 q 488 139 524 177 q 560 215 560 286 l 560 286 l 560 728 q 560 799 524 837 q 488 875 417 875 l 417 875 q 346 875 310 837 q 274 799 274 728 l 274 728 l 274 286 q 274 215 310 177 q 346 139 417 139 z m 511 1125 l 332 1125 l 171 1319 l 363 1319 l 511 1125 z "},"Ở":{"ha":833,"x_min":100,"x_max":782,"o":"m 417 -14 l 417 -14 q 271 -14 185 69 q 100 153 100 300 l 100 300 l 100 714 q 100 861 185 944 q 271 1028 417 1028 l 417 1028 q 532 1028 611 975 l 611 975 q 640 985 640 1021 l 640 1021 l 640 1125 l 782 1125 l 782 1018 q 782 969 760 933 q 738 896 699 875 l 699 875 q 733 807 733 715 l 733 715 l 733 300 q 733 153 648 69 q 563 -14 417 -14 z m 417 139 l 417 139 q 488 139 524 177 q 560 215 560 286 l 560 286 l 560 728 q 560 799 524 837 q 488 875 417 875 l 417 875 q 346 875 310 837 q 274 799 274 728 l 274 728 l 274 286 q 274 215 310 177 q 346 139 417 139 z m 471 1108 l 332 1108 l 399 1192 q 418 1217 418 1233 l 418 1233 q 418 1258 378 1258 l 378 1258 l 269 1258 l 269 1365 l 401 1365 q 467 1365 507 1334 q 547 1303 547 1251 l 547 1251 q 547 1208 519 1172 l 519 1172 l 471 1108 z "},"Ỡ":{"ha":833,"x_min":100,"x_max":782,"o":"m 417 -14 l 417 -14 q 271 -14 185 69 q 100 153 100 300 l 100 300 l 100 714 q 100 861 185 944 q 271 1028 417 1028 l 417 1028 q 532 1028 611 975 l 611 975 q 640 985 640 1021 l 640 1021 l 640 1125 l 782 1125 l 782 1018 q 782 969 760 933 q 738 896 699 875 l 699 875 q 733 807 733 715 l 733 715 l 733 300 q 733 153 648 69 q 563 -14 417 -14 z m 417 139 l 417 139 q 488 139 524 177 q 560 215 560 286 l 560 286 l 560 728 q 560 799 524 837 q 488 875 417 875 l 417 875 q 346 875 310 837 q 274 799 274 728 l 274 728 l 274 286 q 274 215 310 177 q 346 139 417 139 z m 500 1119 l 500 1119 q 457 1119 430 1133 q 403 1147 385 1165 q 367 1182 351 1195 q 335 1208 313 1208 l 313 1208 q 271 1208 271 1163 l 271 1163 l 271 1126 l 164 1126 l 164 1172 q 164 1240 203 1283 q 242 1325 306 1325 l 306 1325 q 349 1325 376 1311 q 403 1297 421 1280 q 439 1263 455 1249 q 471 1236 493 1236 l 493 1236 q 535 1236 535 1279 l 535 1279 l 535 1318 l 642 1318 l 642 1272 q 642 1204 603 1162 q 564 1119 500 1119 z "},"Ő":{"ha":833,"x_min":100,"x_max":768,"o":"m 417 -14 l 417 -14 q 271 -14 185 69 q 100 153 100 300 l 100 300 l 100 714 q 100 861 185 944 q 271 1028 417 1028 l 417 1028 q 563 1028 648 944 q 733 861 733 715 l 733 715 l 733 300 q 733 153 648 69 q 563 -14 417 -14 z m 417 139 l 417 139 q 488 139 524 177 q 560 215 560 286 l 560 286 l 560 728 q 560 799 524 837 q 488 875 417 875 l 417 875 q 346 875 310 837 q 274 799 274 728 l 274 728 l 274 286 q 274 215 310 177 q 346 139 417 139 z m 608 1125 l 450 1125 l 599 1319 l 768 1319 l 608 1125 z m 328 1125 l 169 1125 l 319 1319 l 488 1319 l 328 1125 z "},"Ō":{"ha":833,"x_min":100,"x_max":733,"o":"m 417 -14 l 417 -14 q 271 -14 185 69 q 100 153 100 300 l 100 300 l 100 714 q 100 861 185 944 q 271 1028 417 1028 l 417 1028 q 563 1028 648 944 q 733 861 733 715 l 733 715 l 733 300 q 733 153 648 69 q 563 -14 417 -14 z m 417 139 l 417 139 q 488 139 524 177 q 560 215 560 286 l 560 286 l 560 728 q 560 799 524 837 q 488 875 417 875 l 417 875 q 346 875 310 837 q 274 799 274 728 l 274 728 l 274 286 q 274 215 310 177 q 346 139 417 139 z m 656 1150 l 178 1150 l 178 1283 l 656 1283 l 656 1150 z "},"Ǫ":{"ha":833,"x_min":100,"x_max":733,"o":"m 639 -300 l 506 -300 q 425 -300 377 -260 q 329 -219 329 -157 l 329 -157 q 329 -124 356 -85 q 383 -46 426 -12 l 426 -12 l 417 -14 q 271 -14 185 67 q 100 149 100 286 l 100 286 l 100 728 q 100 865 185 947 q 271 1028 417 1028 l 417 1028 q 563 1028 648 947 q 733 865 733 729 l 733 729 l 733 286 q 733 201 698 135 q 663 69 600 32 l 600 32 l 544 -14 q 510 -42 494 -69 q 479 -97 479 -121 l 479 -121 q 479 -146 497 -163 q 515 -181 549 -181 l 549 -181 l 639 -181 l 639 -300 z m 417 139 l 417 139 q 488 139 524 177 q 560 215 560 286 l 560 286 l 560 728 q 560 799 524 837 q 488 875 417 875 l 417 875 q 346 875 310 837 q 274 799 274 728 l 274 728 l 274 286 q 274 215 310 177 q 346 139 417 139 z "},"Ø":{"ha":833,"x_min":32,"x_max":801,"o":"m 176 -56 l 32 -56 l 138 129 q 100 196 100 286 l 100 286 l 100 728 q 100 865 185 947 q 271 1028 417 1028 l 417 1028 q 536 1028 617 972 l 617 972 l 657 1042 l 801 1042 l 704 871 q 733 808 733 729 l 733 729 l 733 286 q 733 149 648 67 q 563 -14 417 -14 l 417 -14 q 306 -14 228 35 l 228 35 l 176 -56 z m 269 728 l 269 728 l 269 361 l 535 828 q 497 875 417 875 l 417 875 q 346 875 308 837 q 269 799 269 728 z m 417 139 l 417 139 q 488 139 526 177 q 564 215 564 286 l 564 286 l 564 625 l 308 176 q 346 139 417 139 z "},"Ǿ":{"ha":833,"x_min":32,"x_max":801,"o":"m 176 -56 l 32 -56 l 138 129 q 100 196 100 286 l 100 286 l 100 728 q 100 865 185 947 q 271 1028 417 1028 l 417 1028 q 536 1028 617 972 l 617 972 l 657 1042 l 801 1042 l 704 871 q 733 808 733 729 l 733 729 l 733 286 q 733 149 648 67 q 563 -14 417 -14 l 417 -14 q 306 -14 228 35 l 228 35 l 176 -56 z m 269 728 l 269 728 l 269 361 l 535 828 q 497 875 417 875 l 417 875 q 346 875 308 837 q 269 799 269 728 z m 417 139 l 417 139 q 488 139 526 177 q 564 215 564 286 l 564 286 l 564 625 l 308 176 q 346 139 417 139 z m 486 1125 l 311 1125 l 458 1319 l 644 1319 l 486 1125 z "},"Õ":{"ha":833,"x_min":100,"x_max":733,"o":"m 417 -14 l 417 -14 q 271 -14 185 69 q 100 153 100 300 l 100 300 l 100 714 q 100 861 185 944 q 271 1028 417 1028 l 417 1028 q 563 1028 648 944 q 733 861 733 715 l 733 715 l 733 300 q 733 153 648 69 q 563 -14 417 -14 z m 417 139 l 417 139 q 488 139 524 177 q 560 215 560 286 l 560 286 l 560 728 q 560 799 524 837 q 488 875 417 875 l 417 875 q 346 875 310 837 q 274 799 274 728 l 274 728 l 274 286 q 274 215 310 177 q 346 139 417 139 z m 514 1119 l 514 1119 q 471 1119 444 1133 q 417 1147 399 1165 q 381 1182 365 1195 q 349 1208 326 1208 l 326 1208 q 285 1208 285 1163 l 285 1163 l 285 1126 l 178 1126 l 178 1172 q 178 1240 217 1283 q 256 1325 319 1325 l 319 1325 q 363 1325 390 1311 q 417 1297 435 1280 q 453 1263 469 1249 q 485 1236 507 1236 l 507 1236 q 549 1236 549 1279 l 549 1279 l 549 1318 l 656 1318 l 656 1272 q 656 1204 617 1162 q 578 1119 514 1119 z "},"Œ":{"ha":833,"x_min":47,"x_max":803,"o":"m 254 -8 l 254 -8 q 157 -8 102 64 q 47 136 47 263 l 47 263 l 47 757 q 47 883 102 956 q 157 1028 254 1028 l 254 1028 q 304 1028 337 1008 q 369 988 387 959 q 404 931 407 903 l 407 903 l 414 903 l 414 1014 l 803 1014 l 803 865 l 569 865 l 569 596 l 768 596 l 768 446 l 569 446 l 569 150 l 803 150 l 803 0 l 414 0 l 414 117 l 407 117 q 404 89 387 60 q 369 31 337 11 q 304 -8 254 -8 z m 311 139 l 311 139 q 357 139 383 172 q 410 204 410 263 l 410 263 l 410 757 q 410 815 383 848 q 357 881 311 881 l 311 881 q 265 881 239 847 q 213 814 213 757 l 213 757 l 213 263 q 213 204 239 172 q 265 139 311 139 z "},"P":{"ha":833,"x_min":107,"x_max":781,"o":"m 281 0 l 107 0 l 107 1014 l 444 1014 q 546 1014 622 975 q 697 936 739 866 q 781 796 781 701 l 781 701 q 781 607 739 537 q 697 467 622 428 q 546 389 444 389 l 444 389 l 281 389 l 281 0 z m 281 861 l 281 542 l 444 542 q 518 542 561 586 q 604 631 604 701 l 604 701 q 604 772 561 817 q 518 861 444 861 l 444 861 l 281 861 z "},"Þ":{"ha":833,"x_min":108,"x_max":781,"o":"m 282 0 l 108 0 l 108 1014 l 282 1014 l 282 818 l 468 818 q 613 818 697 740 q 781 663 781 528 l 781 528 q 781 393 697 315 q 613 238 468 238 l 468 238 l 282 238 l 282 0 z m 282 669 l 282 386 l 447 386 q 522 386 563 424 q 604 461 604 528 l 604 528 q 604 594 563 632 q 522 669 447 669 l 447 669 l 282 669 z "},"Q":{"ha":833,"x_min":94,"x_max":756,"o":"m 756 -250 l 568 -250 l 425 -14 q 421 -14 417 -14 l 417 -14 q 319 -14 247 24 q 175 61 135 129 q 94 197 94 289 l 94 289 l 94 725 q 94 817 134 885 q 174 953 247 990 q 319 1028 417 1028 l 417 1028 q 514 1028 586 990 q 658 953 699 885 q 739 817 739 725 l 739 725 l 739 289 q 739 197 699 128 q 660 60 588 24 l 588 24 l 756 -250 z m 417 139 l 417 139 q 489 139 527 178 q 565 218 565 289 l 565 289 l 565 725 q 565 796 526 836 q 486 876 417 876 l 417 876 q 347 876 308 836 q 268 796 268 725 l 268 725 l 268 289 q 268 218 306 178 q 344 139 417 139 z "},"R":{"ha":833,"x_min":107,"x_max":774,"o":"m 279 0 l 107 0 l 107 1014 l 426 1014 q 528 1014 602 976 q 676 939 718 872 q 760 804 760 713 l 760 713 q 760 611 710 535 q 660 460 575 428 l 575 428 l 774 0 l 583 0 l 406 403 l 279 403 l 279 0 z m 279 861 l 279 556 l 426 556 q 500 556 542 596 q 583 636 583 707 l 583 707 q 583 778 541 819 q 499 861 426 861 l 426 861 l 279 861 z "},"Ŕ":{"ha":833,"x_min":107,"x_max":774,"o":"m 279 0 l 107 0 l 107 1014 l 426 1014 q 528 1014 602 976 q 676 939 718 872 q 760 804 760 713 l 760 713 q 760 611 710 535 q 660 460 575 428 l 575 428 l 774 0 l 583 0 l 406 403 l 279 403 l 279 0 z m 279 861 l 279 556 l 426 556 q 500 556 542 596 q 583 636 583 707 l 583 707 q 583 778 541 819 q 499 861 426 861 l 426 861 l 279 861 z m 486 1125 l 311 1125 l 458 1319 l 644 1319 l 486 1125 z "},"Ř":{"ha":833,"x_min":107,"x_max":774,"o":"m 279 0 l 107 0 l 107 1014 l 426 1014 q 528 1014 602 976 q 676 939 718 872 q 760 804 760 713 l 760 713 q 760 611 710 535 q 660 460 575 428 l 575 428 l 774 0 l 583 0 l 406 403 l 279 403 l 279 0 z m 279 861 l 279 556 l 426 556 q 500 556 542 596 q 583 636 583 707 l 583 707 q 583 778 541 819 q 499 861 426 861 l 426 861 l 279 861 z m 497 1125 l 336 1125 l 146 1319 l 313 1319 l 418 1218 l 519 1319 l 688 1319 l 497 1125 z "},"Ŗ":{"ha":833,"x_min":107,"x_max":774,"o":"m 279 0 l 107 0 l 107 1014 l 426 1014 q 528 1014 602 976 q 676 939 718 872 q 760 804 760 713 l 760 713 q 760 611 710 535 q 660 460 575 428 l 575 428 l 774 0 l 583 0 l 406 403 l 279 403 l 279 0 z m 279 861 l 279 556 l 426 556 q 500 556 542 596 q 583 636 583 707 l 583 707 q 583 778 541 819 q 499 861 426 861 l 426 861 l 279 861 z m 413 -333 l 251 -333 l 383 -132 l 567 -132 l 413 -333 z "},"S":{"ha":833,"x_min":79,"x_max":754,"o":"m 421 -14 l 421 -14 q 318 -14 241 22 q 164 58 122 126 q 79 193 79 286 l 79 286 l 250 286 q 250 218 297 178 q 343 138 421 138 l 421 138 q 496 138 540 177 q 583 217 583 283 l 583 283 q 583 333 555 372 q 526 410 474 424 l 474 424 l 338 458 q 228 486 164 563 q 100 639 100 744 l 100 744 q 100 874 185 951 q 269 1028 411 1028 l 411 1028 q 507 1028 578 993 q 650 958 689 895 q 728 832 728 747 l 728 747 l 558 747 q 558 806 518 842 q 478 878 411 878 l 411 878 q 346 878 308 842 q 269 807 269 750 l 269 750 q 269 703 297 672 q 324 642 372 628 l 372 628 l 513 593 q 625 565 690 482 q 754 399 754 283 l 754 283 q 754 193 713 126 q 672 60 597 23 q 522 -14 421 -14 z "},"Ś":{"ha":833,"x_min":79,"x_max":754,"o":"m 421 -14 l 421 -14 q 318 -14 241 22 q 164 58 122 126 q 79 193 79 286 l 79 286 l 250 286 q 250 218 297 178 q 343 138 421 138 l 421 138 q 496 138 540 177 q 583 217 583 283 l 583 283 q 583 333 555 372 q 526 410 474 424 l 474 424 l 338 458 q 228 486 164 563 q 100 639 100 744 l 100 744 q 100 874 185 951 q 269 1028 411 1028 l 411 1028 q 507 1028 578 993 q 650 958 689 895 q 728 832 728 747 l 728 747 l 558 747 q 558 806 518 842 q 478 878 411 878 l 411 878 q 346 878 308 842 q 269 807 269 750 l 269 750 q 269 703 297 672 q 324 642 372 628 l 372 628 l 513 593 q 625 565 690 482 q 754 399 754 283 l 754 283 q 754 193 713 126 q 672 60 597 23 q 522 -14 421 -14 z m 486 1125 l 311 1125 l 458 1319 l 644 1319 l 486 1125 z "},"Š":{"ha":833,"x_min":79,"x_max":754,"o":"m 421 -14 l 421 -14 q 318 -14 241 22 q 164 58 122 126 q 79 193 79 286 l 79 286 l 250 286 q 250 218 297 178 q 343 138 421 138 l 421 138 q 496 138 540 177 q 583 217 583 283 l 583 283 q 583 333 555 372 q 526 410 474 424 l 474 424 l 338 458 q 228 486 164 563 q 100 639 100 744 l 100 744 q 100 874 185 951 q 269 1028 411 1028 l 411 1028 q 507 1028 578 993 q 650 958 689 895 q 728 832 728 747 l 728 747 l 558 747 q 558 806 518 842 q 478 878 411 878 l 411 878 q 346 878 308 842 q 269 807 269 750 l 269 750 q 269 703 297 672 q 324 642 372 628 l 372 628 l 513 593 q 625 565 690 482 q 754 399 754 283 l 754 283 q 754 193 713 126 q 672 60 597 23 q 522 -14 421 -14 z m 497 1125 l 336 1125 l 146 1319 l 313 1319 l 418 1218 l 519 1319 l 688 1319 l 497 1125 z "},"Ş":{"ha":833,"x_min":79,"x_max":754,"o":"m 415 -300 l 276 -300 l 276 -211 l 382 -211 q 415 -211 435 -195 q 456 -179 456 -161 l 456 -161 q 456 -132 415 -114 q 374 -96 300 -96 l 300 -96 l 335 -7 q 217 14 148 90 q 79 167 79 286 l 79 286 l 250 286 q 250 218 297 178 q 343 138 421 138 l 421 138 q 496 138 540 177 q 583 217 583 283 l 583 283 q 583 333 555 372 q 526 410 474 424 l 474 424 l 338 458 q 228 486 164 563 q 100 639 100 744 l 100 744 q 100 874 185 951 q 269 1028 411 1028 l 411 1028 q 507 1028 578 993 q 650 958 689 895 q 728 832 728 747 l 728 747 l 558 747 q 558 806 518 842 q 478 878 411 878 l 411 878 q 346 878 308 842 q 269 807 269 750 l 269 750 q 269 703 297 672 q 324 642 372 628 l 372 628 l 513 593 q 625 565 690 482 q 754 399 754 283 l 754 283 q 754 193 713 126 q 672 60 599 23 q 525 -14 426 -14 l 426 -14 l 414 -51 q 453 -56 496 -70 q 539 -85 568 -111 q 597 -137 597 -178 l 597 -178 q 597 -226 547 -263 q 497 -300 415 -300 l 415 -300 z "},"Ŝ":{"ha":833,"x_min":79,"x_max":754,"o":"m 421 -14 l 421 -14 q 318 -14 241 22 q 164 58 122 126 q 79 193 79 286 l 79 286 l 250 286 q 250 218 297 178 q 343 138 421 138 l 421 138 q 496 138 540 177 q 583 217 583 283 l 583 283 q 583 333 555 372 q 526 410 474 424 l 474 424 l 338 458 q 228 486 164 563 q 100 639 100 744 l 100 744 q 100 874 185 951 q 269 1028 411 1028 l 411 1028 q 507 1028 578 993 q 650 958 689 895 q 728 832 728 747 l 728 747 l 558 747 q 558 806 518 842 q 478 878 411 878 l 411 878 q 346 878 308 842 q 269 807 269 750 l 269 750 q 269 703 297 672 q 324 642 372 628 l 372 628 l 513 593 q 625 565 690 482 q 754 399 754 283 l 754 283 q 754 193 713 126 q 672 60 597 23 q 522 -14 421 -14 z m 314 1125 l 146 1125 l 336 1319 l 497 1319 l 688 1125 l 521 1125 l 415 1226 l 314 1125 z "},"Ș":{"ha":833,"x_min":79,"x_max":754,"o":"m 421 -14 l 421 -14 q 318 -14 241 22 q 164 58 122 126 q 79 193 79 286 l 79 286 l 250 286 q 250 218 297 178 q 343 138 421 138 l 421 138 q 496 138 540 177 q 583 217 583 283 l 583 283 q 583 333 555 372 q 526 410 474 424 l 474 424 l 338 458 q 228 486 164 563 q 100 639 100 744 l 100 744 q 100 874 185 951 q 269 1028 411 1028 l 411 1028 q 507 1028 578 993 q 650 958 689 895 q 728 832 728 747 l 728 747 l 558 747 q 558 806 518 842 q 478 878 411 878 l 411 878 q 346 878 308 842 q 269 807 269 750 l 269 750 q 269 703 297 672 q 324 642 372 628 l 372 628 l 513 593 q 625 565 690 482 q 754 399 754 283 l 754 283 q 754 193 713 126 q 672 60 597 23 q 522 -14 421 -14 z m 413 -333 l 251 -333 l 383 -132 l 567 -132 l 413 -333 z "},"ẞ":{"ha":833,"x_min":101,"x_max":765,"o":"m 264 0 l 101 0 l 101 717 q 101 807 140 874 q 179 940 250 977 q 321 1014 414 1014 l 414 1014 l 749 1014 l 749 849 l 528 586 q 638 572 701 495 q 765 418 765 299 l 765 299 q 765 208 725 141 q 685 74 612 37 q 539 0 440 0 l 440 0 l 360 0 l 360 149 l 431 149 q 504 149 546 192 q 588 236 588 308 l 588 308 q 588 379 545 422 q 503 465 431 465 l 431 465 l 367 465 l 367 600 l 585 865 l 414 865 q 344 865 304 825 q 264 785 264 717 l 264 717 l 264 0 z "},"T":{"ha":833,"x_min":64,"x_max":769,"o":"m 504 0 l 329 0 l 329 857 l 64 857 l 64 1014 l 769 1014 l 769 857 l 504 857 l 504 0 z "},"Ŧ":{"ha":833,"x_min":64,"x_max":769,"o":"m 504 0 l 329 0 l 329 385 l 144 385 l 144 531 l 329 531 l 329 857 l 64 857 l 64 1014 l 769 1014 l 769 857 l 504 857 l 504 531 l 689 531 l 689 385 l 504 385 l 504 0 z "},"Ť":{"ha":833,"x_min":64,"x_max":769,"o":"m 504 0 l 329 0 l 329 857 l 64 857 l 64 1014 l 769 1014 l 769 857 l 504 857 l 504 0 z m 497 1125 l 336 1125 l 146 1319 l 313 1319 l 418 1218 l 519 1319 l 688 1319 l 497 1125 z "},"Ţ":{"ha":833,"x_min":64,"x_max":769,"o":"m 411 0 l 329 0 l 329 857 l 64 857 l 64 1014 l 769 1014 l 769 857 l 504 857 l 504 0 l 486 -51 q 526 -56 569 -70 q 611 -85 641 -111 q 671 -137 671 -178 l 671 -178 q 671 -226 620 -263 q 569 -300 488 -300 l 488 -300 l 350 -300 l 350 -211 l 454 -211 q 488 -211 508 -195 q 528 -179 528 -161 l 528 -161 q 528 -132 487 -114 q 446 -96 372 -96 l 372 -96 l 411 0 z "},"Ț":{"ha":833,"x_min":64,"x_max":769,"o":"m 504 0 l 329 0 l 329 857 l 64 857 l 64 1014 l 769 1014 l 769 857 l 504 857 l 504 0 z m 413 -333 l 251 -333 l 383 -132 l 567 -132 l 413 -333 z "},"U":{"ha":833,"x_min":100,"x_max":733,"o":"m 417 -14 l 417 -14 q 268 -14 184 67 q 100 149 100 289 l 100 289 l 100 1014 l 275 1014 l 275 290 q 275 218 311 178 q 347 138 417 138 l 417 138 q 485 138 522 178 q 558 218 558 290 l 558 290 l 558 1014 l 733 1014 l 733 289 q 733 149 650 67 q 567 -14 417 -14 z "},"Ú":{"ha":833,"x_min":100,"x_max":733,"o":"m 417 -14 l 417 -14 q 268 -14 184 67 q 100 149 100 289 l 100 289 l 100 1014 l 275 1014 l 275 290 q 275 218 311 178 q 347 138 417 138 l 417 138 q 485 138 522 178 q 558 218 558 290 l 558 290 l 558 1014 l 733 1014 l 733 289 q 733 149 650 67 q 567 -14 417 -14 z m 486 1125 l 311 1125 l 458 1319 l 644 1319 l 486 1125 z "},"Ŭ":{"ha":833,"x_min":100,"x_max":733,"o":"m 417 -14 l 417 -14 q 268 -14 184 67 q 100 149 100 289 l 100 289 l 100 1014 l 275 1014 l 275 290 q 275 218 311 178 q 347 138 417 138 l 417 138 q 485 138 522 178 q 558 218 558 290 l 558 290 l 558 1014 l 733 1014 l 733 289 q 733 149 650 67 q 567 -14 417 -14 z m 417 1114 l 417 1114 q 308 1114 242 1170 q 175 1226 175 1319 l 175 1319 l 310 1319 q 310 1274 339 1246 q 368 1218 417 1218 l 417 1218 q 465 1218 495 1246 q 525 1274 525 1319 l 525 1319 l 660 1319 q 660 1226 593 1170 q 526 1114 417 1114 z "},"Ǔ":{"ha":833,"x_min":100,"x_max":733,"o":"m 417 -14 l 417 -14 q 268 -14 184 67 q 100 149 100 289 l 100 289 l 100 1014 l 275 1014 l 275 290 q 275 218 311 178 q 347 138 417 138 l 417 138 q 485 138 522 178 q 558 218 558 290 l 558 290 l 558 1014 l 733 1014 l 733 289 q 733 149 650 67 q 567 -14 417 -14 z m 497 1125 l 336 1125 l 146 1319 l 313 1319 l 418 1218 l 519 1319 l 688 1319 l 497 1125 z "},"Û":{"ha":833,"x_min":100,"x_max":733,"o":"m 417 -14 l 417 -14 q 268 -14 184 67 q 100 149 100 289 l 100 289 l 100 1014 l 275 1014 l 275 290 q 275 218 311 178 q 347 138 417 138 l 417 138 q 485 138 522 178 q 558 218 558 290 l 558 290 l 558 1014 l 733 1014 l 733 289 q 733 149 650 67 q 567 -14 417 -14 z m 314 1125 l 146 1125 l 336 1319 l 497 1319 l 688 1125 l 521 1125 l 415 1226 l 314 1125 z "},"Ü":{"ha":833,"x_min":100,"x_max":733,"o":"m 417 -14 l 417 -14 q 268 -14 184 67 q 100 149 100 289 l 100 289 l 100 1014 l 275 1014 l 275 290 q 275 218 311 178 q 347 138 417 138 l 417 138 q 485 138 522 178 q 558 218 558 290 l 558 290 l 558 1014 l 733 1014 l 733 289 q 733 149 650 67 q 567 -14 417 -14 z m 579 1122 l 579 1122 q 533 1122 506 1149 q 478 1176 478 1222 l 478 1222 q 478 1269 506 1297 q 533 1324 579 1324 l 579 1324 q 626 1324 654 1297 q 682 1269 682 1222 l 682 1222 q 682 1176 654 1149 q 626 1122 579 1122 z m 254 1122 l 254 1122 q 207 1122 179 1149 q 151 1176 151 1222 l 151 1222 q 151 1269 179 1297 q 207 1324 254 1324 l 254 1324 q 300 1324 328 1297 q 356 1269 356 1222 l 356 1222 q 356 1176 328 1149 q 300 1122 254 1122 z "},"Ǘ":{"ha":833,"x_min":100,"x_max":733,"o":"m 417 -14 l 417 -14 q 268 -14 184 67 q 100 149 100 289 l 100 289 l 100 1014 l 275 1014 l 275 290 q 275 218 311 178 q 347 138 417 138 l 417 138 q 485 138 522 178 q 558 218 558 290 l 558 290 l 558 1014 l 733 1014 l 733 289 q 733 149 650 67 q 567 -14 417 -14 z m 579 1122 l 579 1122 q 533 1122 506 1149 q 478 1176 478 1222 l 478 1222 q 478 1269 506 1297 q 533 1324 579 1324 l 579 1324 q 626 1324 654 1297 q 682 1269 682 1222 l 682 1222 q 682 1176 654 1149 q 626 1122 579 1122 z m 254 1122 l 254 1122 q 207 1122 179 1149 q 151 1176 151 1222 l 151 1222 q 151 1269 179 1297 q 207 1324 254 1324 l 254 1324 q 300 1324 328 1297 q 356 1269 356 1222 l 356 1222 q 356 1176 328 1149 q 300 1122 254 1122 z m 486 1435 l 311 1435 l 458 1629 l 644 1629 l 486 1435 z "},"Ǚ":{"ha":833,"x_min":100,"x_max":733,"o":"m 417 -14 l 417 -14 q 268 -14 184 67 q 100 149 100 289 l 100 289 l 100 1014 l 275 1014 l 275 290 q 275 218 311 178 q 347 138 417 138 l 417 138 q 485 138 522 178 q 558 218 558 290 l 558 290 l 558 1014 l 733 1014 l 733 289 q 733 149 650 67 q 567 -14 417 -14 z m 579 1122 l 579 1122 q 533 1122 506 1149 q 478 1176 478 1222 l 478 1222 q 478 1269 506 1297 q 533 1324 579 1324 l 579 1324 q 626 1324 654 1297 q 682 1269 682 1222 l 682 1222 q 682 1176 654 1149 q 626 1122 579 1122 z m 254 1122 l 254 1122 q 207 1122 179 1149 q 151 1176 151 1222 l 151 1222 q 151 1269 179 1297 q 207 1324 254 1324 l 254 1324 q 300 1324 328 1297 q 356 1269 356 1222 l 356 1222 q 356 1176 328 1149 q 300 1122 254 1122 z m 497 1435 l 336 1435 l 146 1629 l 313 1629 l 418 1528 l 519 1629 l 688 1629 l 497 1435 z "},"Ǜ":{"ha":833,"x_min":100,"x_max":733,"o":"m 417 -14 l 417 -14 q 268 -14 184 67 q 100 149 100 289 l 100 289 l 100 1014 l 275 1014 l 275 290 q 275 218 311 178 q 347 138 417 138 l 417 138 q 485 138 522 178 q 558 218 558 290 l 558 290 l 558 1014 l 733 1014 l 733 289 q 733 149 650 67 q 567 -14 417 -14 z m 579 1122 l 579 1122 q 533 1122 506 1149 q 478 1176 478 1222 l 478 1222 q 478 1269 506 1297 q 533 1324 579 1324 l 579 1324 q 626 1324 654 1297 q 682 1269 682 1222 l 682 1222 q 682 1176 654 1149 q 626 1122 579 1122 z m 254 1122 l 254 1122 q 207 1122 179 1149 q 151 1176 151 1222 l 151 1222 q 151 1269 179 1297 q 207 1324 254 1324 l 254 1324 q 300 1324 328 1297 q 356 1269 356 1222 l 356 1222 q 356 1176 328 1149 q 300 1122 254 1122 z m 525 1435 l 346 1435 l 185 1629 l 376 1629 l 525 1435 z "},"Ǖ":{"ha":833,"x_min":100,"x_max":733,"o":"m 417 -14 l 417 -14 q 268 -14 184 67 q 100 149 100 289 l 100 289 l 100 1014 l 275 1014 l 275 290 q 275 218 311 178 q 347 138 417 138 l 417 138 q 485 138 522 178 q 558 218 558 290 l 558 290 l 558 1014 l 733 1014 l 733 289 q 733 149 650 67 q 567 -14 417 -14 z m 579 1122 l 579 1122 q 533 1122 506 1149 q 478 1176 478 1222 l 478 1222 q 478 1269 506 1297 q 533 1324 579 1324 l 579 1324 q 626 1324 654 1297 q 682 1269 682 1222 l 682 1222 q 682 1176 654 1149 q 626 1122 579 1122 z m 254 1122 l 254 1122 q 207 1122 179 1149 q 151 1176 151 1222 l 151 1222 q 151 1269 179 1297 q 207 1324 254 1324 l 254 1324 q 300 1324 328 1297 q 356 1269 356 1222 l 356 1222 q 356 1176 328 1149 q 300 1122 254 1122 z m 656 1460 l 178 1460 l 178 1593 l 656 1593 l 656 1460 z "},"Ụ":{"ha":833,"x_min":100,"x_max":733,"o":"m 417 -14 l 417 -14 q 268 -14 184 67 q 100 149 100 289 l 100 289 l 100 1014 l 275 1014 l 275 290 q 275 218 311 178 q 347 138 417 138 l 417 138 q 485 138 522 178 q 558 218 558 290 l 558 290 l 558 1014 l 733 1014 l 733 289 q 733 149 650 67 q 567 -14 417 -14 z m 417 -312 l 417 -312 q 364 -312 333 -285 q 303 -258 303 -212 l 303 -212 q 303 -165 333 -138 q 364 -111 417 -111 l 417 -111 q 469 -111 500 -138 q 531 -165 531 -212 l 531 -212 q 531 -258 500 -285 q 469 -312 417 -312 z "},"Ù":{"ha":833,"x_min":100,"x_max":733,"o":"m 417 -14 l 417 -14 q 268 -14 184 67 q 100 149 100 289 l 100 289 l 100 1014 l 275 1014 l 275 290 q 275 218 311 178 q 347 138 417 138 l 417 138 q 485 138 522 178 q 558 218 558 290 l 558 290 l 558 1014 l 733 1014 l 733 289 q 733 149 650 67 q 567 -14 417 -14 z m 525 1125 l 346 1125 l 185 1319 l 376 1319 l 525 1125 z "},"Ủ":{"ha":833,"x_min":100,"x_max":733,"o":"m 417 -14 l 417 -14 q 268 -14 184 67 q 100 149 100 289 l 100 289 l 100 1014 l 275 1014 l 275 290 q 275 218 311 178 q 347 138 417 138 l 417 138 q 485 138 522 178 q 558 218 558 290 l 558 290 l 558 1014 l 733 1014 l 733 289 q 733 149 650 67 q 567 -14 417 -14 z m 485 1108 l 346 1108 l 413 1192 q 432 1217 432 1233 l 432 1233 q 432 1258 392 1258 l 392 1258 l 283 1258 l 283 1365 l 415 1365 q 481 1365 521 1334 q 561 1303 561 1251 l 561 1251 q 561 1208 533 1172 l 533 1172 l 485 1108 z "},"Ư":{"ha":833,"x_min":100,"x_max":872,"o":"m 417 -14 l 417 -14 q 268 -14 184 67 q 100 149 100 289 l 100 289 l 100 1014 l 275 1014 l 275 290 q 275 218 311 178 q 347 138 417 138 l 417 138 q 485 138 522 178 q 558 218 558 290 l 558 290 l 558 1014 l 682 1014 q 731 1014 731 1063 l 731 1063 l 731 1167 l 872 1167 l 872 1060 q 872 994 835 951 q 797 908 733 899 l 733 899 l 733 289 q 733 149 650 67 q 567 -14 417 -14 z "},"Ứ":{"ha":833,"x_min":100,"x_max":872,"o":"m 417 -14 l 417 -14 q 268 -14 184 67 q 100 149 100 289 l 100 289 l 100 1014 l 275 1014 l 275 290 q 275 218 311 178 q 347 138 417 138 l 417 138 q 485 138 522 178 q 558 218 558 290 l 558 290 l 558 1014 l 682 1014 q 731 1014 731 1063 l 731 1063 l 731 1167 l 872 1167 l 872 1060 q 872 994 835 951 q 797 908 733 899 l 733 899 l 733 289 q 733 149 650 67 q 567 -14 417 -14 z m 486 1125 l 311 1125 l 458 1319 l 644 1319 l 486 1125 z "},"Ự":{"ha":833,"x_min":100,"x_max":872,"o":"m 417 -14 l 417 -14 q 268 -14 184 67 q 100 149 100 289 l 100 289 l 100 1014 l 275 1014 l 275 290 q 275 218 311 178 q 347 138 417 138 l 417 138 q 485 138 522 178 q 558 218 558 290 l 558 290 l 558 1014 l 682 1014 q 731 1014 731 1063 l 731 1063 l 731 1167 l 872 1167 l 872 1060 q 872 994 835 951 q 797 908 733 899 l 733 899 l 733 289 q 733 149 650 67 q 567 -14 417 -14 z m 417 -312 l 417 -312 q 364 -312 333 -285 q 303 -258 303 -212 l 303 -212 q 303 -165 333 -138 q 364 -111 417 -111 l 417 -111 q 469 -111 500 -138 q 531 -165 531 -212 l 531 -212 q 531 -258 500 -285 q 469 -312 417 -312 z "},"Ừ":{"ha":833,"x_min":100,"x_max":872,"o":"m 417 -14 l 417 -14 q 268 -14 184 67 q 100 149 100 289 l 100 289 l 100 1014 l 275 1014 l 275 290 q 275 218 311 178 q 347 138 417 138 l 417 138 q 485 138 522 178 q 558 218 558 290 l 558 290 l 558 1014 l 682 1014 q 731 1014 731 1063 l 731 1063 l 731 1167 l 872 1167 l 872 1060 q 872 994 835 951 q 797 908 733 899 l 733 899 l 733 289 q 733 149 650 67 q 567 -14 417 -14 z m 525 1125 l 346 1125 l 185 1319 l 376 1319 l 525 1125 z "},"Ử":{"ha":833,"x_min":100,"x_max":872,"o":"m 417 -14 l 417 -14 q 268 -14 184 67 q 100 149 100 289 l 100 289 l 100 1014 l 275 1014 l 275 290 q 275 218 311 178 q 347 138 417 138 l 417 138 q 485 138 522 178 q 558 218 558 290 l 558 290 l 558 1014 l 682 1014 q 731 1014 731 1063 l 731 1063 l 731 1167 l 872 1167 l 872 1060 q 872 994 835 951 q 797 908 733 899 l 733 899 l 733 289 q 733 149 650 67 q 567 -14 417 -14 z m 485 1108 l 346 1108 l 413 1192 q 432 1217 432 1233 l 432 1233 q 432 1258 392 1258 l 392 1258 l 283 1258 l 283 1365 l 415 1365 q 481 1365 521 1334 q 561 1303 561 1251 l 561 1251 q 561 1208 533 1172 l 533 1172 l 485 1108 z "},"Ữ":{"ha":833,"x_min":100,"x_max":872,"o":"m 417 -14 l 417 -14 q 268 -14 184 67 q 100 149 100 289 l 100 289 l 100 1014 l 275 1014 l 275 290 q 275 218 311 178 q 347 138 417 138 l 417 138 q 485 138 522 178 q 558 218 558 290 l 558 290 l 558 1014 l 682 1014 q 731 1014 731 1063 l 731 1063 l 731 1167 l 872 1167 l 872 1060 q 872 994 835 951 q 797 908 733 899 l 733 899 l 733 289 q 733 149 650 67 q 567 -14 417 -14 z m 514 1119 l 514 1119 q 471 1119 444 1133 q 417 1147 399 1165 q 381 1182 365 1195 q 349 1208 326 1208 l 326 1208 q 285 1208 285 1163 l 285 1163 l 285 1126 l 178 1126 l 178 1172 q 178 1240 217 1283 q 256 1325 319 1325 l 319 1325 q 363 1325 390 1311 q 417 1297 435 1280 q 453 1263 469 1249 q 485 1236 507 1236 l 507 1236 q 549 1236 549 1279 l 549 1279 l 549 1318 l 656 1318 l 656 1272 q 656 1204 617 1162 q 578 1119 514 1119 z "},"Ű":{"ha":833,"x_min":100,"x_max":768,"o":"m 417 -14 l 417 -14 q 268 -14 184 67 q 100 149 100 289 l 100 289 l 100 1014 l 275 1014 l 275 290 q 275 218 311 178 q 347 138 417 138 l 417 138 q 485 138 522 178 q 558 218 558 290 l 558 290 l 558 1014 l 733 1014 l 733 289 q 733 149 650 67 q 567 -14 417 -14 z m 608 1125 l 450 1125 l 599 1319 l 768 1319 l 608 1125 z m 328 1125 l 169 1125 l 319 1319 l 488 1319 l 328 1125 z "},"Ū":{"ha":833,"x_min":100,"x_max":733,"o":"m 417 -14 l 417 -14 q 268 -14 184 67 q 100 149 100 289 l 100 289 l 100 1014 l 275 1014 l 275 290 q 275 218 311 178 q 347 138 417 138 l 417 138 q 485 138 522 178 q 558 218 558 290 l 558 290 l 558 1014 l 733 1014 l 733 289 q 733 149 650 67 q 567 -14 417 -14 z m 656 1150 l 178 1150 l 178 1283 l 656 1283 l 656 1150 z "},"Ų":{"ha":833,"x_min":100,"x_max":733,"o":"m 639 -300 l 506 -300 q 425 -300 377 -260 q 329 -219 329 -157 l 329 -157 q 329 -124 356 -85 q 383 -46 426 -12 l 426 -12 l 417 -14 q 271 -14 185 67 q 100 149 100 286 l 100 286 l 100 1014 l 275 1014 l 275 286 q 275 215 310 177 q 346 139 417 139 l 417 139 q 488 139 523 177 q 558 215 558 286 l 558 286 l 558 1014 l 733 1014 l 733 286 q 733 201 698 135 q 663 69 600 32 l 600 32 l 544 -14 q 510 -42 494 -69 q 479 -97 479 -121 l 479 -121 q 479 -146 497 -163 q 515 -181 549 -181 l 549 -181 l 639 -181 l 639 -300 z "},"Ů":{"ha":833,"x_min":100,"x_max":733,"o":"m 417 -14 l 417 -14 q 268 -14 184 67 q 100 149 100 289 l 100 289 l 100 1014 l 275 1014 l 275 290 q 275 218 311 178 q 347 138 417 138 l 417 138 q 485 138 522 178 q 558 218 558 290 l 558 290 l 558 1014 l 733 1014 l 733 289 q 733 149 650 67 q 567 -14 417 -14 z m 417 1053 l 417 1053 q 335 1053 284 1099 q 233 1146 233 1222 l 233 1222 q 233 1299 284 1345 q 335 1392 417 1392 l 417 1392 q 499 1392 549 1345 q 600 1299 600 1222 l 600 1222 q 600 1146 549 1099 q 499 1053 417 1053 z m 417 1140 l 417 1140 q 454 1140 477 1163 q 500 1186 500 1222 l 500 1222 q 500 1258 477 1281 q 454 1304 417 1304 l 417 1304 q 379 1304 356 1281 q 333 1258 333 1222 l 333 1222 q 333 1186 356 1163 q 379 1140 417 1140 z "},"Ũ":{"ha":833,"x_min":100,"x_max":733,"o":"m 417 -14 l 417 -14 q 268 -14 184 67 q 100 149 100 289 l 100 289 l 100 1014 l 275 1014 l 275 290 q 275 218 311 178 q 347 138 417 138 l 417 138 q 485 138 522 178 q 558 218 558 290 l 558 290 l 558 1014 l 733 1014 l 733 289 q 733 149 650 67 q 567 -14 417 -14 z m 514 1119 l 514 1119 q 471 1119 444 1133 q 417 1147 399 1165 q 381 1182 365 1195 q 349 1208 326 1208 l 326 1208 q 285 1208 285 1163 l 285 1163 l 285 1126 l 178 1126 l 178 1172 q 178 1240 217 1283 q 256 1325 319 1325 l 319 1325 q 363 1325 390 1311 q 417 1297 435 1280 q 453 1263 469 1249 q 485 1236 507 1236 l 507 1236 q 549 1236 549 1279 l 549 1279 l 549 1318 l 656 1318 l 656 1272 q 656 1204 617 1162 q 578 1119 514 1119 z "},"V":{"ha":833,"x_min":49,"x_max":785,"o":"m 529 0 l 304 0 l 49 1014 l 228 1014 l 382 353 q 394 304 405 248 q 415 192 421 158 l 421 158 q 426 192 437 248 q 447 304 460 354 l 460 354 l 608 1014 l 785 1014 l 529 0 z "},"W":{"ha":833,"x_min":19,"x_max":814,"o":"m 318 0 l 125 0 l 19 1014 l 164 1014 l 228 306 q 231 269 234 213 q 238 157 238 118 l 238 118 q 242 157 247 213 q 251 269 256 306 l 256 306 l 344 1014 l 493 1014 l 576 306 q 581 269 587 213 q 593 157 597 118 l 597 118 q 599 157 602 213 q 606 269 608 306 l 608 306 l 671 1014 l 814 1014 l 703 0 l 511 0 l 433 711 q 429 751 425 809 q 421 867 418 904 l 418 904 q 415 867 411 809 q 407 751 403 711 l 403 711 l 318 0 z "},"Ẃ":{"ha":833,"x_min":19,"x_max":814,"o":"m 318 0 l 125 0 l 19 1014 l 164 1014 l 228 306 q 231 269 234 213 q 238 157 238 118 l 238 118 q 242 157 247 213 q 251 269 256 306 l 256 306 l 344 1014 l 493 1014 l 576 306 q 581 269 587 213 q 593 157 597 118 l 597 118 q 599 157 602 213 q 606 269 608 306 l 608 306 l 671 1014 l 814 1014 l 703 0 l 511 0 l 433 711 q 429 751 425 809 q 421 867 418 904 l 418 904 q 415 867 411 809 q 407 751 403 711 l 403 711 l 318 0 z m 486 1125 l 311 1125 l 458 1319 l 644 1319 l 486 1125 z "},"Ŵ":{"ha":833,"x_min":19,"x_max":814,"o":"m 318 0 l 125 0 l 19 1014 l 164 1014 l 228 306 q 231 269 234 213 q 238 157 238 118 l 238 118 q 242 157 247 213 q 251 269 256 306 l 256 306 l 344 1014 l 493 1014 l 576 306 q 581 269 587 213 q 593 157 597 118 l 597 118 q 599 157 602 213 q 606 269 608 306 l 608 306 l 671 1014 l 814 1014 l 703 0 l 511 0 l 433 711 q 429 751 425 809 q 421 867 418 904 l 418 904 q 415 867 411 809 q 407 751 403 711 l 403 711 l 318 0 z m 314 1125 l 146 1125 l 336 1319 l 497 1319 l 688 1125 l 521 1125 l 415 1226 l 314 1125 z "},"Ẅ":{"ha":833,"x_min":19,"x_max":814,"o":"m 318 0 l 125 0 l 19 1014 l 164 1014 l 228 306 q 231 269 234 213 q 238 157 238 118 l 238 118 q 242 157 247 213 q 251 269 256 306 l 256 306 l 344 1014 l 493 1014 l 576 306 q 581 269 587 213 q 593 157 597 118 l 597 118 q 599 157 602 213 q 606 269 608 306 l 608 306 l 671 1014 l 814 1014 l 703 0 l 511 0 l 433 711 q 429 751 425 809 q 421 867 418 904 l 418 904 q 415 867 411 809 q 407 751 403 711 l 403 711 l 318 0 z m 579 1122 l 579 1122 q 533 1122 506 1149 q 478 1176 478 1222 l 478 1222 q 478 1269 506 1297 q 533 1324 579 1324 l 579 1324 q 626 1324 654 1297 q 682 1269 682 1222 l 682 1222 q 682 1176 654 1149 q 626 1122 579 1122 z m 254 1122 l 254 1122 q 207 1122 179 1149 q 151 1176 151 1222 l 151 1222 q 151 1269 179 1297 q 207 1324 254 1324 l 254 1324 q 300 1324 328 1297 q 356 1269 356 1222 l 356 1222 q 356 1176 328 1149 q 300 1122 254 1122 z "},"Ẁ":{"ha":833,"x_min":19,"x_max":814,"o":"m 318 0 l 125 0 l 19 1014 l 164 1014 l 228 306 q 231 269 234 213 q 238 157 238 118 l 238 118 q 242 157 247 213 q 251 269 256 306 l 256 306 l 344 1014 l 493 1014 l 576 306 q 581 269 587 213 q 593 157 597 118 l 597 118 q 599 157 602 213 q 606 269 608 306 l 608 306 l 671 1014 l 814 1014 l 703 0 l 511 0 l 433 711 q 429 751 425 809 q 421 867 418 904 l 418 904 q 415 867 411 809 q 407 751 403 711 l 403 711 l 318 0 z m 525 1125 l 346 1125 l 185 1319 l 376 1319 l 525 1125 z "},"X":{"ha":833,"x_min":39,"x_max":794,"o":"m 228 0 l 39 0 l 319 519 l 56 1014 l 250 1014 l 378 760 q 392 732 403 706 q 414 681 419 667 l 419 667 q 424 681 435 706 q 446 732 460 760 l 460 760 l 589 1014 l 778 1014 l 514 524 l 794 0 l 600 0 l 457 281 q 443 307 431 334 q 419 361 414 376 l 414 376 q 408 361 397 335 q 386 308 372 281 l 372 281 l 228 0 z "},"Y":{"ha":833,"x_min":32,"x_max":801,"o":"m 504 0 l 329 0 l 329 368 l 32 1014 l 215 1014 l 372 663 q 390 621 403 581 q 415 540 419 518 l 419 518 q 425 540 437 581 q 449 621 467 663 l 467 663 l 621 1014 l 801 1014 l 504 368 l 504 0 z "},"Ý":{"ha":833,"x_min":32,"x_max":801,"o":"m 504 0 l 329 0 l 329 368 l 32 1014 l 215 1014 l 372 663 q 390 621 403 581 q 415 540 419 518 l 419 518 q 425 540 437 581 q 449 621 467 663 l 467 663 l 621 1014 l 801 1014 l 504 368 l 504 0 z m 486 1125 l 311 1125 l 458 1319 l 644 1319 l 486 1125 z "},"Ŷ":{"ha":833,"x_min":32,"x_max":801,"o":"m 504 0 l 329 0 l 329 368 l 32 1014 l 215 1014 l 372 663 q 390 621 403 581 q 415 540 419 518 l 419 518 q 425 540 437 581 q 449 621 467 663 l 467 663 l 621 1014 l 801 1014 l 504 368 l 504 0 z m 314 1125 l 146 1125 l 336 1319 l 497 1319 l 688 1125 l 521 1125 l 415 1226 l 314 1125 z "},"Ÿ":{"ha":833,"x_min":32,"x_max":801,"o":"m 504 0 l 329 0 l 329 368 l 32 1014 l 215 1014 l 372 663 q 390 621 403 581 q 415 540 419 518 l 419 518 q 425 540 437 581 q 449 621 467 663 l 467 663 l 621 1014 l 801 1014 l 504 368 l 504 0 z m 579 1122 l 579 1122 q 533 1122 506 1149 q 478 1176 478 1222 l 478 1222 q 478 1269 506 1297 q 533 1324 579 1324 l 579 1324 q 626 1324 654 1297 q 682 1269 682 1222 l 682 1222 q 682 1176 654 1149 q 626 1122 579 1122 z m 254 1122 l 254 1122 q 207 1122 179 1149 q 151 1176 151 1222 l 151 1222 q 151 1269 179 1297 q 207 1324 254 1324 l 254 1324 q 300 1324 328 1297 q 356 1269 356 1222 l 356 1222 q 356 1176 328 1149 q 300 1122 254 1122 z "},"Ỵ":{"ha":833,"x_min":32,"x_max":801,"o":"m 504 0 l 329 0 l 329 368 l 32 1014 l 215 1014 l 372 663 q 390 621 403 581 q 415 540 419 518 l 419 518 q 425 540 437 581 q 449 621 467 663 l 467 663 l 621 1014 l 801 1014 l 504 368 l 504 0 z m 417 -312 l 417 -312 q 364 -312 333 -285 q 303 -258 303 -212 l 303 -212 q 303 -165 333 -138 q 364 -111 417 -111 l 417 -111 q 469 -111 500 -138 q 531 -165 531 -212 l 531 -212 q 531 -258 500 -285 q 469 -312 417 -312 z "},"Ỳ":{"ha":833,"x_min":32,"x_max":801,"o":"m 504 0 l 329 0 l 329 368 l 32 1014 l 215 1014 l 372 663 q 390 621 403 581 q 415 540 419 518 l 419 518 q 425 540 437 581 q 449 621 467 663 l 467 663 l 621 1014 l 801 1014 l 504 368 l 504 0 z m 525 1125 l 346 1125 l 185 1319 l 376 1319 l 525 1125 z "},"Ỷ":{"ha":833,"x_min":32,"x_max":801,"o":"m 504 0 l 329 0 l 329 368 l 32 1014 l 215 1014 l 372 663 q 390 621 403 581 q 415 540 419 518 l 419 518 q 425 540 437 581 q 449 621 467 663 l 467 663 l 621 1014 l 801 1014 l 504 368 l 504 0 z m 485 1108 l 346 1108 l 413 1192 q 432 1217 432 1233 l 432 1233 q 432 1258 392 1258 l 392 1258 l 283 1258 l 283 1365 l 415 1365 q 481 1365 521 1334 q 561 1303 561 1251 l 561 1251 q 561 1208 533 1172 l 533 1172 l 485 1108 z "},"Ȳ":{"ha":833,"x_min":32,"x_max":801,"o":"m 504 0 l 329 0 l 329 368 l 32 1014 l 215 1014 l 372 663 q 390 621 403 581 q 415 540 419 518 l 419 518 q 425 540 437 581 q 449 621 467 663 l 467 663 l 621 1014 l 801 1014 l 504 368 l 504 0 z m 656 1150 l 178 1150 l 178 1283 l 656 1283 l 656 1150 z "},"Ỹ":{"ha":833,"x_min":32,"x_max":801,"o":"m 504 0 l 329 0 l 329 368 l 32 1014 l 215 1014 l 372 663 q 390 621 403 581 q 415 540 419 518 l 419 518 q 425 540 437 581 q 449 621 467 663 l 467 663 l 621 1014 l 801 1014 l 504 368 l 504 0 z m 514 1119 l 514 1119 q 471 1119 444 1133 q 417 1147 399 1165 q 381 1182 365 1195 q 349 1208 326 1208 l 326 1208 q 285 1208 285 1163 l 285 1163 l 285 1126 l 178 1126 l 178 1172 q 178 1240 217 1283 q 256 1325 319 1325 l 319 1325 q 363 1325 390 1311 q 417 1297 435 1280 q 453 1263 469 1249 q 485 1236 507 1236 l 507 1236 q 549 1236 549 1279 l 549 1279 l 549 1318 l 656 1318 l 656 1272 q 656 1204 617 1162 q 578 1119 514 1119 z "},"Z":{"ha":833,"x_min":110,"x_max":724,"o":"m 724 0 l 110 0 l 110 161 l 517 857 l 119 857 l 119 1014 l 708 1014 l 708 853 l 300 157 l 724 157 l 724 0 z "},"Ź":{"ha":833,"x_min":110,"x_max":724,"o":"m 724 0 l 110 0 l 110 161 l 517 857 l 119 857 l 119 1014 l 708 1014 l 708 853 l 300 157 l 724 157 l 724 0 z m 486 1125 l 311 1125 l 458 1319 l 644 1319 l 486 1125 z "},"Ž":{"ha":833,"x_min":110,"x_max":724,"o":"m 724 0 l 110 0 l 110 161 l 517 857 l 119 857 l 119 1014 l 708 1014 l 708 853 l 300 157 l 724 157 l 724 0 z m 497 1125 l 336 1125 l 146 1319 l 313 1319 l 418 1218 l 519 1319 l 688 1319 l 497 1125 z "},"Ż":{"ha":833,"x_min":110,"x_max":724,"o":"m 724 0 l 110 0 l 110 161 l 517 857 l 119 857 l 119 1014 l 708 1014 l 708 853 l 300 157 l 724 157 l 724 0 z m 417 1122 l 417 1122 q 364 1122 333 1149 q 303 1176 303 1222 l 303 1222 q 303 1268 333 1295 q 364 1322 417 1322 l 417 1322 q 469 1322 500 1295 q 531 1268 531 1222 l 531 1222 q 531 1176 500 1149 q 469 1122 417 1122 z "},"a":{"ha":833,"x_min":81,"x_max":726,"o":"m 332 -14 l 332 -14 q 215 -14 148 52 q 81 118 81 225 l 81 225 q 81 336 157 402 q 233 468 367 468 l 367 468 l 553 468 l 553 522 q 553 638 418 638 l 418 638 q 357 638 321 614 q 285 590 281 547 l 281 547 l 114 547 q 119 650 201 714 q 282 778 419 778 l 419 778 q 565 778 646 710 q 726 642 726 518 l 726 518 l 726 0 l 557 0 l 557 143 q 547 69 488 28 q 428 -14 332 -14 z m 388 128 l 388 128 q 464 128 508 165 q 553 203 553 265 l 553 265 l 553 356 l 375 356 q 318 356 285 324 q 251 292 251 242 l 251 242 q 251 190 287 159 q 322 128 388 128 z "},"á":{"ha":833,"x_min":81,"x_max":726,"o":"m 332 -14 l 332 -14 q 215 -14 148 52 q 81 118 81 225 l 81 225 q 81 336 157 402 q 233 468 367 468 l 367 468 l 553 468 l 553 522 q 553 638 418 638 l 418 638 q 357 638 321 614 q 285 590 281 547 l 281 547 l 114 547 q 119 650 201 714 q 282 778 419 778 l 419 778 q 565 778 646 710 q 726 642 726 518 l 726 518 l 726 0 l 557 0 l 557 143 q 547 69 488 28 q 428 -14 332 -14 z m 388 128 l 388 128 q 464 128 508 165 q 553 203 553 265 l 553 265 l 553 356 l 375 356 q 318 356 285 324 q 251 292 251 242 l 251 242 q 251 190 287 159 q 322 128 388 128 z m 493 896 l 318 896 l 465 1090 l 651 1090 l 493 896 z "},"ă":{"ha":833,"x_min":81,"x_max":726,"o":"m 332 -14 l 332 -14 q 215 -14 148 52 q 81 118 81 225 l 81 225 q 81 336 157 402 q 233 468 367 468 l 367 468 l 553 468 l 553 522 q 553 638 418 638 l 418 638 q 357 638 321 614 q 285 590 281 547 l 281 547 l 114 547 q 119 650 201 714 q 282 778 419 778 l 419 778 q 565 778 646 710 q 726 642 726 518 l 726 518 l 726 0 l 557 0 l 557 143 q 547 69 488 28 q 428 -14 332 -14 z m 388 128 l 388 128 q 464 128 508 165 q 553 203 553 265 l 553 265 l 553 356 l 375 356 q 318 356 285 324 q 251 292 251 242 l 251 242 q 251 190 287 159 q 322 128 388 128 z m 424 885 l 424 885 q 315 885 248 941 q 181 997 181 1090 l 181 1090 l 315 1090 q 315 1044 345 1017 q 375 989 424 989 l 424 989 q 472 989 502 1017 q 532 1044 532 1090 l 532 1090 l 667 1090 q 667 997 600 941 q 533 885 424 885 z "},"ắ":{"ha":833,"x_min":81,"x_max":726,"o":"m 332 -14 l 332 -14 q 215 -14 148 52 q 81 118 81 225 l 81 225 q 81 336 157 402 q 233 468 367 468 l 367 468 l 553 468 l 553 522 q 553 638 418 638 l 418 638 q 357 638 321 614 q 285 590 281 547 l 281 547 l 114 547 q 119 650 201 714 q 282 778 419 778 l 419 778 q 565 778 646 710 q 726 642 726 518 l 726 518 l 726 0 l 557 0 l 557 143 q 547 69 488 28 q 428 -14 332 -14 z m 388 128 l 388 128 q 464 128 508 165 q 553 203 553 265 l 553 265 l 553 356 l 375 356 q 318 356 285 324 q 251 292 251 242 l 251 242 q 251 190 287 159 q 322 128 388 128 z m 485 1081 l 335 1081 l 494 1268 l 656 1268 l 485 1081 z m 424 889 l 424 889 q 314 889 244 941 q 175 993 175 1078 l 175 1078 l 306 1078 q 306 1040 337 1019 q 368 997 422 997 l 422 997 q 479 997 510 1019 q 542 1040 542 1078 l 542 1078 l 672 1078 q 672 993 603 941 q 533 889 424 889 z "},"ặ":{"ha":833,"x_min":81,"x_max":726,"o":"m 332 -14 l 332 -14 q 215 -14 148 52 q 81 118 81 225 l 81 225 q 81 336 157 402 q 233 468 367 468 l 367 468 l 553 468 l 553 522 q 553 638 418 638 l 418 638 q 357 638 321 614 q 285 590 281 547 l 281 547 l 114 547 q 119 650 201 714 q 282 778 419 778 l 419 778 q 565 778 646 710 q 726 642 726 518 l 726 518 l 726 0 l 557 0 l 557 143 q 547 69 488 28 q 428 -14 332 -14 z m 388 128 l 388 128 q 464 128 508 165 q 553 203 553 265 l 553 265 l 553 356 l 375 356 q 318 356 285 324 q 251 292 251 242 l 251 242 q 251 190 287 159 q 322 128 388 128 z m 424 -312 l 424 -312 q 371 -312 340 -285 q 310 -258 310 -212 l 310 -212 q 310 -165 340 -138 q 371 -111 424 -111 l 424 -111 q 476 -111 507 -138 q 538 -165 538 -212 l 538 -212 q 538 -258 507 -285 q 476 -312 424 -312 z m 424 885 l 424 885 q 315 885 248 941 q 181 997 181 1090 l 181 1090 l 315 1090 q 315 1044 345 1017 q 375 989 424 989 l 424 989 q 472 989 502 1017 q 532 1044 532 1090 l 532 1090 l 667 1090 q 667 997 600 941 q 533 885 424 885 z "},"ằ":{"ha":833,"x_min":81,"x_max":726,"o":"m 332 -14 l 332 -14 q 215 -14 148 52 q 81 118 81 225 l 81 225 q 81 336 157 402 q 233 468 367 468 l 367 468 l 553 468 l 553 522 q 553 638 418 638 l 418 638 q 357 638 321 614 q 285 590 281 547 l 281 547 l 114 547 q 119 650 201 714 q 282 778 419 778 l 419 778 q 565 778 646 710 q 726 642 726 518 l 726 518 l 726 0 l 557 0 l 557 143 q 547 69 488 28 q 428 -14 332 -14 z m 388 128 l 388 128 q 464 128 508 165 q 553 203 553 265 l 553 265 l 553 356 l 375 356 q 318 356 285 324 q 251 292 251 242 l 251 242 q 251 190 287 159 q 322 128 388 128 z m 513 1081 l 363 1081 l 192 1268 l 353 1268 l 513 1081 z m 424 889 l 424 889 q 314 889 244 941 q 175 993 175 1078 l 175 1078 l 306 1078 q 306 1040 337 1019 q 368 997 422 997 l 422 997 q 479 997 510 1019 q 542 1040 542 1078 l 542 1078 l 672 1078 q 672 993 603 941 q 533 889 424 889 z "},"ẳ":{"ha":833,"x_min":81,"x_max":726,"o":"m 332 -14 l 332 -14 q 215 -14 148 52 q 81 118 81 225 l 81 225 q 81 336 157 402 q 233 468 367 468 l 367 468 l 553 468 l 553 522 q 553 638 418 638 l 418 638 q 357 638 321 614 q 285 590 281 547 l 281 547 l 114 547 q 119 650 201 714 q 282 778 419 778 l 419 778 q 565 778 646 710 q 726 642 726 518 l 726 518 l 726 0 l 557 0 l 557 143 q 547 69 488 28 q 428 -14 332 -14 z m 388 128 l 388 128 q 464 128 508 165 q 553 203 553 265 l 553 265 l 553 356 l 375 356 q 318 356 285 324 q 251 292 251 242 l 251 242 q 251 190 287 159 q 322 128 388 128 z m 482 1081 l 347 1081 l 410 1158 q 428 1179 428 1196 l 428 1196 q 428 1225 390 1225 l 390 1225 l 299 1225 l 299 1328 l 417 1328 q 479 1328 518 1297 q 557 1267 557 1218 l 557 1218 q 557 1175 528 1139 l 528 1139 l 482 1081 z m 424 889 l 424 889 q 314 889 244 941 q 175 993 175 1078 l 175 1078 l 306 1078 q 306 1040 337 1019 q 368 997 422 997 l 422 997 q 479 997 510 1019 q 542 1040 542 1078 l 542 1078 l 672 1078 q 672 993 603 941 q 533 889 424 889 z "},"ẵ":{"ha":833,"x_min":81,"x_max":726,"o":"m 332 -14 l 332 -14 q 215 -14 148 52 q 81 118 81 225 l 81 225 q 81 336 157 402 q 233 468 367 468 l 367 468 l 553 468 l 553 522 q 553 638 418 638 l 418 638 q 357 638 321 614 q 285 590 281 547 l 281 547 l 114 547 q 119 650 201 714 q 282 778 419 778 l 419 778 q 565 778 646 710 q 726 642 726 518 l 726 518 l 726 0 l 557 0 l 557 143 q 547 69 488 28 q 428 -14 332 -14 z m 388 128 l 388 128 q 464 128 508 165 q 553 203 553 265 l 553 265 l 553 356 l 375 356 q 318 356 285 324 q 251 292 251 242 l 251 242 q 251 190 287 159 q 322 128 388 128 z m 518 1122 l 518 1122 q 475 1122 448 1136 q 421 1150 403 1169 q 386 1188 371 1201 q 356 1215 333 1215 l 333 1215 q 292 1215 292 1171 l 292 1171 l 292 1131 l 185 1131 l 185 1171 q 185 1236 224 1276 q 264 1315 329 1315 l 329 1315 q 374 1315 400 1301 q 426 1286 444 1268 q 461 1250 476 1236 q 492 1222 514 1222 l 514 1222 q 556 1222 556 1261 l 556 1261 l 556 1306 l 663 1306 l 663 1267 q 663 1201 623 1162 q 583 1122 518 1122 z m 424 892 l 424 892 q 317 892 249 944 q 181 996 181 1081 l 181 1081 l 308 1081 q 308 1043 339 1021 q 369 999 422 999 l 422 999 q 476 999 508 1021 q 539 1043 539 1081 l 539 1081 l 667 1081 q 667 996 599 944 q 531 892 424 892 z "},"ǎ":{"ha":833,"x_min":81,"x_max":726,"o":"m 332 -14 l 332 -14 q 215 -14 148 52 q 81 118 81 225 l 81 225 q 81 336 157 402 q 233 468 367 468 l 367 468 l 553 468 l 553 522 q 553 638 418 638 l 418 638 q 357 638 321 614 q 285 590 281 547 l 281 547 l 114 547 q 119 650 201 714 q 282 778 419 778 l 419 778 q 565 778 646 710 q 726 642 726 518 l 726 518 l 726 0 l 557 0 l 557 143 q 547 69 488 28 q 428 -14 332 -14 z m 388 128 l 388 128 q 464 128 508 165 q 553 203 553 265 l 553 265 l 553 356 l 375 356 q 318 356 285 324 q 251 292 251 242 l 251 242 q 251 190 287 159 q 322 128 388 128 z m 504 896 l 343 896 l 153 1090 l 319 1090 l 425 989 l 526 1090 l 694 1090 l 504 896 z "},"â":{"ha":833,"x_min":81,"x_max":726,"o":"m 332 -14 l 332 -14 q 215 -14 148 52 q 81 118 81 225 l 81 225 q 81 336 157 402 q 233 468 367 468 l 367 468 l 553 468 l 553 522 q 553 638 418 638 l 418 638 q 357 638 321 614 q 285 590 281 547 l 281 547 l 114 547 q 119 650 201 714 q 282 778 419 778 l 419 778 q 565 778 646 710 q 726 642 726 518 l 726 518 l 726 0 l 557 0 l 557 143 q 547 69 488 28 q 428 -14 332 -14 z m 388 128 l 388 128 q 464 128 508 165 q 553 203 553 265 l 553 265 l 553 356 l 375 356 q 318 356 285 324 q 251 292 251 242 l 251 242 q 251 190 287 159 q 322 128 388 128 z m 321 896 l 153 896 l 343 1090 l 504 1090 l 694 896 l 528 896 l 422 997 l 321 896 z "},"ấ":{"ha":833,"x_min":81,"x_max":924,"o":"m 332 -14 l 332 -14 q 215 -14 148 52 q 81 118 81 225 l 81 225 q 81 336 157 402 q 233 468 367 468 l 367 468 l 553 468 l 553 522 q 553 638 418 638 l 418 638 q 357 638 321 614 q 285 590 281 547 l 281 547 l 114 547 q 119 650 201 714 q 282 778 419 778 l 419 778 q 565 778 646 710 q 726 642 726 518 l 726 518 l 726 0 l 557 0 l 557 143 q 547 69 488 28 q 428 -14 332 -14 z m 388 128 l 388 128 q 464 128 508 165 q 553 203 553 265 l 553 265 l 553 356 l 375 356 q 318 356 285 324 q 251 292 251 242 l 251 242 q 251 190 287 159 q 322 128 388 128 z m 749 1056 l 585 1056 l 749 1250 l 924 1250 l 749 1056 z m 321 896 l 153 896 l 343 1090 l 504 1090 l 694 896 l 526 896 l 424 997 l 321 896 z "},"ậ":{"ha":833,"x_min":81,"x_max":726,"o":"m 332 -14 l 332 -14 q 215 -14 148 52 q 81 118 81 225 l 81 225 q 81 336 157 402 q 233 468 367 468 l 367 468 l 553 468 l 553 522 q 553 638 418 638 l 418 638 q 357 638 321 614 q 285 590 281 547 l 281 547 l 114 547 q 119 650 201 714 q 282 778 419 778 l 419 778 q 565 778 646 710 q 726 642 726 518 l 726 518 l 726 0 l 557 0 l 557 143 q 547 69 488 28 q 428 -14 332 -14 z m 388 128 l 388 128 q 464 128 508 165 q 553 203 553 265 l 553 265 l 553 356 l 375 356 q 318 356 285 324 q 251 292 251 242 l 251 242 q 251 190 287 159 q 322 128 388 128 z m 424 -312 l 424 -312 q 371 -312 340 -285 q 310 -258 310 -212 l 310 -212 q 310 -165 340 -138 q 371 -111 424 -111 l 424 -111 q 476 -111 507 -138 q 538 -165 538 -212 l 538 -212 q 538 -258 507 -285 q 476 -312 424 -312 z m 321 896 l 153 896 l 343 1090 l 504 1090 l 694 896 l 528 896 l 422 997 l 321 896 z "},"ầ":{"ha":833,"x_min":81,"x_max":817,"o":"m 332 -14 l 332 -14 q 215 -14 148 52 q 81 118 81 225 l 81 225 q 81 336 157 402 q 233 468 367 468 l 367 468 l 553 468 l 553 522 q 553 638 418 638 l 418 638 q 357 638 321 614 q 285 590 281 547 l 281 547 l 114 547 q 119 650 201 714 q 282 778 419 778 l 419 778 q 565 778 646 710 q 726 642 726 518 l 726 518 l 726 0 l 557 0 l 557 143 q 547 69 488 28 q 428 -14 332 -14 z m 388 128 l 388 128 q 464 128 508 165 q 553 203 553 265 l 553 265 l 553 356 l 375 356 q 318 356 285 324 q 251 292 251 242 l 251 242 q 251 190 287 159 q 322 128 388 128 z m 817 1056 l 653 1056 l 472 1250 l 647 1250 l 817 1056 z m 321 896 l 153 896 l 343 1090 l 504 1090 l 694 896 l 526 896 l 424 997 l 321 896 z "},"ẩ":{"ha":833,"x_min":81,"x_max":803,"o":"m 332 -14 l 332 -14 q 215 -14 148 52 q 81 118 81 225 l 81 225 q 81 336 157 402 q 233 468 367 468 l 367 468 l 553 468 l 553 522 q 553 638 418 638 l 418 638 q 357 638 321 614 q 285 590 281 547 l 281 547 l 114 547 q 119 650 201 714 q 282 778 419 778 l 419 778 q 565 778 646 710 q 726 642 726 518 l 726 518 l 726 0 l 557 0 l 557 143 q 547 69 488 28 q 428 -14 332 -14 z m 388 128 l 388 128 q 464 128 508 165 q 553 203 553 265 l 553 265 l 553 356 l 375 356 q 318 356 285 324 q 251 292 251 242 l 251 242 q 251 190 287 159 q 322 128 388 128 z m 726 1056 l 594 1056 l 660 1138 q 678 1160 678 1175 l 678 1175 q 678 1203 638 1203 l 638 1203 l 543 1203 l 543 1307 l 660 1307 q 725 1307 764 1276 q 803 1246 803 1194 l 803 1194 q 803 1154 775 1118 l 775 1118 l 726 1056 z m 321 896 l 153 896 l 343 1090 l 504 1090 l 694 896 l 526 896 l 424 997 l 321 896 z "},"ẫ":{"ha":833,"x_min":81,"x_max":726,"o":"m 332 -14 l 332 -14 q 215 -14 148 52 q 81 118 81 225 l 81 225 q 81 336 157 402 q 233 468 367 468 l 367 468 l 553 468 l 553 522 q 553 638 418 638 l 418 638 q 357 638 321 614 q 285 590 281 547 l 281 547 l 114 547 q 119 650 201 714 q 282 778 419 778 l 419 778 q 565 778 646 710 q 726 642 726 518 l 726 518 l 726 0 l 557 0 l 557 143 q 547 69 488 28 q 428 -14 332 -14 z m 388 128 l 388 128 q 464 128 508 165 q 553 203 553 265 l 553 265 l 553 356 l 375 356 q 318 356 285 324 q 251 292 251 242 l 251 242 q 251 190 287 159 q 322 128 388 128 z m 518 1139 l 518 1139 q 475 1139 448 1152 q 421 1165 403 1182 q 386 1199 371 1211 q 356 1224 333 1224 l 333 1224 q 292 1224 292 1179 l 292 1179 l 292 1147 l 185 1147 l 185 1179 q 185 1244 224 1284 q 264 1324 329 1324 l 329 1324 q 374 1324 400 1310 q 426 1297 444 1281 q 461 1264 476 1251 q 492 1239 514 1239 l 514 1239 q 556 1239 556 1279 l 556 1279 l 556 1314 l 663 1314 l 663 1283 q 663 1218 623 1178 q 583 1139 518 1139 z m 321 896 l 153 896 l 343 1090 l 504 1090 l 694 896 l 526 896 l 424 997 l 321 896 z "},"ä":{"ha":833,"x_min":81,"x_max":726,"o":"m 332 -14 l 332 -14 q 215 -14 148 52 q 81 118 81 225 l 81 225 q 81 336 157 402 q 233 468 367 468 l 367 468 l 553 468 l 553 522 q 553 638 418 638 l 418 638 q 357 638 321 614 q 285 590 281 547 l 281 547 l 114 547 q 119 650 201 714 q 282 778 419 778 l 419 778 q 565 778 646 710 q 726 642 726 518 l 726 518 l 726 0 l 557 0 l 557 143 q 547 69 488 28 q 428 -14 332 -14 z m 388 128 l 388 128 q 464 128 508 165 q 553 203 553 265 l 553 265 l 553 356 l 375 356 q 318 356 285 324 q 251 292 251 242 l 251 242 q 251 190 287 159 q 322 128 388 128 z m 586 892 l 586 892 q 540 892 513 919 q 485 946 485 992 l 485 992 q 485 1038 513 1065 q 540 1092 586 1092 l 586 1092 q 633 1092 661 1065 q 689 1038 689 992 l 689 992 q 689 946 661 919 q 633 892 586 892 z m 261 892 l 261 892 q 214 892 186 919 q 158 946 158 992 l 158 992 q 158 1038 186 1065 q 214 1092 261 1092 l 261 1092 q 307 1092 335 1065 q 363 1038 363 992 l 363 992 q 363 946 335 919 q 307 892 261 892 z "},"ạ":{"ha":833,"x_min":81,"x_max":726,"o":"m 332 -14 l 332 -14 q 215 -14 148 52 q 81 118 81 225 l 81 225 q 81 336 157 402 q 233 468 367 468 l 367 468 l 553 468 l 553 522 q 553 638 418 638 l 418 638 q 357 638 321 614 q 285 590 281 547 l 281 547 l 114 547 q 119 650 201 714 q 282 778 419 778 l 419 778 q 565 778 646 710 q 726 642 726 518 l 726 518 l 726 0 l 557 0 l 557 143 q 547 69 488 28 q 428 -14 332 -14 z m 388 128 l 388 128 q 464 128 508 165 q 553 203 553 265 l 553 265 l 553 356 l 375 356 q 318 356 285 324 q 251 292 251 242 l 251 242 q 251 190 287 159 q 322 128 388 128 z m 424 -312 l 424 -312 q 371 -312 340 -285 q 310 -258 310 -212 l 310 -212 q 310 -165 340 -138 q 371 -111 424 -111 l 424 -111 q 476 -111 507 -138 q 538 -165 538 -212 l 538 -212 q 538 -258 507 -285 q 476 -312 424 -312 z "},"à":{"ha":833,"x_min":81,"x_max":726,"o":"m 332 -14 l 332 -14 q 215 -14 148 52 q 81 118 81 225 l 81 225 q 81 336 157 402 q 233 468 367 468 l 367 468 l 553 468 l 553 522 q 553 638 418 638 l 418 638 q 357 638 321 614 q 285 590 281 547 l 281 547 l 114 547 q 119 650 201 714 q 282 778 419 778 l 419 778 q 565 778 646 710 q 726 642 726 518 l 726 518 l 726 0 l 557 0 l 557 143 q 547 69 488 28 q 428 -14 332 -14 z m 388 128 l 388 128 q 464 128 508 165 q 553 203 553 265 l 553 265 l 553 356 l 375 356 q 318 356 285 324 q 251 292 251 242 l 251 242 q 251 190 287 159 q 322 128 388 128 z m 532 896 l 353 896 l 192 1090 l 383 1090 l 532 896 z "},"ả":{"ha":833,"x_min":81,"x_max":726,"o":"m 332 -14 l 332 -14 q 215 -14 148 52 q 81 118 81 225 l 81 225 q 81 336 157 402 q 233 468 367 468 l 367 468 l 553 468 l 553 522 q 553 638 418 638 l 418 638 q 357 638 321 614 q 285 590 281 547 l 281 547 l 114 547 q 119 650 201 714 q 282 778 419 778 l 419 778 q 565 778 646 710 q 726 642 726 518 l 726 518 l 726 0 l 557 0 l 557 143 q 547 69 488 28 q 428 -14 332 -14 z m 388 128 l 388 128 q 464 128 508 165 q 553 203 553 265 l 553 265 l 553 356 l 375 356 q 318 356 285 324 q 251 292 251 242 l 251 242 q 251 190 287 159 q 322 128 388 128 z m 492 896 l 353 896 l 422 979 q 442 1004 442 1021 l 442 1021 q 442 1047 401 1047 l 401 1047 l 290 1047 l 290 1153 l 436 1153 q 497 1153 534 1122 q 571 1092 571 1040 l 571 1040 q 571 994 543 960 l 543 960 l 492 896 z "},"ā":{"ha":833,"x_min":81,"x_max":726,"o":"m 332 -14 l 332 -14 q 215 -14 148 52 q 81 118 81 225 l 81 225 q 81 336 157 402 q 233 468 367 468 l 367 468 l 553 468 l 553 522 q 553 638 418 638 l 418 638 q 357 638 321 614 q 285 590 281 547 l 281 547 l 114 547 q 119 650 201 714 q 282 778 419 778 l 419 778 q 565 778 646 710 q 726 642 726 518 l 726 518 l 726 0 l 557 0 l 557 143 q 547 69 488 28 q 428 -14 332 -14 z m 388 128 l 388 128 q 464 128 508 165 q 553 203 553 265 l 553 265 l 553 356 l 375 356 q 318 356 285 324 q 251 292 251 242 l 251 242 q 251 190 287 159 q 322 128 388 128 z m 663 918 l 185 918 l 185 1051 l 663 1051 l 663 918 z "},"ą":{"ha":833,"x_min":81,"x_max":803,"o":"m 332 -14 l 332 -14 q 215 -14 148 52 q 81 118 81 225 l 81 225 q 81 336 157 402 q 233 468 367 468 l 367 468 l 553 468 l 553 522 q 553 638 418 638 l 418 638 q 357 638 321 614 q 285 590 281 547 l 281 547 l 114 547 q 119 650 201 714 q 282 778 419 778 l 419 778 q 565 778 646 710 q 726 642 726 518 l 726 518 l 726 0 l 729 0 q 682 -42 663 -70 q 643 -99 643 -121 l 643 -121 q 643 -146 661 -163 q 679 -181 713 -181 l 713 -181 l 803 -181 l 803 -300 l 669 -300 q 589 -300 541 -260 q 493 -219 493 -157 l 493 -157 q 493 -71 607 0 l 607 0 l 557 0 l 557 143 q 547 69 488 28 q 428 -14 332 -14 z m 388 128 l 388 128 q 464 128 508 165 q 553 203 553 265 l 553 265 l 553 356 l 375 356 q 318 356 285 324 q 251 292 251 242 l 251 242 q 251 190 287 159 q 322 128 388 128 z "},"å":{"ha":833,"x_min":81,"x_max":726,"o":"m 332 -14 l 332 -14 q 215 -14 148 52 q 81 118 81 225 l 81 225 q 81 336 157 402 q 233 468 367 468 l 367 468 l 553 468 l 553 522 q 553 638 418 638 l 418 638 q 357 638 321 614 q 285 590 281 547 l 281 547 l 114 547 q 119 650 201 714 q 282 778 419 778 l 419 778 q 565 778 646 710 q 726 642 726 518 l 726 518 l 726 0 l 557 0 l 557 143 q 547 69 488 28 q 428 -14 332 -14 z m 388 128 l 388 128 q 464 128 508 165 q 553 203 553 265 l 553 265 l 553 356 l 375 356 q 318 356 285 324 q 251 292 251 242 l 251 242 q 251 190 287 159 q 322 128 388 128 z m 424 838 l 424 838 q 342 838 291 884 q 240 931 240 1006 l 240 1006 q 240 1082 291 1128 q 342 1175 424 1175 l 424 1175 q 506 1175 556 1128 q 607 1082 607 1006 l 607 1006 q 607 931 556 884 q 506 838 424 838 z m 424 925 l 424 925 q 461 925 484 947 q 507 969 507 1006 l 507 1006 q 507 1043 484 1065 q 461 1088 424 1088 l 424 1088 q 386 1088 363 1065 q 340 1043 340 1006 l 340 1006 q 340 969 363 947 q 386 925 424 925 z "},"ã":{"ha":833,"x_min":81,"x_max":726,"o":"m 332 -14 l 332 -14 q 215 -14 148 52 q 81 118 81 225 l 81 225 q 81 336 157 402 q 233 468 367 468 l 367 468 l 553 468 l 553 522 q 553 638 418 638 l 418 638 q 357 638 321 614 q 285 590 281 547 l 281 547 l 114 547 q 119 650 201 714 q 282 778 419 778 l 419 778 q 565 778 646 710 q 726 642 726 518 l 726 518 l 726 0 l 557 0 l 557 143 q 547 69 488 28 q 428 -14 332 -14 z m 388 128 l 388 128 q 464 128 508 165 q 553 203 553 265 l 553 265 l 553 356 l 375 356 q 318 356 285 324 q 251 292 251 242 l 251 242 q 251 190 287 159 q 322 128 388 128 z m 521 890 l 521 890 q 478 890 451 904 q 424 918 406 935 q 388 953 372 966 q 356 979 333 979 l 333 979 q 292 979 292 933 l 292 933 l 292 897 l 185 897 l 185 943 q 185 1011 224 1053 q 263 1096 326 1096 l 326 1096 q 369 1096 397 1082 q 424 1068 442 1051 q 460 1033 476 1020 q 492 1007 514 1007 l 514 1007 q 556 1007 556 1050 l 556 1050 l 556 1089 l 663 1089 l 663 1043 q 663 975 624 933 q 585 890 521 890 z "},"æ":{"ha":833,"x_min":40,"x_max":789,"o":"m 247 -14 l 247 -14 q 156 -14 98 51 q 40 117 40 221 l 40 221 q 40 325 103 390 q 165 456 265 456 l 265 456 l 349 456 l 349 556 q 349 603 328 629 q 308 656 274 656 l 274 656 q 239 656 218 631 q 197 606 197 564 l 197 564 l 54 564 q 54 660 109 719 q 164 778 251 778 l 251 778 q 319 778 366 744 q 413 710 419 651 l 419 651 q 426 710 473 744 q 519 778 585 778 l 585 778 q 675 778 732 716 q 789 654 789 556 l 789 556 l 789 350 l 492 350 l 492 208 q 492 161 512 135 q 532 108 567 108 l 567 108 q 603 108 623 133 q 643 158 643 201 l 643 201 l 789 201 q 789 106 733 46 q 676 -14 586 -14 l 586 -14 q 524 -14 476 21 q 429 56 419 113 l 419 113 q 411 56 363 21 q 315 -14 247 -14 z m 492 556 l 492 456 l 643 456 l 643 556 q 643 601 623 628 q 603 656 567 656 l 567 656 q 533 656 513 628 q 492 601 492 556 l 492 556 z m 271 108 l 271 108 q 306 108 327 135 q 349 163 349 208 l 349 208 l 349 350 l 267 350 q 229 350 208 317 q 186 285 186 229 l 186 229 q 186 175 208 142 q 231 108 271 108 z "},"ǽ":{"ha":833,"x_min":40,"x_max":789,"o":"m 247 -14 l 247 -14 q 156 -14 98 51 q 40 117 40 221 l 40 221 q 40 325 103 390 q 165 456 265 456 l 265 456 l 349 456 l 349 556 q 349 603 328 629 q 308 656 274 656 l 274 656 q 239 656 218 631 q 197 606 197 564 l 197 564 l 54 564 q 54 660 109 719 q 164 778 251 778 l 251 778 q 319 778 366 744 q 413 710 419 651 l 419 651 q 426 710 473 744 q 519 778 585 778 l 585 778 q 675 778 732 716 q 789 654 789 556 l 789 556 l 789 350 l 492 350 l 492 208 q 492 161 512 135 q 532 108 567 108 l 567 108 q 603 108 623 133 q 643 158 643 201 l 643 201 l 789 201 q 789 106 733 46 q 676 -14 586 -14 l 586 -14 q 524 -14 476 21 q 429 56 419 113 l 419 113 q 411 56 363 21 q 315 -14 247 -14 z m 492 556 l 492 456 l 643 456 l 643 556 q 643 601 623 628 q 603 656 567 656 l 567 656 q 533 656 513 628 q 492 601 492 556 l 492 556 z m 271 108 l 271 108 q 306 108 327 135 q 349 163 349 208 l 349 208 l 349 350 l 267 350 q 229 350 208 317 q 186 285 186 229 l 186 229 q 186 175 208 142 q 231 108 271 108 z m 486 896 l 311 896 l 458 1090 l 644 1090 l 486 896 z "},"b":{"ha":833,"x_min":107,"x_max":735,"o":"m 486 -14 l 486 -14 q 406 -14 351 26 q 297 67 276 139 l 276 139 l 276 0 l 107 0 l 107 1014 l 281 1014 l 281 800 l 275 625 q 297 697 352 738 q 407 778 486 778 l 486 778 q 599 778 667 699 q 735 619 735 485 l 735 485 l 735 278 q 735 144 666 65 q 597 -14 486 -14 z m 421 136 l 421 136 q 488 136 524 172 q 561 208 561 283 l 561 283 l 561 481 q 561 556 524 592 q 488 628 421 628 l 421 628 q 354 628 317 588 q 281 547 281 474 l 281 474 l 281 290 q 281 217 317 176 q 354 136 421 136 z "},"c":{"ha":833,"x_min":104,"x_max":750,"o":"m 429 -14 l 429 -14 q 331 -14 258 23 q 185 60 144 127 q 104 194 104 286 l 104 286 l 104 478 q 104 569 144 637 q 185 704 258 741 q 331 778 429 778 l 429 778 q 572 778 659 703 q 746 629 750 501 l 750 501 l 579 501 q 575 561 534 594 q 493 626 429 626 l 429 626 q 358 626 318 588 q 278 550 278 479 l 278 479 l 278 286 q 278 215 318 176 q 358 138 429 138 l 429 138 q 494 138 535 170 q 575 203 579 263 l 579 263 l 750 263 q 746 135 659 60 q 572 -14 429 -14 z "},"ć":{"ha":833,"x_min":104,"x_max":750,"o":"m 429 -14 l 429 -14 q 331 -14 258 23 q 185 60 144 127 q 104 194 104 286 l 104 286 l 104 478 q 104 569 144 637 q 185 704 258 741 q 331 778 429 778 l 429 778 q 572 778 659 703 q 746 629 750 501 l 750 501 l 579 501 q 575 561 534 594 q 493 626 429 626 l 429 626 q 358 626 318 588 q 278 550 278 479 l 278 479 l 278 286 q 278 215 318 176 q 358 138 429 138 l 429 138 q 494 138 535 170 q 575 203 579 263 l 579 263 l 750 263 q 746 135 659 60 q 572 -14 429 -14 z m 499 896 l 324 896 l 471 1090 l 657 1090 l 499 896 z "},"č":{"ha":833,"x_min":104,"x_max":750,"o":"m 429 -14 l 429 -14 q 331 -14 258 23 q 185 60 144 127 q 104 194 104 286 l 104 286 l 104 478 q 104 569 144 637 q 185 704 258 741 q 331 778 429 778 l 429 778 q 572 778 659 703 q 746 629 750 501 l 750 501 l 579 501 q 575 561 534 594 q 493 626 429 626 l 429 626 q 358 626 318 588 q 278 550 278 479 l 278 479 l 278 286 q 278 215 318 176 q 358 138 429 138 l 429 138 q 494 138 535 170 q 575 203 579 263 l 579 263 l 750 263 q 746 135 659 60 q 572 -14 429 -14 z m 510 896 l 349 896 l 158 1090 l 325 1090 l 431 989 l 532 1090 l 700 1090 l 510 896 z "},"ç":{"ha":833,"x_min":104,"x_max":750,"o":"m 415 -300 l 278 -300 l 278 -211 l 382 -211 q 415 -211 435 -195 q 456 -179 456 -161 l 456 -161 q 456 -132 415 -114 q 374 -96 301 -96 l 301 -96 l 336 -4 q 229 19 167 95 q 104 171 104 286 l 104 286 l 104 478 q 104 569 144 637 q 185 704 258 741 q 331 778 429 778 l 429 778 q 572 778 659 703 q 746 629 750 501 l 750 501 l 579 501 q 575 561 534 594 q 493 626 429 626 l 429 626 q 358 626 318 588 q 278 550 278 479 l 278 479 l 278 286 q 278 215 318 176 q 358 138 429 138 l 429 138 q 494 138 535 170 q 575 203 579 263 l 579 263 l 750 263 q 746 135 659 60 q 572 -14 429 -14 l 429 -14 l 428 -14 l 414 -51 q 454 -56 497 -70 q 539 -85 569 -111 q 599 -137 599 -178 l 599 -178 q 599 -226 549 -263 q 499 -300 415 -300 l 415 -300 z "},"ĉ":{"ha":833,"x_min":104,"x_max":750,"o":"m 429 -14 l 429 -14 q 331 -14 258 23 q 185 60 144 127 q 104 194 104 286 l 104 286 l 104 478 q 104 569 144 637 q 185 704 258 741 q 331 778 429 778 l 429 778 q 572 778 659 703 q 746 629 750 501 l 750 501 l 579 501 q 575 561 534 594 q 493 626 429 626 l 429 626 q 358 626 318 588 q 278 550 278 479 l 278 479 l 278 286 q 278 215 318 176 q 358 138 429 138 l 429 138 q 494 138 535 170 q 575 203 579 263 l 579 263 l 750 263 q 746 135 659 60 q 572 -14 429 -14 z m 326 896 l 158 896 l 349 1090 l 510 1090 l 700 896 l 533 896 l 428 997 l 326 896 z "},"ċ":{"ha":833,"x_min":104,"x_max":750,"o":"m 429 -14 l 429 -14 q 331 -14 258 23 q 185 60 144 127 q 104 194 104 286 l 104 286 l 104 478 q 104 569 144 637 q 185 704 258 741 q 331 778 429 778 l 429 778 q 572 778 659 703 q 746 629 750 501 l 750 501 l 579 501 q 575 561 534 594 q 493 626 429 626 l 429 626 q 358 626 318 588 q 278 550 278 479 l 278 479 l 278 286 q 278 215 318 176 q 358 138 429 138 l 429 138 q 494 138 535 170 q 575 203 579 263 l 579 263 l 750 263 q 746 135 659 60 q 572 -14 429 -14 z m 429 892 l 429 892 q 376 892 346 919 q 315 946 315 992 l 315 992 q 315 1038 346 1065 q 376 1092 429 1092 l 429 1092 q 482 1092 513 1065 q 543 1038 543 992 l 543 992 q 543 946 513 919 q 482 892 429 892 z "},"d":{"ha":833,"x_min":99,"x_max":726,"o":"m 347 -14 l 347 -14 q 236 -14 167 65 q 99 144 99 278 l 99 278 l 99 485 q 99 619 167 699 q 235 778 347 778 l 347 778 q 426 778 481 738 q 536 697 558 625 l 558 625 l 553 800 l 553 1014 l 726 1014 l 726 0 l 557 0 l 557 139 q 536 67 482 26 q 428 -14 347 -14 z m 413 136 l 413 136 q 479 136 516 176 q 553 217 553 290 l 553 290 l 553 474 q 553 547 516 588 q 479 628 413 628 l 413 628 q 346 628 309 592 q 272 556 272 481 l 272 481 l 272 283 q 272 208 309 172 q 346 136 413 136 z "},"ď":{"ha":833,"x_min":69,"x_max":854,"o":"m 296 -14 l 296 -14 q 192 -14 131 63 q 69 140 69 271 l 69 271 l 69 493 q 69 624 131 701 q 192 778 296 778 l 296 778 q 369 778 417 735 q 464 692 474 618 l 474 618 l 478 618 l 472 800 l 472 1014 l 638 1014 l 638 0 l 476 0 l 476 146 l 474 146 q 464 72 417 29 q 369 -14 296 -14 z m 824 764 l 686 764 l 706 1014 l 854 1014 l 824 764 z m 357 129 l 357 129 q 411 129 442 169 q 472 208 472 279 l 472 279 l 472 486 q 472 557 442 596 q 411 635 357 635 l 357 635 q 300 635 267 596 q 235 557 235 486 l 235 486 l 235 279 q 235 208 267 169 q 300 129 357 129 z "},"đ":{"ha":833,"x_min":100,"x_max":833,"o":"m 351 -14 l 351 -14 q 236 -14 168 65 q 100 143 100 278 l 100 278 l 100 401 q 100 536 168 615 q 236 694 351 694 l 351 694 q 436 694 489 652 q 542 610 553 535 l 553 535 l 557 535 l 551 717 l 551 779 l 339 779 l 339 896 l 551 896 l 551 1014 l 725 1014 l 725 896 l 833 896 l 833 779 l 725 779 l 725 0 l 556 0 l 556 146 l 553 146 q 542 69 489 28 q 436 -14 351 -14 z m 413 136 l 413 136 q 479 136 515 176 q 551 215 551 286 l 551 286 l 551 394 q 551 465 515 505 q 479 544 413 544 l 413 544 q 346 544 310 506 q 275 467 275 394 l 275 394 l 275 286 q 275 214 310 175 q 346 136 413 136 z "},"ð":{"ha":833,"x_min":72,"x_max":761,"o":"m 417 -6 l 417 -6 q 313 -6 235 35 q 158 75 115 147 q 72 219 72 315 l 72 315 q 72 407 108 476 q 144 546 209 584 q 274 622 360 622 l 360 622 q 426 622 474 589 q 522 556 540 524 l 540 524 l 553 524 q 551 532 528 569 q 506 607 454 674 l 454 674 l 374 782 l 154 693 l 154 825 l 297 883 l 200 1014 l 396 1014 l 447 943 l 667 1031 l 667 899 l 524 842 l 613 721 q 688 618 724 520 q 761 422 761 332 l 761 332 q 761 229 718 153 q 675 78 598 36 q 521 -6 417 -6 z m 417 142 l 417 142 q 493 142 540 189 q 586 236 586 315 l 586 315 q 586 393 540 440 q 493 488 417 488 l 417 488 q 339 488 293 440 q 247 393 247 315 l 247 315 q 247 236 293 189 q 339 142 417 142 z "},"e":{"ha":833,"x_min":97,"x_max":736,"o":"m 418 -14 l 418 -14 q 321 -14 249 24 q 176 61 137 130 q 97 199 97 292 l 97 292 l 97 472 q 97 565 137 634 q 176 703 249 740 q 321 778 418 778 l 418 778 q 514 778 585 740 q 657 703 697 635 q 736 568 736 478 l 736 478 l 736 339 l 264 339 l 264 286 q 264 208 304 169 q 344 129 418 129 l 418 129 q 472 129 510 148 q 549 167 556 203 l 556 203 l 728 203 q 710 104 625 45 q 540 -14 418 -14 z m 264 478 l 264 478 l 264 451 l 569 453 l 569 479 q 569 558 531 601 q 492 644 418 644 l 418 644 q 342 644 303 601 q 264 557 264 478 z "},"é":{"ha":833,"x_min":97,"x_max":736,"o":"m 418 -14 l 418 -14 q 321 -14 249 24 q 176 61 137 130 q 97 199 97 292 l 97 292 l 97 472 q 97 565 137 634 q 176 703 249 740 q 321 778 418 778 l 418 778 q 514 778 585 740 q 657 703 697 635 q 736 568 736 478 l 736 478 l 736 339 l 264 339 l 264 286 q 264 208 304 169 q 344 129 418 129 l 418 129 q 472 129 510 148 q 549 167 556 203 l 556 203 l 728 203 q 710 104 625 45 q 540 -14 418 -14 z m 264 478 l 264 478 l 264 451 l 569 453 l 569 479 q 569 558 531 601 q 492 644 418 644 l 418 644 q 342 644 303 601 q 264 557 264 478 z m 486 896 l 311 896 l 458 1090 l 644 1090 l 486 896 z "},"ĕ":{"ha":833,"x_min":97,"x_max":736,"o":"m 418 -14 l 418 -14 q 321 -14 249 24 q 176 61 137 130 q 97 199 97 292 l 97 292 l 97 472 q 97 565 137 634 q 176 703 249 740 q 321 778 418 778 l 418 778 q 514 778 585 740 q 657 703 697 635 q 736 568 736 478 l 736 478 l 736 339 l 264 339 l 264 286 q 264 208 304 169 q 344 129 418 129 l 418 129 q 472 129 510 148 q 549 167 556 203 l 556 203 l 728 203 q 710 104 625 45 q 540 -14 418 -14 z m 264 478 l 264 478 l 264 451 l 569 453 l 569 479 q 569 558 531 601 q 492 644 418 644 l 418 644 q 342 644 303 601 q 264 557 264 478 z m 417 885 l 417 885 q 308 885 241 941 q 174 997 174 1090 l 174 1090 l 308 1090 q 308 1044 338 1017 q 368 989 417 989 l 417 989 q 465 989 495 1017 q 525 1044 525 1090 l 525 1090 l 660 1090 q 660 997 593 941 q 526 885 417 885 z "},"ě":{"ha":833,"x_min":97,"x_max":736,"o":"m 418 -14 l 418 -14 q 321 -14 249 24 q 176 61 137 130 q 97 199 97 292 l 97 292 l 97 472 q 97 565 137 634 q 176 703 249 740 q 321 778 418 778 l 418 778 q 514 778 585 740 q 657 703 697 635 q 736 568 736 478 l 736 478 l 736 339 l 264 339 l 264 286 q 264 208 304 169 q 344 129 418 129 l 418 129 q 472 129 510 148 q 549 167 556 203 l 556 203 l 728 203 q 710 104 625 45 q 540 -14 418 -14 z m 264 478 l 264 478 l 264 451 l 569 453 l 569 479 q 569 558 531 601 q 492 644 418 644 l 418 644 q 342 644 303 601 q 264 557 264 478 z m 497 896 l 336 896 l 146 1090 l 313 1090 l 418 989 l 519 1090 l 688 1090 l 497 896 z "},"ê":{"ha":833,"x_min":97,"x_max":736,"o":"m 418 -14 l 418 -14 q 321 -14 249 24 q 176 61 137 130 q 97 199 97 292 l 97 292 l 97 472 q 97 565 137 634 q 176 703 249 740 q 321 778 418 778 l 418 778 q 514 778 585 740 q 657 703 697 635 q 736 568 736 478 l 736 478 l 736 339 l 264 339 l 264 286 q 264 208 304 169 q 344 129 418 129 l 418 129 q 472 129 510 148 q 549 167 556 203 l 556 203 l 728 203 q 710 104 625 45 q 540 -14 418 -14 z m 264 478 l 264 478 l 264 451 l 569 453 l 569 479 q 569 558 531 601 q 492 644 418 644 l 418 644 q 342 644 303 601 q 264 557 264 478 z m 314 896 l 146 896 l 336 1090 l 497 1090 l 688 896 l 521 896 l 415 997 l 314 896 z "},"ế":{"ha":833,"x_min":97,"x_max":917,"o":"m 418 -14 l 418 -14 q 321 -14 249 24 q 176 61 137 130 q 97 199 97 292 l 97 292 l 97 472 q 97 565 137 634 q 176 703 249 740 q 321 778 418 778 l 418 778 q 514 778 585 740 q 657 703 697 635 q 736 568 736 478 l 736 478 l 736 339 l 264 339 l 264 286 q 264 208 304 169 q 344 129 418 129 l 418 129 q 472 129 510 148 q 549 167 556 203 l 556 203 l 728 203 q 710 104 625 45 q 540 -14 418 -14 z m 264 478 l 264 478 l 264 451 l 569 453 l 569 479 q 569 558 531 601 q 492 644 418 644 l 418 644 q 342 644 303 601 q 264 557 264 478 z m 742 1056 l 578 1056 l 742 1250 l 917 1250 l 742 1056 z m 314 896 l 146 896 l 336 1090 l 497 1090 l 688 896 l 519 896 l 417 997 l 314 896 z "},"ệ":{"ha":833,"x_min":97,"x_max":736,"o":"m 418 -14 l 418 -14 q 321 -14 249 24 q 176 61 137 130 q 97 199 97 292 l 97 292 l 97 472 q 97 565 137 634 q 176 703 249 740 q 321 778 418 778 l 418 778 q 514 778 585 740 q 657 703 697 635 q 736 568 736 478 l 736 478 l 736 339 l 264 339 l 264 286 q 264 208 304 169 q 344 129 418 129 l 418 129 q 472 129 510 148 q 549 167 556 203 l 556 203 l 728 203 q 710 104 625 45 q 540 -14 418 -14 z m 264 478 l 264 478 l 264 451 l 569 453 l 569 479 q 569 558 531 601 q 492 644 418 644 l 418 644 q 342 644 303 601 q 264 557 264 478 z m 417 -312 l 417 -312 q 364 -312 333 -285 q 303 -258 303 -212 l 303 -212 q 303 -165 333 -138 q 364 -111 417 -111 l 417 -111 q 469 -111 500 -138 q 531 -165 531 -212 l 531 -212 q 531 -258 500 -285 q 469 -312 417 -312 z m 314 896 l 146 896 l 336 1090 l 497 1090 l 688 896 l 521 896 l 415 997 l 314 896 z "},"ề":{"ha":833,"x_min":97,"x_max":810,"o":"m 418 -14 l 418 -14 q 321 -14 249 24 q 176 61 137 130 q 97 199 97 292 l 97 292 l 97 472 q 97 565 137 634 q 176 703 249 740 q 321 778 418 778 l 418 778 q 514 778 585 740 q 657 703 697 635 q 736 568 736 478 l 736 478 l 736 339 l 264 339 l 264 286 q 264 208 304 169 q 344 129 418 129 l 418 129 q 472 129 510 148 q 549 167 556 203 l 556 203 l 728 203 q 710 104 625 45 q 540 -14 418 -14 z m 264 478 l 264 478 l 264 451 l 569 453 l 569 479 q 569 558 531 601 q 492 644 418 644 l 418 644 q 342 644 303 601 q 264 557 264 478 z m 810 1056 l 646 1056 l 465 1250 l 640 1250 l 810 1056 z m 314 896 l 146 896 l 336 1090 l 497 1090 l 688 896 l 519 896 l 417 997 l 314 896 z "},"ể":{"ha":833,"x_min":97,"x_max":796,"o":"m 418 -14 l 418 -14 q 321 -14 249 24 q 176 61 137 130 q 97 199 97 292 l 97 292 l 97 472 q 97 565 137 634 q 176 703 249 740 q 321 778 418 778 l 418 778 q 514 778 585 740 q 657 703 697 635 q 736 568 736 478 l 736 478 l 736 339 l 264 339 l 264 286 q 264 208 304 169 q 344 129 418 129 l 418 129 q 472 129 510 148 q 549 167 556 203 l 556 203 l 728 203 q 710 104 625 45 q 540 -14 418 -14 z m 264 478 l 264 478 l 264 451 l 569 453 l 569 479 q 569 558 531 601 q 492 644 418 644 l 418 644 q 342 644 303 601 q 264 557 264 478 z m 719 1056 l 588 1056 l 653 1138 q 671 1160 671 1175 l 671 1175 q 671 1203 631 1203 l 631 1203 l 536 1203 l 536 1307 l 653 1307 q 718 1307 757 1276 q 796 1246 796 1194 l 796 1194 q 796 1154 768 1118 l 768 1118 l 719 1056 z m 314 896 l 146 896 l 336 1090 l 497 1090 l 688 896 l 519 896 l 417 997 l 314 896 z "},"ễ":{"ha":833,"x_min":97,"x_max":736,"o":"m 418 -14 l 418 -14 q 321 -14 249 24 q 176 61 137 130 q 97 199 97 292 l 97 292 l 97 472 q 97 565 137 634 q 176 703 249 740 q 321 778 418 778 l 418 778 q 514 778 585 740 q 657 703 697 635 q 736 568 736 478 l 736 478 l 736 339 l 264 339 l 264 286 q 264 208 304 169 q 344 129 418 129 l 418 129 q 472 129 510 148 q 549 167 556 203 l 556 203 l 728 203 q 710 104 625 45 q 540 -14 418 -14 z m 264 478 l 264 478 l 264 451 l 569 453 l 569 479 q 569 558 531 601 q 492 644 418 644 l 418 644 q 342 644 303 601 q 264 557 264 478 z m 511 1139 l 511 1139 q 468 1139 441 1152 q 414 1165 397 1182 q 379 1199 364 1211 q 349 1224 326 1224 l 326 1224 q 285 1224 285 1179 l 285 1179 l 285 1147 l 178 1147 l 178 1179 q 178 1244 217 1284 q 257 1324 322 1324 l 322 1324 q 367 1324 393 1310 q 419 1297 437 1281 q 454 1264 469 1251 q 485 1239 507 1239 l 507 1239 q 549 1239 549 1279 l 549 1279 l 549 1314 l 656 1314 l 656 1283 q 656 1218 616 1178 q 576 1139 511 1139 z m 314 896 l 146 896 l 336 1090 l 497 1090 l 688 896 l 519 896 l 417 997 l 314 896 z "},"ë":{"ha":833,"x_min":97,"x_max":736,"o":"m 418 -14 l 418 -14 q 321 -14 249 24 q 176 61 137 130 q 97 199 97 292 l 97 292 l 97 472 q 97 565 137 634 q 176 703 249 740 q 321 778 418 778 l 418 778 q 514 778 585 740 q 657 703 697 635 q 736 568 736 478 l 736 478 l 736 339 l 264 339 l 264 286 q 264 208 304 169 q 344 129 418 129 l 418 129 q 472 129 510 148 q 549 167 556 203 l 556 203 l 728 203 q 710 104 625 45 q 540 -14 418 -14 z m 264 478 l 264 478 l 264 451 l 569 453 l 569 479 q 569 558 531 601 q 492 644 418 644 l 418 644 q 342 644 303 601 q 264 557 264 478 z m 579 892 l 579 892 q 533 892 506 919 q 478 946 478 992 l 478 992 q 478 1038 506 1065 q 533 1092 579 1092 l 579 1092 q 626 1092 654 1065 q 682 1038 682 992 l 682 992 q 682 946 654 919 q 626 892 579 892 z m 254 892 l 254 892 q 207 892 179 919 q 151 946 151 992 l 151 992 q 151 1038 179 1065 q 207 1092 254 1092 l 254 1092 q 300 1092 328 1065 q 356 1038 356 992 l 356 992 q 356 946 328 919 q 300 892 254 892 z "},"ė":{"ha":833,"x_min":97,"x_max":736,"o":"m 418 -14 l 418 -14 q 321 -14 249 24 q 176 61 137 130 q 97 199 97 292 l 97 292 l 97 472 q 97 565 137 634 q 176 703 249 740 q 321 778 418 778 l 418 778 q 514 778 585 740 q 657 703 697 635 q 736 568 736 478 l 736 478 l 736 339 l 264 339 l 264 286 q 264 208 304 169 q 344 129 418 129 l 418 129 q 472 129 510 148 q 549 167 556 203 l 556 203 l 728 203 q 710 104 625 45 q 540 -14 418 -14 z m 264 478 l 264 478 l 264 451 l 569 453 l 569 479 q 569 558 531 601 q 492 644 418 644 l 418 644 q 342 644 303 601 q 264 557 264 478 z m 417 892 l 417 892 q 364 892 333 919 q 303 946 303 992 l 303 992 q 303 1038 333 1065 q 364 1092 417 1092 l 417 1092 q 469 1092 500 1065 q 531 1038 531 992 l 531 992 q 531 946 500 919 q 469 892 417 892 z "},"ẹ":{"ha":833,"x_min":97,"x_max":736,"o":"m 418 -14 l 418 -14 q 321 -14 249 24 q 176 61 137 130 q 97 199 97 292 l 97 292 l 97 472 q 97 565 137 634 q 176 703 249 740 q 321 778 418 778 l 418 778 q 514 778 585 740 q 657 703 697 635 q 736 568 736 478 l 736 478 l 736 339 l 264 339 l 264 286 q 264 208 304 169 q 344 129 418 129 l 418 129 q 472 129 510 148 q 549 167 556 203 l 556 203 l 728 203 q 710 104 625 45 q 540 -14 418 -14 z m 264 478 l 264 478 l 264 451 l 569 453 l 569 479 q 569 558 531 601 q 492 644 418 644 l 418 644 q 342 644 303 601 q 264 557 264 478 z m 417 -312 l 417 -312 q 364 -312 333 -285 q 303 -258 303 -212 l 303 -212 q 303 -165 333 -138 q 364 -111 417 -111 l 417 -111 q 469 -111 500 -138 q 531 -165 531 -212 l 531 -212 q 531 -258 500 -285 q 469 -312 417 -312 z "},"è":{"ha":833,"x_min":97,"x_max":736,"o":"m 418 -14 l 418 -14 q 321 -14 249 24 q 176 61 137 130 q 97 199 97 292 l 97 292 l 97 472 q 97 565 137 634 q 176 703 249 740 q 321 778 418 778 l 418 778 q 514 778 585 740 q 657 703 697 635 q 736 568 736 478 l 736 478 l 736 339 l 264 339 l 264 286 q 264 208 304 169 q 344 129 418 129 l 418 129 q 472 129 510 148 q 549 167 556 203 l 556 203 l 728 203 q 710 104 625 45 q 540 -14 418 -14 z m 264 478 l 264 478 l 264 451 l 569 453 l 569 479 q 569 558 531 601 q 492 644 418 644 l 418 644 q 342 644 303 601 q 264 557 264 478 z m 525 896 l 346 896 l 185 1090 l 376 1090 l 525 896 z "},"ẻ":{"ha":833,"x_min":97,"x_max":736,"o":"m 418 -14 l 418 -14 q 321 -14 249 24 q 176 61 137 130 q 97 199 97 292 l 97 292 l 97 472 q 97 565 137 634 q 176 703 249 740 q 321 778 418 778 l 418 778 q 514 778 585 740 q 657 703 697 635 q 736 568 736 478 l 736 478 l 736 339 l 264 339 l 264 286 q 264 208 304 169 q 344 129 418 129 l 418 129 q 472 129 510 148 q 549 167 556 203 l 556 203 l 728 203 q 710 104 625 45 q 540 -14 418 -14 z m 264 478 l 264 478 l 264 451 l 569 453 l 569 479 q 569 558 531 601 q 492 644 418 644 l 418 644 q 342 644 303 601 q 264 557 264 478 z m 485 896 l 346 896 l 415 979 q 435 1004 435 1021 l 435 1021 q 435 1047 394 1047 l 394 1047 l 283 1047 l 283 1153 l 429 1153 q 490 1153 527 1122 q 564 1092 564 1040 l 564 1040 q 564 994 536 960 l 536 960 l 485 896 z "},"ē":{"ha":833,"x_min":97,"x_max":736,"o":"m 418 -14 l 418 -14 q 321 -14 249 24 q 176 61 137 130 q 97 199 97 292 l 97 292 l 97 472 q 97 565 137 634 q 176 703 249 740 q 321 778 418 778 l 418 778 q 514 778 585 740 q 657 703 697 635 q 736 568 736 478 l 736 478 l 736 339 l 264 339 l 264 286 q 264 208 304 169 q 344 129 418 129 l 418 129 q 472 129 510 148 q 549 167 556 203 l 556 203 l 728 203 q 710 104 625 45 q 540 -14 418 -14 z m 264 478 l 264 478 l 264 451 l 569 453 l 569 479 q 569 558 531 601 q 492 644 418 644 l 418 644 q 342 644 303 601 q 264 557 264 478 z m 656 918 l 178 918 l 178 1051 l 656 1051 l 656 918 z "},"ę":{"ha":833,"x_min":100,"x_max":733,"o":"m 640 -300 l 507 -300 q 426 -300 378 -260 q 331 -219 331 -157 l 331 -157 q 331 -86 425 -14 l 425 -14 l 418 -14 q 321 -14 249 24 q 178 61 139 128 q 100 196 100 286 l 100 286 l 100 478 q 100 568 139 635 q 178 703 249 740 q 321 778 418 778 l 418 778 q 514 778 585 740 q 657 703 695 635 q 733 568 733 478 l 733 478 l 733 340 l 267 340 l 267 286 q 267 124 419 124 l 419 124 q 538 124 557 203 l 557 203 l 729 203 q 718 147 684 103 q 650 60 601 32 l 601 32 l 550 -14 q 481 -75 481 -121 l 481 -121 q 481 -146 499 -163 q 517 -181 550 -181 l 550 -181 l 640 -181 l 640 -300 z m 267 478 l 267 478 l 267 449 l 567 450 l 567 479 q 567 558 530 601 q 493 643 418 643 l 418 643 q 342 643 304 600 q 267 557 267 478 z "},"ɛ":{"ha":833,"x_min":74,"x_max":778,"o":"m 429 -14 l 429 -14 q 324 -14 244 24 q 164 61 119 128 q 74 194 74 283 l 74 283 q 74 378 126 448 q 179 518 264 535 l 264 535 l 264 539 q 193 553 148 614 q 103 675 103 757 l 103 757 q 103 838 144 899 q 185 960 257 994 q 329 1028 424 1028 l 424 1028 q 521 1028 594 990 q 668 951 709 884 q 750 817 750 728 l 750 728 l 579 728 q 579 796 536 838 q 493 881 425 881 l 425 881 q 360 881 318 842 q 276 804 276 742 l 276 742 q 276 679 318 640 q 360 600 426 600 l 426 600 l 544 600 l 544 453 l 429 453 q 349 453 299 409 q 250 365 250 294 l 250 294 q 250 224 299 180 q 349 136 429 136 l 429 136 q 507 136 556 178 q 606 219 607 286 l 607 286 l 778 286 q 778 197 733 130 q 689 63 610 24 q 532 -14 429 -14 z "},"ẽ":{"ha":833,"x_min":97,"x_max":736,"o":"m 418 -14 l 418 -14 q 321 -14 249 24 q 176 61 137 130 q 97 199 97 292 l 97 292 l 97 472 q 97 565 137 634 q 176 703 249 740 q 321 778 418 778 l 418 778 q 514 778 585 740 q 657 703 697 635 q 736 568 736 478 l 736 478 l 736 339 l 264 339 l 264 286 q 264 208 304 169 q 344 129 418 129 l 418 129 q 472 129 510 148 q 549 167 556 203 l 556 203 l 728 203 q 710 104 625 45 q 540 -14 418 -14 z m 264 478 l 264 478 l 264 451 l 569 453 l 569 479 q 569 558 531 601 q 492 644 418 644 l 418 644 q 342 644 303 601 q 264 557 264 478 z m 514 890 l 514 890 q 471 890 444 904 q 417 918 399 935 q 381 953 365 966 q 349 979 326 979 l 326 979 q 285 979 285 933 l 285 933 l 285 897 l 178 897 l 178 943 q 178 1011 217 1053 q 256 1096 319 1096 l 319 1096 q 363 1096 390 1082 q 417 1068 435 1051 q 453 1033 469 1020 q 485 1007 507 1007 l 507 1007 q 549 1007 549 1050 l 549 1050 l 549 1089 l 656 1089 l 656 1043 q 656 975 617 933 q 578 890 514 890 z "},"ə":{"ha":833,"x_min":100,"x_max":733,"o":"m 415 -14 l 415 -14 q 319 -14 249 24 q 178 61 139 128 q 100 196 100 286 l 100 286 l 100 424 l 565 424 l 565 478 q 565 640 414 640 l 414 640 q 297 640 278 561 l 278 561 l 106 561 q 125 660 209 719 q 293 778 415 778 l 415 778 q 513 778 584 740 q 656 703 694 635 q 733 568 733 478 l 733 478 l 733 286 q 733 196 694 128 q 656 61 584 24 q 513 -14 415 -14 z m 415 122 l 415 122 q 492 122 528 165 q 565 207 565 286 l 565 286 l 565 315 l 268 315 l 268 286 q 268 207 304 165 q 340 122 415 122 z "},"f":{"ha":833,"x_min":68,"x_max":744,"o":"m 451 0 l 278 0 l 278 503 l 68 503 l 68 660 l 278 660 l 278 794 q 278 894 344 954 q 411 1014 521 1014 l 521 1014 l 744 1014 l 744 861 l 525 861 q 492 861 472 842 q 451 824 451 792 l 451 792 l 451 660 l 744 660 l 744 503 l 451 503 l 451 0 z "},"g":{"ha":833,"x_min":100,"x_max":726,"o":"m 429 -250 l 211 -250 l 211 -106 l 426 -106 q 488 -106 521 -73 q 554 -40 554 15 l 554 15 l 554 61 l 557 181 q 533 117 481 81 q 429 46 354 46 l 354 46 q 238 46 169 124 q 100 203 100 338 l 100 338 l 100 486 q 100 619 169 699 q 238 778 354 778 l 354 778 q 429 778 481 742 q 533 707 557 642 l 557 642 l 557 764 l 726 764 l 726 11 q 726 -110 647 -180 q 567 -250 429 -250 l 429 -250 z m 413 194 l 413 194 q 479 194 516 234 q 553 274 553 344 l 553 344 l 553 478 q 553 549 516 588 q 479 628 413 628 l 413 628 q 346 628 310 590 q 274 551 274 483 l 274 483 l 274 339 q 274 271 310 233 q 346 194 413 194 z "},"ǵ":{"ha":833,"x_min":100,"x_max":726,"o":"m 429 -250 l 211 -250 l 211 -106 l 426 -106 q 488 -106 521 -73 q 554 -40 554 15 l 554 15 l 554 61 l 557 181 q 533 117 481 81 q 429 46 354 46 l 354 46 q 238 46 169 124 q 100 203 100 338 l 100 338 l 100 486 q 100 619 169 699 q 238 778 354 778 l 354 778 q 429 778 481 742 q 533 707 557 642 l 557 642 l 557 764 l 726 764 l 726 11 q 726 -110 647 -180 q 567 -250 429 -250 l 429 -250 z m 413 194 l 413 194 q 479 194 516 234 q 553 274 553 344 l 553 344 l 553 478 q 553 549 516 588 q 479 628 413 628 l 413 628 q 346 628 310 590 q 274 551 274 483 l 274 483 l 274 339 q 274 271 310 233 q 346 194 413 194 z m 482 896 l 307 896 l 454 1090 l 640 1090 l 482 896 z "},"ğ":{"ha":833,"x_min":100,"x_max":726,"o":"m 429 -250 l 211 -250 l 211 -106 l 426 -106 q 488 -106 521 -73 q 554 -40 554 15 l 554 15 l 554 61 l 557 181 q 533 117 481 81 q 429 46 354 46 l 354 46 q 238 46 169 124 q 100 203 100 338 l 100 338 l 100 486 q 100 619 169 699 q 238 778 354 778 l 354 778 q 429 778 481 742 q 533 707 557 642 l 557 642 l 557 764 l 726 764 l 726 11 q 726 -110 647 -180 q 567 -250 429 -250 l 429 -250 z m 413 194 l 413 194 q 479 194 516 234 q 553 274 553 344 l 553 344 l 553 478 q 553 549 516 588 q 479 628 413 628 l 413 628 q 346 628 310 590 q 274 551 274 483 l 274 483 l 274 339 q 274 271 310 233 q 346 194 413 194 z m 413 885 l 413 885 q 304 885 237 941 q 169 997 169 1090 l 169 1090 l 304 1090 q 304 1044 334 1017 q 364 989 413 989 l 413 989 q 461 989 491 1017 q 521 1044 521 1090 l 521 1090 l 656 1090 q 656 997 589 941 q 522 885 413 885 z "},"ǧ":{"ha":833,"x_min":100,"x_max":726,"o":"m 429 -250 l 211 -250 l 211 -106 l 426 -106 q 488 -106 521 -73 q 554 -40 554 15 l 554 15 l 554 61 l 557 181 q 533 117 481 81 q 429 46 354 46 l 354 46 q 238 46 169 124 q 100 203 100 338 l 100 338 l 100 486 q 100 619 169 699 q 238 778 354 778 l 354 778 q 429 778 481 742 q 533 707 557 642 l 557 642 l 557 764 l 726 764 l 726 11 q 726 -110 647 -180 q 567 -250 429 -250 l 429 -250 z m 413 194 l 413 194 q 479 194 516 234 q 553 274 553 344 l 553 344 l 553 478 q 553 549 516 588 q 479 628 413 628 l 413 628 q 346 628 310 590 q 274 551 274 483 l 274 483 l 274 339 q 274 271 310 233 q 346 194 413 194 z m 493 896 l 332 896 l 142 1090 l 308 1090 l 414 989 l 515 1090 l 683 1090 l 493 896 z "},"ĝ":{"ha":833,"x_min":100,"x_max":726,"o":"m 429 -250 l 211 -250 l 211 -106 l 426 -106 q 488 -106 521 -73 q 554 -40 554 15 l 554 15 l 554 61 l 557 181 q 533 117 481 81 q 429 46 354 46 l 354 46 q 238 46 169 124 q 100 203 100 338 l 100 338 l 100 486 q 100 619 169 699 q 238 778 354 778 l 354 778 q 429 778 481 742 q 533 707 557 642 l 557 642 l 557 764 l 726 764 l 726 11 q 726 -110 647 -180 q 567 -250 429 -250 l 429 -250 z m 413 194 l 413 194 q 479 194 516 234 q 553 274 553 344 l 553 344 l 553 478 q 553 549 516 588 q 479 628 413 628 l 413 628 q 346 628 310 590 q 274 551 274 483 l 274 483 l 274 339 q 274 271 310 233 q 346 194 413 194 z m 310 896 l 142 896 l 332 1090 l 493 1090 l 683 896 l 517 896 l 411 997 l 310 896 z "},"ģ":{"ha":833,"x_min":100,"x_max":726,"o":"m 429 -250 l 211 -250 l 211 -106 l 426 -106 q 488 -106 521 -73 q 554 -40 554 15 l 554 15 l 554 61 l 557 181 q 533 117 481 81 q 429 46 354 46 l 354 46 q 238 46 169 124 q 100 203 100 338 l 100 338 l 100 486 q 100 619 169 699 q 238 778 354 778 l 354 778 q 429 778 481 742 q 533 707 557 642 l 557 642 l 557 764 l 726 764 l 726 11 q 726 -110 647 -180 q 567 -250 429 -250 l 429 -250 z m 413 194 l 413 194 q 479 194 516 234 q 553 274 553 344 l 553 344 l 553 478 q 553 549 516 588 q 479 628 413 628 l 413 628 q 346 628 310 590 q 274 551 274 483 l 274 483 l 274 339 q 274 271 310 233 q 346 194 413 194 z m 451 1222 l 593 1222 l 482 896 l 271 896 l 451 1222 z "},"ġ":{"ha":833,"x_min":100,"x_max":726,"o":"m 429 -250 l 211 -250 l 211 -106 l 426 -106 q 488 -106 521 -73 q 554 -40 554 15 l 554 15 l 554 61 l 557 181 q 533 117 481 81 q 429 46 354 46 l 354 46 q 238 46 169 124 q 100 203 100 338 l 100 338 l 100 486 q 100 619 169 699 q 238 778 354 778 l 354 778 q 429 778 481 742 q 533 707 557 642 l 557 642 l 557 764 l 726 764 l 726 11 q 726 -110 647 -180 q 567 -250 429 -250 l 429 -250 z m 413 194 l 413 194 q 479 194 516 234 q 553 274 553 344 l 553 344 l 553 478 q 553 549 516 588 q 479 628 413 628 l 413 628 q 346 628 310 590 q 274 551 274 483 l 274 483 l 274 339 q 274 271 310 233 q 346 194 413 194 z m 413 892 l 413 892 q 360 892 329 919 q 299 946 299 992 l 299 992 q 299 1038 329 1065 q 360 1092 413 1092 l 413 1092 q 465 1092 496 1065 q 526 1038 526 992 l 526 992 q 526 946 496 919 q 465 892 413 892 z "},"h":{"ha":833,"x_min":107,"x_max":729,"o":"m 281 0 l 107 0 l 107 1014 l 281 1014 l 281 764 l 276 622 q 290 694 344 736 q 399 778 482 778 l 482 778 q 594 778 662 703 q 729 628 729 501 l 729 501 l 729 0 l 556 0 l 556 481 q 556 551 519 590 q 482 628 419 628 l 419 628 q 354 628 317 589 q 281 550 281 478 l 281 478 l 281 0 z "},"ħ":{"ha":833,"x_min":0,"x_max":729,"o":"m 107 779 l 0 779 l 0 896 l 107 896 l 107 1014 l 281 1014 l 281 896 l 494 896 l 494 779 l 281 779 l 281 681 l 276 535 l 279 535 q 292 610 344 652 q 397 694 482 694 l 482 694 q 594 694 662 619 q 729 544 729 418 l 729 418 l 729 0 l 556 0 l 556 400 q 556 469 519 507 q 482 544 418 544 l 418 544 q 354 544 317 506 q 281 467 281 394 l 281 394 l 281 0 l 107 0 l 107 779 z "},"ĥ":{"ha":833,"x_min":-76,"x_max":729,"o":"m 281 0 l 107 0 l 107 1014 l 281 1014 l 281 764 l 276 622 q 290 694 344 736 q 399 778 482 778 l 482 778 q 594 778 662 703 q 729 628 729 501 l 729 501 l 729 0 l 556 0 l 556 481 q 556 551 519 590 q 482 628 419 628 l 419 628 q 354 628 317 589 q 281 550 281 478 l 281 478 l 281 0 z m 92 1146 l -76 1146 l 114 1340 l 275 1340 l 465 1146 l 299 1146 l 193 1247 l 92 1146 z "},"i":{"ha":833,"x_min":106,"x_max":775,"o":"m 775 0 l 106 0 l 106 157 l 367 157 l 367 607 l 133 607 l 133 764 l 540 764 l 540 157 l 775 157 l 775 0 z m 442 892 l 442 892 q 389 892 358 919 q 328 946 328 992 l 328 992 q 328 1038 358 1065 q 389 1092 442 1092 l 442 1092 q 494 1092 525 1065 q 556 1038 556 992 l 556 992 q 556 946 525 919 q 494 892 442 892 z "},"ı":{"ha":833,"x_min":106,"x_max":775,"o":"m 775 0 l 106 0 l 106 157 l 367 157 l 367 607 l 133 607 l 133 764 l 540 764 l 540 157 l 775 157 l 775 0 z "},"í":{"ha":833,"x_min":106,"x_max":775,"o":"m 775 0 l 106 0 l 106 157 l 367 157 l 367 607 l 133 607 l 133 764 l 540 764 l 540 157 l 775 157 l 775 0 z m 511 896 l 336 896 l 483 1090 l 669 1090 l 511 896 z "},"ĭ":{"ha":833,"x_min":106,"x_max":775,"o":"m 775 0 l 106 0 l 106 157 l 367 157 l 367 607 l 133 607 l 133 764 l 540 764 l 540 157 l 775 157 l 775 0 z m 442 885 l 442 885 q 333 885 266 941 q 199 997 199 1090 l 199 1090 l 333 1090 q 333 1044 363 1017 q 393 989 442 989 l 442 989 q 490 989 520 1017 q 550 1044 550 1090 l 550 1090 l 685 1090 q 685 997 618 941 q 551 885 442 885 z "},"ǐ":{"ha":833,"x_min":106,"x_max":775,"o":"m 775 0 l 106 0 l 106 157 l 367 157 l 367 607 l 133 607 l 133 764 l 540 764 l 540 157 l 775 157 l 775 0 z m 522 896 l 361 896 l 171 1090 l 338 1090 l 443 989 l 544 1090 l 713 1090 l 522 896 z "},"î":{"ha":833,"x_min":106,"x_max":775,"o":"m 775 0 l 106 0 l 106 157 l 367 157 l 367 607 l 133 607 l 133 764 l 540 764 l 540 157 l 775 157 l 775 0 z m 339 896 l 171 896 l 361 1090 l 522 1090 l 713 896 l 546 896 l 440 997 l 339 896 z "},"ï":{"ha":833,"x_min":106,"x_max":775,"o":"m 775 0 l 106 0 l 106 157 l 367 157 l 367 607 l 133 607 l 133 764 l 540 764 l 540 157 l 775 157 l 775 0 z m 604 892 l 604 892 q 558 892 531 919 q 503 946 503 992 l 503 992 q 503 1038 531 1065 q 558 1092 604 1092 l 604 1092 q 651 1092 679 1065 q 707 1038 707 992 l 707 992 q 707 946 679 919 q 651 892 604 892 z m 279 892 l 279 892 q 232 892 204 919 q 176 946 176 992 l 176 992 q 176 1038 204 1065 q 232 1092 279 1092 l 279 1092 q 325 1092 353 1065 q 381 1038 381 992 l 381 992 q 381 946 353 919 q 325 892 279 892 z "},"ị":{"ha":833,"x_min":106,"x_max":775,"o":"m 775 0 l 106 0 l 106 157 l 367 157 l 367 607 l 133 607 l 133 764 l 540 764 l 540 157 l 775 157 l 775 0 z m 442 892 l 442 892 q 389 892 358 919 q 328 946 328 992 l 328 992 q 328 1038 358 1065 q 389 1092 442 1092 l 442 1092 q 494 1092 525 1065 q 556 1038 556 992 l 556 992 q 556 946 525 919 q 494 892 442 892 z m 442 -312 l 442 -312 q 389 -312 358 -285 q 328 -258 328 -212 l 328 -212 q 328 -165 358 -138 q 389 -111 442 -111 l 442 -111 q 494 -111 525 -138 q 556 -165 556 -212 l 556 -212 q 556 -258 525 -285 q 494 -312 442 -312 z "},"ì":{"ha":833,"x_min":106,"x_max":775,"o":"m 775 0 l 106 0 l 106 157 l 367 157 l 367 607 l 133 607 l 133 764 l 540 764 l 540 157 l 775 157 l 775 0 z m 550 896 l 371 896 l 210 1090 l 401 1090 l 550 896 z "},"ỉ":{"ha":833,"x_min":106,"x_max":775,"o":"m 775 0 l 106 0 l 106 157 l 367 157 l 367 607 l 133 607 l 133 764 l 540 764 l 540 157 l 775 157 l 775 0 z m 510 896 l 371 896 l 440 979 q 460 1004 460 1021 l 460 1021 q 460 1047 419 1047 l 419 1047 l 308 1047 l 308 1153 l 454 1153 q 515 1153 552 1122 q 589 1092 589 1040 l 589 1040 q 589 994 561 960 l 561 960 l 510 896 z "},"ī":{"ha":833,"x_min":106,"x_max":775,"o":"m 775 0 l 106 0 l 106 157 l 367 157 l 367 607 l 133 607 l 133 764 l 540 764 l 540 157 l 775 157 l 775 0 z m 681 918 l 203 918 l 203 1051 l 681 1051 l 681 918 z "},"į":{"ha":833,"x_min":106,"x_max":775,"o":"m 442 892 l 442 892 q 389 892 358 919 q 328 946 328 992 l 328 992 q 328 1038 358 1065 q 389 1092 442 1092 l 442 1092 q 494 1092 525 1065 q 556 1038 556 992 l 556 992 q 556 946 525 919 q 494 892 442 892 z m 379 0 l 106 0 l 106 157 l 367 157 l 367 607 l 133 607 l 133 764 l 540 764 l 540 157 l 775 157 l 775 0 l 501 0 l 486 -14 q 415 -75 415 -121 l 415 -121 q 415 -146 433 -163 q 451 -181 485 -181 l 485 -181 l 575 -181 l 575 -300 l 442 -300 q 361 -300 313 -260 q 265 -219 265 -157 l 265 -157 q 265 -71 379 0 l 379 0 z "},"ĩ":{"ha":833,"x_min":106,"x_max":775,"o":"m 775 0 l 106 0 l 106 157 l 367 157 l 367 607 l 133 607 l 133 764 l 540 764 l 540 157 l 775 157 l 775 0 z m 539 890 l 539 890 q 496 890 469 904 q 442 918 424 935 q 406 953 390 966 q 374 979 351 979 l 351 979 q 310 979 310 933 l 310 933 l 310 897 l 203 897 l 203 943 q 203 1011 242 1053 q 281 1096 344 1096 l 344 1096 q 388 1096 415 1082 q 442 1068 460 1051 q 478 1033 494 1020 q 510 1007 532 1007 l 532 1007 q 574 1007 574 1050 l 574 1050 l 574 1089 l 681 1089 l 681 1043 q 681 975 642 933 q 603 890 539 890 z "},"ĳ":{"ha":833,"x_min":103,"x_max":731,"o":"m 217 892 l 217 892 q 164 892 133 919 q 103 946 103 992 l 103 992 q 103 1038 133 1065 q 164 1092 217 1092 l 217 1092 q 269 1092 300 1065 q 331 1038 331 992 l 331 992 q 331 946 300 919 q 269 892 217 892 z m 617 892 l 617 892 q 564 892 533 919 q 503 946 503 992 l 503 992 q 503 1038 533 1065 q 564 1092 617 1092 l 617 1092 q 669 1092 700 1065 q 731 1038 731 992 l 731 992 q 731 946 700 919 q 669 892 617 892 z m 394 -250 l 132 -250 l 132 -93 l 386 -93 q 453 -93 492 -53 q 531 -14 531 54 l 531 54 l 531 764 l 704 764 l 704 50 q 704 -89 621 -169 q 538 -250 394 -250 l 394 -250 z m 306 53 l 132 53 l 132 764 l 306 764 l 306 53 z "},"j":{"ha":833,"x_min":106,"x_max":650,"o":"m 324 -250 l 113 -250 l 113 -93 l 314 -93 q 381 -93 419 -53 q 458 -14 458 54 l 458 54 l 458 607 l 106 607 l 106 764 l 632 764 l 632 50 q 632 -89 549 -169 q 465 -250 324 -250 l 324 -250 z m 536 892 l 536 892 q 483 892 453 919 q 422 946 422 992 l 422 992 q 422 1038 453 1065 q 483 1092 536 1092 l 536 1092 q 589 1092 619 1065 q 650 1038 650 992 l 650 992 q 650 946 619 919 q 589 892 536 892 z "},"ȷ":{"ha":833,"x_min":106,"x_max":632,"o":"m 324 -250 l 113 -250 l 113 -93 l 314 -93 q 381 -93 419 -53 q 458 -14 458 54 l 458 54 l 458 607 l 106 607 l 106 764 l 632 764 l 632 50 q 632 -89 549 -169 q 465 -250 324 -250 l 324 -250 z "},"ĵ":{"ha":833,"x_min":106,"x_max":807,"o":"m 324 -250 l 113 -250 l 113 -93 l 314 -93 q 381 -93 419 -53 q 458 -14 458 54 l 458 54 l 458 607 l 106 607 l 106 764 l 632 764 l 632 50 q 632 -89 549 -169 q 465 -250 324 -250 l 324 -250 z m 433 896 l 265 896 l 456 1090 l 617 1090 l 807 896 l 640 896 l 535 997 l 433 896 z "},"k":{"ha":833,"x_min":114,"x_max":793,"o":"m 288 0 l 114 0 l 114 1014 l 288 1014 l 288 464 l 410 464 l 592 764 l 785 764 l 558 394 l 793 0 l 596 0 l 410 317 l 288 317 l 288 0 z "},"ķ":{"ha":833,"x_min":114,"x_max":793,"o":"m 288 0 l 114 0 l 114 1014 l 288 1014 l 288 464 l 410 464 l 592 764 l 785 764 l 558 394 l 793 0 l 596 0 l 410 317 l 288 317 l 288 0 z m 413 -333 l 251 -333 l 383 -132 l 567 -132 l 413 -333 z "},"ĸ":{"ha":833,"x_min":119,"x_max":800,"o":"m 293 0 l 119 0 l 119 764 l 293 764 l 293 469 l 415 469 l 590 764 l 786 764 l 564 394 l 800 0 l 601 0 l 415 313 l 293 313 l 293 0 z "},"l":{"ha":833,"x_min":38,"x_max":776,"o":"m 776 0 l 540 0 q 426 0 358 68 q 289 136 289 247 l 289 247 l 289 857 l 38 857 l 38 1014 l 463 1014 l 463 251 q 463 208 487 183 q 511 157 553 157 l 553 157 l 776 157 l 776 0 z "},"ĺ":{"ha":833,"x_min":38,"x_max":776,"o":"m 776 0 l 540 0 q 426 0 358 68 q 289 136 289 247 l 289 247 l 289 857 l 38 857 l 38 1014 l 463 1014 l 463 251 q 463 208 487 183 q 511 157 553 157 l 553 157 l 776 157 l 776 0 z m 428 1125 l 253 1125 l 400 1319 l 586 1319 l 428 1125 z "},"ƛ":{"ha":833,"x_min":49,"x_max":785,"o":"m 236 0 l 49 0 l 331 735 l 125 632 l 125 764 l 300 851 l 235 1014 l 418 1014 l 449 926 l 653 1028 l 653 896 l 489 815 l 785 0 l 601 0 l 451 447 q 439 486 431 527 q 422 568 418 593 l 418 593 q 415 568 408 527 q 400 486 388 447 l 388 447 l 236 0 z "},"ľ":{"ha":833,"x_min":38,"x_max":776,"o":"m 776 0 l 540 0 q 426 0 358 68 q 289 136 289 247 l 289 247 l 289 857 l 38 857 l 38 1014 l 463 1014 l 463 251 q 463 208 487 183 q 511 157 553 157 l 553 157 l 776 157 l 776 0 z m 717 764 l 579 764 l 599 1014 l 747 1014 l 717 764 z "},"ļ":{"ha":833,"x_min":38,"x_max":776,"o":"m 776 0 l 540 0 q 426 0 358 68 q 289 136 289 247 l 289 247 l 289 857 l 38 857 l 38 1014 l 463 1014 l 463 251 q 463 208 487 183 q 511 157 553 157 l 553 157 l 776 157 l 776 0 z m 440 -333 l 279 -333 l 411 -132 l 594 -132 l 440 -333 z "},"ŀ":{"ha":833,"x_min":10,"x_max":907,"o":"m 749 0 l 513 0 q 399 0 330 68 q 261 136 261 247 l 261 247 l 261 857 l 10 857 l 10 1014 l 435 1014 l 435 251 q 435 208 459 183 q 483 157 525 157 l 525 157 l 749 157 l 749 0 z m 778 368 l 778 368 q 719 368 684 403 q 649 439 649 496 l 649 496 q 649 553 684 589 q 719 625 778 625 l 778 625 q 836 625 872 589 q 907 553 907 496 l 907 496 q 907 439 872 403 q 836 368 778 368 z "},"ł":{"ha":833,"x_min":38,"x_max":776,"o":"m 289 406 l 139 319 l 139 479 l 289 565 l 289 857 l 38 857 l 38 1014 l 463 1014 l 463 665 l 661 778 l 661 618 l 463 504 l 463 251 q 463 208 487 183 q 511 157 553 157 l 553 157 l 776 157 l 776 0 l 540 0 q 426 0 358 68 q 289 136 289 247 l 289 247 l 289 406 z "},"m":{"ha":833,"x_min":65,"x_max":768,"o":"m 218 0 l 65 0 l 65 764 l 210 764 l 210 653 l 214 653 q 218 708 253 743 q 288 778 340 778 l 340 778 q 392 778 428 745 q 464 713 476 657 l 476 657 q 482 713 517 745 q 553 778 607 778 l 607 778 q 676 778 722 723 q 768 668 768 582 l 768 582 l 768 0 l 615 0 l 615 569 q 615 607 598 628 q 581 650 549 650 l 549 650 q 486 650 486 569 l 486 569 l 486 0 l 347 0 l 347 569 q 347 607 331 628 q 315 650 285 650 l 285 650 q 218 650 218 569 l 218 569 l 218 0 z "},"n":{"ha":833,"x_min":107,"x_max":729,"o":"m 281 0 l 107 0 l 107 764 l 276 764 l 276 621 q 290 693 344 735 q 399 778 482 778 l 482 778 q 594 778 662 703 q 729 628 729 501 l 729 501 l 729 0 l 556 0 l 556 481 q 556 551 519 590 q 482 628 419 628 l 419 628 q 354 628 317 589 q 281 550 281 478 l 281 478 l 281 0 z "},"ń":{"ha":833,"x_min":107,"x_max":729,"o":"m 281 0 l 107 0 l 107 764 l 276 764 l 276 621 q 290 693 344 735 q 399 778 482 778 l 482 778 q 594 778 662 703 q 729 628 729 501 l 729 501 l 729 0 l 556 0 l 556 481 q 556 551 519 590 q 482 628 419 628 l 419 628 q 354 628 317 589 q 281 550 281 478 l 281 478 l 281 0 z m 493 896 l 318 896 l 465 1090 l 651 1090 l 493 896 z "},"ŉ":{"ha":833,"x_min":-26,"x_max":729,"o":"m 281 0 l 107 0 l 107 764 l 276 764 l 276 621 q 290 693 344 735 q 399 778 482 778 l 482 778 q 594 778 662 703 q 729 628 729 501 l 729 501 l 729 0 l 556 0 l 556 481 q 556 551 519 590 q 482 628 419 628 l 419 628 q 354 628 317 589 q 281 550 281 478 l 281 478 l 281 0 z m 135 896 l -26 896 l 106 1097 l 289 1097 l 135 896 z "},"ň":{"ha":833,"x_min":107,"x_max":729,"o":"m 281 0 l 107 0 l 107 764 l 276 764 l 276 621 q 290 693 344 735 q 399 778 482 778 l 482 778 q 594 778 662 703 q 729 628 729 501 l 729 501 l 729 0 l 556 0 l 556 481 q 556 551 519 590 q 482 628 419 628 l 419 628 q 354 628 317 589 q 281 550 281 478 l 281 478 l 281 0 z m 504 896 l 343 896 l 153 1090 l 319 1090 l 425 989 l 526 1090 l 694 1090 l 504 896 z "},"ņ":{"ha":833,"x_min":107,"x_max":729,"o":"m 281 0 l 107 0 l 107 764 l 276 764 l 276 621 q 290 693 344 735 q 399 778 482 778 l 482 778 q 594 778 662 703 q 729 628 729 501 l 729 501 l 729 0 l 556 0 l 556 481 q 556 551 519 590 q 482 628 419 628 l 419 628 q 354 628 317 589 q 281 550 281 478 l 281 478 l 281 0 z m 413 -333 l 251 -333 l 383 -132 l 567 -132 l 413 -333 z "},"ñ":{"ha":833,"x_min":107,"x_max":729,"o":"m 281 0 l 107 0 l 107 764 l 276 764 l 276 621 q 290 693 344 735 q 399 778 482 778 l 482 778 q 594 778 662 703 q 729 628 729 501 l 729 501 l 729 0 l 556 0 l 556 481 q 556 551 519 590 q 482 628 419 628 l 419 628 q 354 628 317 589 q 281 550 281 478 l 281 478 l 281 0 z m 521 890 l 521 890 q 478 890 451 904 q 424 918 406 935 q 388 953 372 966 q 356 979 333 979 l 333 979 q 292 979 292 933 l 292 933 l 292 897 l 185 897 l 185 943 q 185 1011 224 1053 q 263 1096 326 1096 l 326 1096 q 369 1096 397 1082 q 424 1068 442 1051 q 460 1033 476 1020 q 492 1007 514 1007 l 514 1007 q 556 1007 556 1050 l 556 1050 l 556 1089 l 663 1089 l 663 1043 q 663 975 624 933 q 585 890 521 890 z "},"ŋ":{"ha":833,"x_min":108,"x_max":728,"o":"m 415 -250 l 339 -250 l 339 -85 l 424 -85 q 485 -85 519 -51 q 554 -18 554 42 l 554 42 l 554 483 q 554 553 518 590 q 482 628 418 628 l 418 628 q 354 628 318 589 q 282 550 282 478 l 282 478 l 282 0 l 108 0 l 108 764 l 278 764 l 278 618 l 281 618 q 292 693 344 735 q 397 778 482 778 l 482 778 q 594 778 661 703 q 728 628 728 501 l 728 501 l 728 29 q 728 -54 688 -117 q 649 -179 578 -215 q 508 -250 415 -250 l 415 -250 z "},"o":{"ha":833,"x_min":97,"x_max":736,"o":"m 417 -12 l 417 -12 q 269 -12 183 70 q 97 153 97 293 l 97 293 l 97 471 q 97 613 183 694 q 269 776 417 776 l 417 776 q 564 776 650 694 q 736 613 736 471 l 736 471 l 736 293 q 736 153 650 70 q 564 -12 417 -12 z m 417 139 l 417 139 q 486 139 524 177 q 563 215 563 288 l 563 288 l 563 476 q 563 549 524 587 q 486 625 417 625 l 417 625 q 347 625 309 587 q 271 549 271 476 l 271 476 l 271 288 q 271 215 309 177 q 347 139 417 139 z "},"ó":{"ha":833,"x_min":97,"x_max":736,"o":"m 417 -12 l 417 -12 q 269 -12 183 70 q 97 153 97 293 l 97 293 l 97 471 q 97 613 183 694 q 269 776 417 776 l 417 776 q 564 776 650 694 q 736 613 736 471 l 736 471 l 736 293 q 736 153 650 70 q 564 -12 417 -12 z m 417 139 l 417 139 q 486 139 524 177 q 563 215 563 288 l 563 288 l 563 476 q 563 549 524 587 q 486 625 417 625 l 417 625 q 347 625 309 587 q 271 549 271 476 l 271 476 l 271 288 q 271 215 309 177 q 347 139 417 139 z m 486 896 l 311 896 l 458 1090 l 644 1090 l 486 896 z "},"ŏ":{"ha":833,"x_min":97,"x_max":736,"o":"m 417 -12 l 417 -12 q 269 -12 183 70 q 97 153 97 293 l 97 293 l 97 471 q 97 613 183 694 q 269 776 417 776 l 417 776 q 564 776 650 694 q 736 613 736 471 l 736 471 l 736 293 q 736 153 650 70 q 564 -12 417 -12 z m 417 139 l 417 139 q 486 139 524 177 q 563 215 563 288 l 563 288 l 563 476 q 563 549 524 587 q 486 625 417 625 l 417 625 q 347 625 309 587 q 271 549 271 476 l 271 476 l 271 288 q 271 215 309 177 q 347 139 417 139 z m 417 885 l 417 885 q 308 885 241 941 q 174 997 174 1090 l 174 1090 l 308 1090 q 308 1044 338 1017 q 368 989 417 989 l 417 989 q 465 989 495 1017 q 525 1044 525 1090 l 525 1090 l 660 1090 q 660 997 593 941 q 526 885 417 885 z "},"ǒ":{"ha":833,"x_min":97,"x_max":736,"o":"m 417 -12 l 417 -12 q 269 -12 183 70 q 97 153 97 293 l 97 293 l 97 471 q 97 613 183 694 q 269 776 417 776 l 417 776 q 564 776 650 694 q 736 613 736 471 l 736 471 l 736 293 q 736 153 650 70 q 564 -12 417 -12 z m 417 139 l 417 139 q 486 139 524 177 q 563 215 563 288 l 563 288 l 563 476 q 563 549 524 587 q 486 625 417 625 l 417 625 q 347 625 309 587 q 271 549 271 476 l 271 476 l 271 288 q 271 215 309 177 q 347 139 417 139 z m 497 896 l 336 896 l 146 1090 l 313 1090 l 418 989 l 519 1090 l 688 1090 l 497 896 z "},"ô":{"ha":833,"x_min":97,"x_max":736,"o":"m 417 -12 l 417 -12 q 269 -12 183 70 q 97 153 97 293 l 97 293 l 97 471 q 97 613 183 694 q 269 776 417 776 l 417 776 q 564 776 650 694 q 736 613 736 471 l 736 471 l 736 293 q 736 153 650 70 q 564 -12 417 -12 z m 417 139 l 417 139 q 486 139 524 177 q 563 215 563 288 l 563 288 l 563 476 q 563 549 524 587 q 486 625 417 625 l 417 625 q 347 625 309 587 q 271 549 271 476 l 271 476 l 271 288 q 271 215 309 177 q 347 139 417 139 z m 314 896 l 146 896 l 336 1090 l 497 1090 l 688 896 l 521 896 l 415 997 l 314 896 z "},"ố":{"ha":833,"x_min":97,"x_max":917,"o":"m 417 -12 l 417 -12 q 269 -12 183 70 q 97 153 97 293 l 97 293 l 97 471 q 97 613 183 694 q 269 776 417 776 l 417 776 q 564 776 650 694 q 736 613 736 471 l 736 471 l 736 293 q 736 153 650 70 q 564 -12 417 -12 z m 417 139 l 417 139 q 486 139 524 177 q 563 215 563 288 l 563 288 l 563 476 q 563 549 524 587 q 486 625 417 625 l 417 625 q 347 625 309 587 q 271 549 271 476 l 271 476 l 271 288 q 271 215 309 177 q 347 139 417 139 z m 742 1056 l 578 1056 l 742 1250 l 917 1250 l 742 1056 z m 314 896 l 146 896 l 336 1090 l 497 1090 l 688 896 l 519 896 l 417 997 l 314 896 z "},"ộ":{"ha":833,"x_min":97,"x_max":736,"o":"m 417 -12 l 417 -12 q 269 -12 183 70 q 97 153 97 293 l 97 293 l 97 471 q 97 613 183 694 q 269 776 417 776 l 417 776 q 564 776 650 694 q 736 613 736 471 l 736 471 l 736 293 q 736 153 650 70 q 564 -12 417 -12 z m 417 139 l 417 139 q 486 139 524 177 q 563 215 563 288 l 563 288 l 563 476 q 563 549 524 587 q 486 625 417 625 l 417 625 q 347 625 309 587 q 271 549 271 476 l 271 476 l 271 288 q 271 215 309 177 q 347 139 417 139 z m 417 -312 l 417 -312 q 364 -312 333 -285 q 303 -258 303 -212 l 303 -212 q 303 -165 333 -138 q 364 -111 417 -111 l 417 -111 q 469 -111 500 -138 q 531 -165 531 -212 l 531 -212 q 531 -258 500 -285 q 469 -312 417 -312 z m 314 896 l 146 896 l 336 1090 l 497 1090 l 688 896 l 521 896 l 415 997 l 314 896 z "},"ồ":{"ha":833,"x_min":97,"x_max":810,"o":"m 417 -12 l 417 -12 q 269 -12 183 70 q 97 153 97 293 l 97 293 l 97 471 q 97 613 183 694 q 269 776 417 776 l 417 776 q 564 776 650 694 q 736 613 736 471 l 736 471 l 736 293 q 736 153 650 70 q 564 -12 417 -12 z m 417 139 l 417 139 q 486 139 524 177 q 563 215 563 288 l 563 288 l 563 476 q 563 549 524 587 q 486 625 417 625 l 417 625 q 347 625 309 587 q 271 549 271 476 l 271 476 l 271 288 q 271 215 309 177 q 347 139 417 139 z m 810 1056 l 646 1056 l 465 1250 l 640 1250 l 810 1056 z m 314 896 l 146 896 l 336 1090 l 497 1090 l 688 896 l 519 896 l 417 997 l 314 896 z "},"ổ":{"ha":833,"x_min":97,"x_max":796,"o":"m 417 -12 l 417 -12 q 269 -12 183 70 q 97 153 97 293 l 97 293 l 97 471 q 97 613 183 694 q 269 776 417 776 l 417 776 q 564 776 650 694 q 736 613 736 471 l 736 471 l 736 293 q 736 153 650 70 q 564 -12 417 -12 z m 417 139 l 417 139 q 486 139 524 177 q 563 215 563 288 l 563 288 l 563 476 q 563 549 524 587 q 486 625 417 625 l 417 625 q 347 625 309 587 q 271 549 271 476 l 271 476 l 271 288 q 271 215 309 177 q 347 139 417 139 z m 719 1056 l 588 1056 l 653 1138 q 671 1160 671 1175 l 671 1175 q 671 1203 631 1203 l 631 1203 l 536 1203 l 536 1307 l 653 1307 q 718 1307 757 1276 q 796 1246 796 1194 l 796 1194 q 796 1154 768 1118 l 768 1118 l 719 1056 z m 314 896 l 146 896 l 336 1090 l 497 1090 l 688 896 l 519 896 l 417 997 l 314 896 z "},"ỗ":{"ha":833,"x_min":97,"x_max":736,"o":"m 417 -12 l 417 -12 q 269 -12 183 70 q 97 153 97 293 l 97 293 l 97 471 q 97 613 183 694 q 269 776 417 776 l 417 776 q 564 776 650 694 q 736 613 736 471 l 736 471 l 736 293 q 736 153 650 70 q 564 -12 417 -12 z m 417 139 l 417 139 q 486 139 524 177 q 563 215 563 288 l 563 288 l 563 476 q 563 549 524 587 q 486 625 417 625 l 417 625 q 347 625 309 587 q 271 549 271 476 l 271 476 l 271 288 q 271 215 309 177 q 347 139 417 139 z m 511 1139 l 511 1139 q 468 1139 441 1152 q 414 1165 397 1182 q 379 1199 364 1211 q 349 1224 326 1224 l 326 1224 q 285 1224 285 1179 l 285 1179 l 285 1147 l 178 1147 l 178 1179 q 178 1244 217 1284 q 257 1324 322 1324 l 322 1324 q 367 1324 393 1310 q 419 1297 437 1281 q 454 1264 469 1251 q 485 1239 507 1239 l 507 1239 q 549 1239 549 1279 l 549 1279 l 549 1314 l 656 1314 l 656 1283 q 656 1218 616 1178 q 576 1139 511 1139 z m 314 896 l 146 896 l 336 1090 l 497 1090 l 688 896 l 519 896 l 417 997 l 314 896 z "},"ö":{"ha":833,"x_min":97,"x_max":736,"o":"m 417 -12 l 417 -12 q 269 -12 183 70 q 97 153 97 293 l 97 293 l 97 471 q 97 613 183 694 q 269 776 417 776 l 417 776 q 564 776 650 694 q 736 613 736 471 l 736 471 l 736 293 q 736 153 650 70 q 564 -12 417 -12 z m 417 139 l 417 139 q 486 139 524 177 q 563 215 563 288 l 563 288 l 563 476 q 563 549 524 587 q 486 625 417 625 l 417 625 q 347 625 309 587 q 271 549 271 476 l 271 476 l 271 288 q 271 215 309 177 q 347 139 417 139 z m 579 892 l 579 892 q 533 892 506 919 q 478 946 478 992 l 478 992 q 478 1038 506 1065 q 533 1092 579 1092 l 579 1092 q 626 1092 654 1065 q 682 1038 682 992 l 682 992 q 682 946 654 919 q 626 892 579 892 z m 254 892 l 254 892 q 207 892 179 919 q 151 946 151 992 l 151 992 q 151 1038 179 1065 q 207 1092 254 1092 l 254 1092 q 300 1092 328 1065 q 356 1038 356 992 l 356 992 q 356 946 328 919 q 300 892 254 892 z "},"ọ":{"ha":833,"x_min":97,"x_max":736,"o":"m 417 -12 l 417 -12 q 269 -12 183 70 q 97 153 97 293 l 97 293 l 97 471 q 97 613 183 694 q 269 776 417 776 l 417 776 q 564 776 650 694 q 736 613 736 471 l 736 471 l 736 293 q 736 153 650 70 q 564 -12 417 -12 z m 417 139 l 417 139 q 486 139 524 177 q 563 215 563 288 l 563 288 l 563 476 q 563 549 524 587 q 486 625 417 625 l 417 625 q 347 625 309 587 q 271 549 271 476 l 271 476 l 271 288 q 271 215 309 177 q 347 139 417 139 z m 417 -312 l 417 -312 q 364 -312 333 -285 q 303 -258 303 -212 l 303 -212 q 303 -165 333 -138 q 364 -111 417 -111 l 417 -111 q 469 -111 500 -138 q 531 -165 531 -212 l 531 -212 q 531 -258 500 -285 q 469 -312 417 -312 z "},"ò":{"ha":833,"x_min":97,"x_max":736,"o":"m 417 -12 l 417 -12 q 269 -12 183 70 q 97 153 97 293 l 97 293 l 97 471 q 97 613 183 694 q 269 776 417 776 l 417 776 q 564 776 650 694 q 736 613 736 471 l 736 471 l 736 293 q 736 153 650 70 q 564 -12 417 -12 z m 417 139 l 417 139 q 486 139 524 177 q 563 215 563 288 l 563 288 l 563 476 q 563 549 524 587 q 486 625 417 625 l 417 625 q 347 625 309 587 q 271 549 271 476 l 271 476 l 271 288 q 271 215 309 177 q 347 139 417 139 z m 525 896 l 346 896 l 185 1090 l 376 1090 l 525 896 z "},"ỏ":{"ha":833,"x_min":97,"x_max":736,"o":"m 417 -12 l 417 -12 q 269 -12 183 70 q 97 153 97 293 l 97 293 l 97 471 q 97 613 183 694 q 269 776 417 776 l 417 776 q 564 776 650 694 q 736 613 736 471 l 736 471 l 736 293 q 736 153 650 70 q 564 -12 417 -12 z m 417 139 l 417 139 q 486 139 524 177 q 563 215 563 288 l 563 288 l 563 476 q 563 549 524 587 q 486 625 417 625 l 417 625 q 347 625 309 587 q 271 549 271 476 l 271 476 l 271 288 q 271 215 309 177 q 347 139 417 139 z m 485 896 l 346 896 l 415 979 q 435 1004 435 1021 l 435 1021 q 435 1047 394 1047 l 394 1047 l 283 1047 l 283 1153 l 429 1153 q 490 1153 527 1122 q 564 1092 564 1040 l 564 1040 q 564 994 536 960 l 536 960 l 485 896 z "},"ơ":{"ha":833,"x_min":97,"x_max":782,"o":"m 417 -12 l 417 -12 q 269 -12 183 70 q 97 153 97 293 l 97 293 l 97 471 q 97 613 183 694 q 269 776 417 776 l 417 776 q 518 776 593 736 l 593 736 l 593 736 q 642 736 642 785 l 642 785 l 642 889 l 782 889 l 782 782 q 782 732 759 694 q 736 657 696 636 l 696 636 q 736 567 736 471 l 736 471 l 736 293 q 736 153 650 70 q 564 -12 417 -12 z m 417 139 l 417 139 q 486 139 524 177 q 563 215 563 288 l 563 288 l 563 476 q 563 549 524 587 q 486 625 417 625 l 417 625 q 347 625 309 587 q 271 549 271 476 l 271 476 l 271 288 q 271 215 309 177 q 347 139 417 139 z "},"ớ":{"ha":833,"x_min":97,"x_max":782,"o":"m 417 -12 l 417 -12 q 269 -12 183 70 q 97 153 97 293 l 97 293 l 97 471 q 97 613 183 694 q 269 776 417 776 l 417 776 q 518 776 593 736 l 593 736 l 593 736 q 642 736 642 785 l 642 785 l 642 889 l 782 889 l 782 782 q 782 732 759 694 q 736 657 696 636 l 696 636 q 736 567 736 471 l 736 471 l 736 293 q 736 153 650 70 q 564 -12 417 -12 z m 417 139 l 417 139 q 486 139 524 177 q 563 215 563 288 l 563 288 l 563 476 q 563 549 524 587 q 486 625 417 625 l 417 625 q 347 625 309 587 q 271 549 271 476 l 271 476 l 271 288 q 271 215 309 177 q 347 139 417 139 z m 472 896 l 297 896 l 444 1090 l 631 1090 l 472 896 z "},"ợ":{"ha":833,"x_min":97,"x_max":782,"o":"m 417 -12 l 417 -12 q 269 -12 183 70 q 97 153 97 293 l 97 293 l 97 471 q 97 613 183 694 q 269 776 417 776 l 417 776 q 518 776 593 736 l 593 736 l 593 736 q 642 736 642 785 l 642 785 l 642 889 l 782 889 l 782 782 q 782 732 759 694 q 736 657 696 636 l 696 636 q 736 567 736 471 l 736 471 l 736 293 q 736 153 650 70 q 564 -12 417 -12 z m 417 139 l 417 139 q 486 139 524 177 q 563 215 563 288 l 563 288 l 563 476 q 563 549 524 587 q 486 625 417 625 l 417 625 q 347 625 309 587 q 271 549 271 476 l 271 476 l 271 288 q 271 215 309 177 q 347 139 417 139 z m 417 -312 l 417 -312 q 364 -312 333 -285 q 303 -258 303 -212 l 303 -212 q 303 -165 333 -138 q 364 -111 417 -111 l 417 -111 q 469 -111 500 -138 q 531 -165 531 -212 l 531 -212 q 531 -258 500 -285 q 469 -312 417 -312 z "},"ờ":{"ha":833,"x_min":97,"x_max":782,"o":"m 417 -12 l 417 -12 q 269 -12 183 70 q 97 153 97 293 l 97 293 l 97 471 q 97 613 183 694 q 269 776 417 776 l 417 776 q 518 776 593 736 l 593 736 l 593 736 q 642 736 642 785 l 642 785 l 642 889 l 782 889 l 782 782 q 782 732 759 694 q 736 657 696 636 l 696 636 q 736 567 736 471 l 736 471 l 736 293 q 736 153 650 70 q 564 -12 417 -12 z m 417 139 l 417 139 q 486 139 524 177 q 563 215 563 288 l 563 288 l 563 476 q 563 549 524 587 q 486 625 417 625 l 417 625 q 347 625 309 587 q 271 549 271 476 l 271 476 l 271 288 q 271 215 309 177 q 347 139 417 139 z m 511 896 l 332 896 l 171 1090 l 363 1090 l 511 896 z "},"ở":{"ha":833,"x_min":97,"x_max":782,"o":"m 417 -12 l 417 -12 q 269 -12 183 70 q 97 153 97 293 l 97 293 l 97 471 q 97 613 183 694 q 269 776 417 776 l 417 776 q 518 776 593 736 l 593 736 l 593 736 q 642 736 642 785 l 642 785 l 642 889 l 782 889 l 782 782 q 782 732 759 694 q 736 657 696 636 l 696 636 q 736 567 736 471 l 736 471 l 736 293 q 736 153 650 70 q 564 -12 417 -12 z m 417 139 l 417 139 q 486 139 524 177 q 563 215 563 288 l 563 288 l 563 476 q 563 549 524 587 q 486 625 417 625 l 417 625 q 347 625 309 587 q 271 549 271 476 l 271 476 l 271 288 q 271 215 309 177 q 347 139 417 139 z m 471 896 l 332 896 l 401 979 q 421 1004 421 1021 l 421 1021 q 421 1047 381 1047 l 381 1047 l 269 1047 l 269 1153 l 415 1153 q 476 1153 513 1122 q 550 1092 550 1040 l 550 1040 q 550 994 522 960 l 522 960 l 471 896 z "},"ỡ":{"ha":833,"x_min":97,"x_max":782,"o":"m 417 -12 l 417 -12 q 269 -12 183 70 q 97 153 97 293 l 97 293 l 97 471 q 97 613 183 694 q 269 776 417 776 l 417 776 q 518 776 593 736 l 593 736 l 593 736 q 642 736 642 785 l 642 785 l 642 889 l 782 889 l 782 782 q 782 732 759 694 q 736 657 696 636 l 696 636 q 736 567 736 471 l 736 471 l 736 293 q 736 153 650 70 q 564 -12 417 -12 z m 417 139 l 417 139 q 486 139 524 177 q 563 215 563 288 l 563 288 l 563 476 q 563 549 524 587 q 486 625 417 625 l 417 625 q 347 625 309 587 q 271 549 271 476 l 271 476 l 271 288 q 271 215 309 177 q 347 139 417 139 z m 500 890 l 500 890 q 457 890 430 904 q 403 918 385 935 q 367 953 351 966 q 335 979 313 979 l 313 979 q 271 979 271 933 l 271 933 l 271 897 l 164 897 l 164 943 q 164 1011 203 1053 q 242 1096 306 1096 l 306 1096 q 349 1096 376 1082 q 403 1068 421 1051 q 439 1033 455 1020 q 471 1007 493 1007 l 493 1007 q 535 1007 535 1050 l 535 1050 l 535 1089 l 642 1089 l 642 1043 q 642 975 603 933 q 564 890 500 890 z "},"ő":{"ha":833,"x_min":97,"x_max":768,"o":"m 417 -12 l 417 -12 q 269 -12 183 70 q 97 153 97 293 l 97 293 l 97 471 q 97 613 183 694 q 269 776 417 776 l 417 776 q 564 776 650 694 q 736 613 736 471 l 736 471 l 736 293 q 736 153 650 70 q 564 -12 417 -12 z m 417 139 l 417 139 q 486 139 524 177 q 563 215 563 288 l 563 288 l 563 476 q 563 549 524 587 q 486 625 417 625 l 417 625 q 347 625 309 587 q 271 549 271 476 l 271 476 l 271 288 q 271 215 309 177 q 347 139 417 139 z m 608 896 l 450 896 l 599 1090 l 768 1090 l 608 896 z m 328 896 l 169 896 l 319 1090 l 488 1090 l 328 896 z "},"ō":{"ha":833,"x_min":97,"x_max":736,"o":"m 417 -12 l 417 -12 q 269 -12 183 70 q 97 153 97 293 l 97 293 l 97 471 q 97 613 183 694 q 269 776 417 776 l 417 776 q 564 776 650 694 q 736 613 736 471 l 736 471 l 736 293 q 736 153 650 70 q 564 -12 417 -12 z m 417 139 l 417 139 q 486 139 524 177 q 563 215 563 288 l 563 288 l 563 476 q 563 549 524 587 q 486 625 417 625 l 417 625 q 347 625 309 587 q 271 549 271 476 l 271 476 l 271 288 q 271 215 309 177 q 347 139 417 139 z m 656 918 l 178 918 l 178 1051 l 656 1051 l 656 918 z "},"ǫ":{"ha":833,"x_min":100,"x_max":733,"o":"m 639 -300 l 506 -300 q 425 -300 377 -260 q 329 -219 329 -157 l 329 -157 q 329 -122 353 -87 q 376 -51 426 -12 l 426 -12 q 421 -14 417 -14 l 417 -14 q 271 -14 185 67 q 100 149 100 286 l 100 286 l 100 478 q 100 615 185 697 q 271 778 417 778 l 417 778 q 563 778 648 697 q 733 615 733 479 l 733 479 l 733 286 q 733 204 700 140 q 667 76 608 38 l 608 38 l 549 -14 q 479 -72 479 -121 l 479 -121 q 479 -146 497 -163 q 515 -181 549 -181 l 549 -181 l 639 -181 l 639 -300 z m 417 138 l 417 138 q 486 138 523 176 q 560 214 560 286 l 560 286 l 560 478 q 560 550 523 588 q 486 626 417 626 l 417 626 q 347 626 310 588 q 274 550 274 478 l 274 478 l 274 286 q 274 214 310 176 q 347 138 417 138 z "},"ø":{"ha":833,"x_min":40,"x_max":793,"o":"m 186 -42 l 40 -42 l 149 111 q 100 183 100 286 l 100 286 l 100 478 q 100 615 185 697 q 271 778 417 778 l 417 778 q 517 778 590 739 l 590 739 l 647 819 l 793 819 l 681 660 q 733 585 733 479 l 733 479 l 733 286 q 733 149 648 67 q 563 -14 417 -14 l 417 -14 q 313 -14 236 29 l 236 29 l 186 -42 z m 263 478 l 263 286 q 263 286 263 285 q 263 283 263 274 l 263 274 l 499 608 q 464 626 417 626 l 417 626 q 343 626 303 587 q 263 547 263 478 l 263 478 z m 417 138 l 417 138 q 490 138 531 177 q 571 217 571 286 l 571 286 l 571 478 q 571 492 569 503 l 569 503 l 328 158 q 364 138 417 138 z "},"ǿ":{"ha":833,"x_min":40,"x_max":793,"o":"m 186 -42 l 40 -42 l 149 111 q 100 183 100 286 l 100 286 l 100 478 q 100 615 185 697 q 271 778 417 778 l 417 778 q 517 778 590 739 l 590 739 l 647 819 l 793 819 l 681 660 q 733 585 733 479 l 733 479 l 733 286 q 733 149 648 67 q 563 -14 417 -14 l 417 -14 q 313 -14 236 29 l 236 29 l 186 -42 z m 263 478 l 263 286 q 263 286 263 285 q 263 283 263 274 l 263 274 l 499 608 q 464 626 417 626 l 417 626 q 343 626 303 587 q 263 547 263 478 l 263 478 z m 417 138 l 417 138 q 490 138 531 177 q 571 217 571 286 l 571 286 l 571 478 q 571 492 569 503 l 569 503 l 328 158 q 364 138 417 138 z m 486 896 l 311 896 l 458 1090 l 644 1090 l 486 896 z "},"õ":{"ha":833,"x_min":97,"x_max":736,"o":"m 417 -12 l 417 -12 q 269 -12 183 70 q 97 153 97 293 l 97 293 l 97 471 q 97 613 183 694 q 269 776 417 776 l 417 776 q 564 776 650 694 q 736 613 736 471 l 736 471 l 736 293 q 736 153 650 70 q 564 -12 417 -12 z m 417 139 l 417 139 q 486 139 524 177 q 563 215 563 288 l 563 288 l 563 476 q 563 549 524 587 q 486 625 417 625 l 417 625 q 347 625 309 587 q 271 549 271 476 l 271 476 l 271 288 q 271 215 309 177 q 347 139 417 139 z m 514 890 l 514 890 q 471 890 444 904 q 417 918 399 935 q 381 953 365 966 q 349 979 326 979 l 326 979 q 285 979 285 933 l 285 933 l 285 897 l 178 897 l 178 943 q 178 1011 217 1053 q 256 1096 319 1096 l 319 1096 q 363 1096 390 1082 q 417 1068 435 1051 q 453 1033 469 1020 q 485 1007 507 1007 l 507 1007 q 549 1007 549 1050 l 549 1050 l 549 1089 l 656 1089 l 656 1043 q 656 975 617 933 q 578 890 514 890 z "},"œ":{"ha":833,"x_min":49,"x_max":785,"o":"m 250 -14 l 250 -14 q 158 -14 103 44 q 49 103 49 200 l 49 200 l 49 564 q 49 661 103 719 q 158 778 250 778 l 250 778 q 303 778 338 760 q 372 743 390 718 q 408 693 413 671 l 413 671 l 421 671 q 424 693 442 718 q 460 743 494 760 q 529 778 583 778 l 583 778 q 675 778 730 719 q 785 661 785 564 l 785 564 l 785 347 l 488 347 l 488 200 q 488 158 508 134 q 529 110 564 110 l 564 110 q 597 110 617 130 q 638 150 640 186 l 640 186 l 783 186 q 778 94 723 40 q 668 -14 583 -14 l 583 -14 q 529 -14 494 3 q 460 21 442 46 q 424 71 421 93 l 421 93 l 413 93 q 408 71 390 46 q 372 21 338 3 q 303 -14 250 -14 z m 269 110 l 269 110 q 306 110 326 133 q 346 157 346 200 l 346 200 l 346 564 q 346 607 326 631 q 306 654 269 654 l 269 654 q 233 654 213 630 q 192 606 192 564 l 192 564 l 192 200 q 192 158 213 134 q 233 110 269 110 z m 488 564 l 488 454 l 642 454 l 642 564 q 642 607 622 631 q 601 654 564 654 l 564 654 q 529 654 508 630 q 488 606 488 564 l 488 564 z "},"p":{"ha":833,"x_min":107,"x_max":735,"o":"m 281 -250 l 107 -250 l 107 764 l 276 764 l 276 624 q 297 696 351 737 q 406 778 486 778 l 486 778 q 560 778 616 742 q 672 706 703 640 q 735 574 735 486 l 735 486 l 735 279 q 735 147 667 67 q 599 -14 486 -14 l 486 -14 q 406 -14 351 28 q 296 69 275 144 l 275 144 l 281 -36 l 281 -250 z m 421 136 l 421 136 q 488 136 524 172 q 561 208 561 283 l 561 283 l 561 481 q 561 556 524 592 q 488 628 421 628 l 421 628 q 354 628 317 588 q 281 547 281 474 l 281 474 l 281 290 q 281 217 317 176 q 354 136 421 136 z "},"þ":{"ha":833,"x_min":104,"x_max":732,"o":"m 274 -236 l 104 -236 l 104 1014 l 278 1014 l 278 800 l 272 625 q 293 697 348 738 q 403 778 482 778 l 482 778 q 596 778 664 699 q 732 619 732 485 l 732 485 l 732 278 q 732 144 663 65 q 594 -14 482 -14 l 482 -14 q 403 -14 349 26 q 294 67 274 139 l 274 139 l 274 -236 z m 418 136 l 418 136 q 485 136 522 172 q 558 208 558 283 l 558 283 l 558 481 q 558 556 522 592 q 485 628 418 628 l 418 628 q 351 628 315 588 q 278 547 278 474 l 278 474 l 278 290 q 278 217 315 176 q 351 136 418 136 z "},"q":{"ha":833,"x_min":99,"x_max":726,"o":"m 726 -250 l 553 -250 l 553 -36 l 558 138 l 557 138 q 535 67 481 26 q 426 -14 347 -14 l 347 -14 q 235 -14 167 65 q 99 144 99 279 l 99 279 l 99 486 q 99 619 167 699 q 236 778 347 778 l 347 778 q 428 778 482 738 q 536 697 557 625 l 557 625 l 557 764 l 726 764 l 726 -250 z m 413 136 l 413 136 q 479 136 516 176 q 553 217 553 290 l 553 290 l 553 474 q 553 547 516 588 q 479 628 413 628 l 413 628 q 346 628 309 592 q 272 556 272 483 l 272 483 l 272 281 q 272 208 309 172 q 346 136 413 136 z "},"r":{"ha":833,"x_min":135,"x_max":763,"o":"m 308 0 l 135 0 l 135 764 l 304 764 l 304 615 q 318 690 373 734 q 428 778 515 778 l 515 778 q 632 778 697 703 q 763 628 763 493 l 763 493 l 763 421 l 589 421 l 589 485 q 589 554 553 591 q 517 628 450 628 l 450 628 q 381 628 344 586 q 308 544 308 468 l 308 468 l 308 0 z "},"ŕ":{"ha":833,"x_min":135,"x_max":763,"o":"m 308 0 l 135 0 l 135 764 l 304 764 l 304 615 q 318 690 373 734 q 428 778 515 778 l 515 778 q 632 778 697 703 q 763 628 763 493 l 763 493 l 763 421 l 589 421 l 589 485 q 589 554 553 591 q 517 628 450 628 l 450 628 q 381 628 344 586 q 308 544 308 468 l 308 468 l 308 0 z m 514 896 l 339 896 l 486 1090 l 672 1090 l 514 896 z "},"ř":{"ha":833,"x_min":135,"x_max":763,"o":"m 308 0 l 135 0 l 135 764 l 304 764 l 304 615 q 318 690 373 734 q 428 778 515 778 l 515 778 q 632 778 697 703 q 763 628 763 493 l 763 493 l 763 421 l 589 421 l 589 485 q 589 554 553 591 q 517 628 450 628 l 450 628 q 381 628 344 586 q 308 544 308 468 l 308 468 l 308 0 z m 525 896 l 364 896 l 174 1090 l 340 1090 l 446 989 l 547 1090 l 715 1090 l 525 896 z "},"ŗ":{"ha":833,"x_min":36,"x_max":763,"o":"m 308 0 l 135 0 l 135 764 l 304 764 l 304 615 q 318 690 373 734 q 428 778 515 778 l 515 778 q 632 778 697 703 q 763 628 763 493 l 763 493 l 763 421 l 589 421 l 589 485 q 589 554 553 591 q 517 628 450 628 l 450 628 q 381 628 344 586 q 308 544 308 468 l 308 468 l 308 0 z m 197 -333 l 36 -333 l 168 -132 l 351 -132 l 197 -333 z "},"s":{"ha":833,"x_min":90,"x_max":743,"o":"m 446 -12 l 385 -12 q 249 -12 169 49 q 90 111 90 217 l 90 217 l 261 217 q 261 172 294 149 q 326 125 385 125 l 385 125 l 446 125 q 508 125 542 149 q 576 172 576 217 l 576 217 q 576 258 553 278 q 529 299 481 306 l 481 306 l 290 331 q 199 343 149 401 q 100 460 100 553 l 100 553 q 100 661 172 719 q 244 776 381 776 l 381 776 l 444 776 q 572 776 650 718 q 728 660 731 563 l 731 563 l 558 563 q 557 599 526 620 q 496 642 444 642 l 444 642 l 381 642 q 325 642 296 619 q 267 596 267 557 l 267 557 q 267 522 288 506 q 310 489 351 485 l 351 485 l 531 460 q 636 447 690 385 q 743 324 743 219 l 743 219 q 743 108 667 48 q 592 -12 446 -12 l 446 -12 z "},"ś":{"ha":833,"x_min":90,"x_max":743,"o":"m 446 -12 l 385 -12 q 249 -12 169 49 q 90 111 90 217 l 90 217 l 261 217 q 261 172 294 149 q 326 125 385 125 l 385 125 l 446 125 q 508 125 542 149 q 576 172 576 217 l 576 217 q 576 258 553 278 q 529 299 481 306 l 481 306 l 290 331 q 199 343 149 401 q 100 460 100 553 l 100 553 q 100 661 172 719 q 244 776 381 776 l 381 776 l 444 776 q 572 776 650 718 q 728 660 731 563 l 731 563 l 558 563 q 557 599 526 620 q 496 642 444 642 l 444 642 l 381 642 q 325 642 296 619 q 267 596 267 557 l 267 557 q 267 522 288 506 q 310 489 351 485 l 351 485 l 531 460 q 636 447 690 385 q 743 324 743 219 l 743 219 q 743 108 667 48 q 592 -12 446 -12 l 446 -12 z m 486 896 l 311 896 l 458 1090 l 644 1090 l 486 896 z "},"š":{"ha":833,"x_min":90,"x_max":743,"o":"m 446 -12 l 385 -12 q 249 -12 169 49 q 90 111 90 217 l 90 217 l 261 217 q 261 172 294 149 q 326 125 385 125 l 385 125 l 446 125 q 508 125 542 149 q 576 172 576 217 l 576 217 q 576 258 553 278 q 529 299 481 306 l 481 306 l 290 331 q 199 343 149 401 q 100 460 100 553 l 100 553 q 100 661 172 719 q 244 776 381 776 l 381 776 l 444 776 q 572 776 650 718 q 728 660 731 563 l 731 563 l 558 563 q 557 599 526 620 q 496 642 444 642 l 444 642 l 381 642 q 325 642 296 619 q 267 596 267 557 l 267 557 q 267 522 288 506 q 310 489 351 485 l 351 485 l 531 460 q 636 447 690 385 q 743 324 743 219 l 743 219 q 743 108 667 48 q 592 -12 446 -12 l 446 -12 z m 497 896 l 336 896 l 146 1090 l 313 1090 l 418 989 l 519 1090 l 688 1090 l 497 896 z "},"ş":{"ha":833,"x_min":90,"x_max":743,"o":"m 425 -300 l 286 -300 l 286 -211 l 392 -211 q 425 -211 445 -195 q 465 -179 465 -161 l 465 -161 q 465 -132 424 -114 q 383 -96 310 -96 l 310 -96 l 343 -11 q 225 -1 158 59 q 90 119 90 217 l 90 217 l 261 217 q 261 172 294 149 q 326 125 385 125 l 385 125 l 446 125 q 508 125 542 149 q 576 172 576 217 l 576 217 q 576 258 553 278 q 529 299 481 306 l 481 306 l 290 331 q 199 343 149 401 q 100 460 100 553 l 100 553 q 100 661 172 719 q 244 776 381 776 l 381 776 l 444 776 q 572 776 650 718 q 728 660 731 563 l 731 563 l 558 563 q 557 599 526 620 q 496 642 444 642 l 444 642 l 381 642 q 325 642 296 619 q 267 596 267 557 l 267 557 q 267 522 288 506 q 310 489 351 485 l 351 485 l 531 460 q 636 447 690 385 q 743 324 743 219 l 743 219 q 743 108 667 48 q 592 -12 446 -12 l 446 -12 l 436 -12 l 424 -51 q 463 -56 506 -70 q 549 -85 578 -111 q 608 -137 608 -178 l 608 -178 q 608 -226 558 -263 q 507 -300 425 -300 l 425 -300 z "},"ŝ":{"ha":833,"x_min":90,"x_max":743,"o":"m 446 -12 l 385 -12 q 249 -12 169 49 q 90 111 90 217 l 90 217 l 261 217 q 261 172 294 149 q 326 125 385 125 l 385 125 l 446 125 q 508 125 542 149 q 576 172 576 217 l 576 217 q 576 258 553 278 q 529 299 481 306 l 481 306 l 290 331 q 199 343 149 401 q 100 460 100 553 l 100 553 q 100 661 172 719 q 244 776 381 776 l 381 776 l 444 776 q 572 776 650 718 q 728 660 731 563 l 731 563 l 558 563 q 557 599 526 620 q 496 642 444 642 l 444 642 l 381 642 q 325 642 296 619 q 267 596 267 557 l 267 557 q 267 522 288 506 q 310 489 351 485 l 351 485 l 531 460 q 636 447 690 385 q 743 324 743 219 l 743 219 q 743 108 667 48 q 592 -12 446 -12 l 446 -12 z m 314 896 l 146 896 l 336 1090 l 497 1090 l 688 896 l 521 896 l 415 997 l 314 896 z "},"ș":{"ha":833,"x_min":90,"x_max":743,"o":"m 446 -12 l 385 -12 q 249 -12 169 49 q 90 111 90 217 l 90 217 l 261 217 q 261 172 294 149 q 326 125 385 125 l 385 125 l 446 125 q 508 125 542 149 q 576 172 576 217 l 576 217 q 576 258 553 278 q 529 299 481 306 l 481 306 l 290 331 q 199 343 149 401 q 100 460 100 553 l 100 553 q 100 661 172 719 q 244 776 381 776 l 381 776 l 444 776 q 572 776 650 718 q 728 660 731 563 l 731 563 l 558 563 q 557 599 526 620 q 496 642 444 642 l 444 642 l 381 642 q 325 642 296 619 q 267 596 267 557 l 267 557 q 267 522 288 506 q 310 489 351 485 l 351 485 l 531 460 q 636 447 690 385 q 743 324 743 219 l 743 219 q 743 108 667 48 q 592 -12 446 -12 l 446 -12 z m 413 -333 l 251 -333 l 383 -132 l 567 -132 l 413 -333 z "},"ß":{"ha":833,"x_min":101,"x_max":767,"o":"m 275 0 l 101 0 l 101 724 q 101 814 142 883 q 182 951 254 990 q 326 1028 422 1028 l 422 1028 q 515 1028 586 994 q 657 960 697 899 q 738 839 738 760 l 738 760 q 738 678 693 617 q 649 557 576 542 l 576 542 l 576 539 q 661 522 714 451 q 767 381 767 286 l 767 286 q 767 201 726 137 q 685 72 611 36 q 538 0 440 0 l 440 0 l 368 0 l 368 153 l 431 153 q 501 153 546 196 q 590 239 590 307 l 590 307 q 590 376 547 419 q 504 461 436 461 l 436 461 l 368 461 l 368 597 l 421 597 q 485 597 525 636 q 565 675 565 739 l 565 739 q 565 801 525 841 q 485 881 421 881 l 421 881 q 356 881 315 837 q 275 793 275 724 l 275 724 l 275 0 z "},"ſ":{"ha":833,"x_min":204,"x_max":729,"o":"m 379 0 l 204 0 l 204 756 q 204 874 278 944 q 353 1014 476 1014 l 476 1014 l 729 1014 l 729 863 l 485 863 q 438 863 408 833 q 379 803 379 756 l 379 756 l 379 0 z "},"t":{"ha":833,"x_min":49,"x_max":739,"o":"m 732 0 l 493 0 q 386 0 323 62 q 260 124 260 229 l 260 229 l 260 607 l 49 607 l 49 764 l 260 764 l 260 979 l 435 979 l 435 764 l 739 764 l 739 607 l 435 607 l 435 233 q 435 200 453 178 q 472 157 506 157 l 506 157 l 732 157 l 732 0 z "},"ŧ":{"ha":833,"x_min":49,"x_max":739,"o":"m 260 317 l 106 317 l 106 453 l 260 453 l 260 607 l 49 607 l 49 764 l 260 764 l 260 979 l 435 979 l 435 764 l 739 764 l 739 607 l 435 607 l 435 453 l 672 453 l 672 317 l 435 317 l 435 233 q 435 200 453 178 q 472 157 506 157 l 506 157 l 732 157 l 732 0 l 493 0 q 386 0 323 62 q 260 124 260 229 l 260 229 l 260 317 z "},"ť":{"ha":833,"x_min":49,"x_max":739,"o":"m 732 0 l 493 0 q 386 0 323 62 q 260 124 260 229 l 260 229 l 260 607 l 49 607 l 49 764 l 260 764 l 260 979 l 435 979 l 435 764 l 739 764 l 739 607 l 435 607 l 435 233 q 435 200 453 178 q 472 157 506 157 l 506 157 l 732 157 l 732 0 z m 668 863 l 531 863 l 550 1113 l 699 1113 l 668 863 z "},"ţ":{"ha":833,"x_min":49,"x_max":739,"o":"m 494 -300 l 356 -300 l 356 -211 l 461 -211 q 494 -211 515 -195 q 535 -179 535 -161 l 535 -161 q 535 -132 494 -114 q 453 -96 379 -96 l 379 -96 l 421 8 q 346 28 303 85 q 260 143 260 229 l 260 229 l 260 607 l 49 607 l 49 764 l 260 764 l 260 979 l 435 979 l 435 764 l 739 764 l 739 607 l 435 607 l 435 233 q 435 200 453 178 q 472 157 506 157 l 506 157 l 732 157 l 732 0 l 511 0 l 493 -51 q 532 -56 575 -70 q 618 -85 648 -111 q 678 -137 678 -178 l 678 -178 q 678 -226 627 -263 q 576 -300 494 -300 l 494 -300 z "},"ț":{"ha":833,"x_min":49,"x_max":739,"o":"m 732 0 l 493 0 q 386 0 323 62 q 260 124 260 229 l 260 229 l 260 607 l 49 607 l 49 764 l 260 764 l 260 979 l 435 979 l 435 764 l 739 764 l 739 607 l 435 607 l 435 233 q 435 200 453 178 q 472 157 506 157 l 506 157 l 732 157 l 732 0 z m 496 -333 l 335 -333 l 467 -132 l 650 -132 l 496 -333 z "},"u":{"ha":833,"x_min":104,"x_max":729,"o":"m 417 -14 l 417 -14 q 271 -14 188 67 q 104 149 104 289 l 104 289 l 104 764 l 278 764 l 278 290 q 278 218 314 178 q 350 138 417 138 l 417 138 q 482 138 519 178 q 556 218 556 290 l 556 290 l 556 764 l 729 764 l 729 289 q 729 149 644 67 q 560 -14 417 -14 z "},"ú":{"ha":833,"x_min":104,"x_max":729,"o":"m 417 -14 l 417 -14 q 271 -14 188 67 q 104 149 104 289 l 104 289 l 104 764 l 278 764 l 278 290 q 278 218 314 178 q 350 138 417 138 l 417 138 q 482 138 519 178 q 556 218 556 290 l 556 290 l 556 764 l 729 764 l 729 289 q 729 149 644 67 q 560 -14 417 -14 z m 486 896 l 311 896 l 458 1090 l 644 1090 l 486 896 z "},"ŭ":{"ha":833,"x_min":104,"x_max":729,"o":"m 417 -14 l 417 -14 q 271 -14 188 67 q 104 149 104 289 l 104 289 l 104 764 l 278 764 l 278 290 q 278 218 314 178 q 350 138 417 138 l 417 138 q 482 138 519 178 q 556 218 556 290 l 556 290 l 556 764 l 729 764 l 729 289 q 729 149 644 67 q 560 -14 417 -14 z m 417 885 l 417 885 q 308 885 241 941 q 174 997 174 1090 l 174 1090 l 308 1090 q 308 1044 338 1017 q 368 989 417 989 l 417 989 q 465 989 495 1017 q 525 1044 525 1090 l 525 1090 l 660 1090 q 660 997 593 941 q 526 885 417 885 z "},"ǔ":{"ha":833,"x_min":104,"x_max":729,"o":"m 417 -14 l 417 -14 q 271 -14 188 67 q 104 149 104 289 l 104 289 l 104 764 l 278 764 l 278 290 q 278 218 314 178 q 350 138 417 138 l 417 138 q 482 138 519 178 q 556 218 556 290 l 556 290 l 556 764 l 729 764 l 729 289 q 729 149 644 67 q 560 -14 417 -14 z m 497 896 l 336 896 l 146 1090 l 313 1090 l 418 989 l 519 1090 l 688 1090 l 497 896 z "},"û":{"ha":833,"x_min":104,"x_max":729,"o":"m 417 -14 l 417 -14 q 271 -14 188 67 q 104 149 104 289 l 104 289 l 104 764 l 278 764 l 278 290 q 278 218 314 178 q 350 138 417 138 l 417 138 q 482 138 519 178 q 556 218 556 290 l 556 290 l 556 764 l 729 764 l 729 289 q 729 149 644 67 q 560 -14 417 -14 z m 314 896 l 146 896 l 336 1090 l 497 1090 l 688 896 l 521 896 l 415 997 l 314 896 z "},"ü":{"ha":833,"x_min":104,"x_max":729,"o":"m 417 -14 l 417 -14 q 271 -14 188 67 q 104 149 104 289 l 104 289 l 104 764 l 278 764 l 278 290 q 278 218 314 178 q 350 138 417 138 l 417 138 q 482 138 519 178 q 556 218 556 290 l 556 290 l 556 764 l 729 764 l 729 289 q 729 149 644 67 q 560 -14 417 -14 z m 579 892 l 579 892 q 533 892 506 919 q 478 946 478 992 l 478 992 q 478 1038 506 1065 q 533 1092 579 1092 l 579 1092 q 626 1092 654 1065 q 682 1038 682 992 l 682 992 q 682 946 654 919 q 626 892 579 892 z m 254 892 l 254 892 q 207 892 179 919 q 151 946 151 992 l 151 992 q 151 1038 179 1065 q 207 1092 254 1092 l 254 1092 q 300 1092 328 1065 q 356 1038 356 992 l 356 992 q 356 946 328 919 q 300 892 254 892 z "},"ǘ":{"ha":833,"x_min":104,"x_max":729,"o":"m 417 -14 l 417 -14 q 271 -14 188 67 q 104 149 104 289 l 104 289 l 104 764 l 278 764 l 278 290 q 278 218 314 178 q 350 138 417 138 l 417 138 q 482 138 519 178 q 556 218 556 290 l 556 290 l 556 764 l 729 764 l 729 289 q 729 149 644 67 q 560 -14 417 -14 z m 579 892 l 579 892 q 533 892 506 919 q 478 946 478 992 l 478 992 q 478 1038 506 1065 q 533 1092 579 1092 l 579 1092 q 626 1092 654 1065 q 682 1038 682 992 l 682 992 q 682 946 654 919 q 626 892 579 892 z m 254 892 l 254 892 q 207 892 179 919 q 151 946 151 992 l 151 992 q 151 1038 179 1065 q 207 1092 254 1092 l 254 1092 q 300 1092 328 1065 q 356 1038 356 992 l 356 992 q 356 946 328 919 q 300 892 254 892 z m 486 1224 l 311 1224 l 458 1418 l 644 1418 l 486 1224 z "},"ǚ":{"ha":833,"x_min":104,"x_max":729,"o":"m 417 -14 l 417 -14 q 271 -14 188 67 q 104 149 104 289 l 104 289 l 104 764 l 278 764 l 278 290 q 278 218 314 178 q 350 138 417 138 l 417 138 q 482 138 519 178 q 556 218 556 290 l 556 290 l 556 764 l 729 764 l 729 289 q 729 149 644 67 q 560 -14 417 -14 z m 579 892 l 579 892 q 533 892 506 919 q 478 946 478 992 l 478 992 q 478 1038 506 1065 q 533 1092 579 1092 l 579 1092 q 626 1092 654 1065 q 682 1038 682 992 l 682 992 q 682 946 654 919 q 626 892 579 892 z m 254 892 l 254 892 q 207 892 179 919 q 151 946 151 992 l 151 992 q 151 1038 179 1065 q 207 1092 254 1092 l 254 1092 q 300 1092 328 1065 q 356 1038 356 992 l 356 992 q 356 946 328 919 q 300 892 254 892 z m 497 1224 l 336 1224 l 146 1418 l 313 1418 l 418 1317 l 519 1418 l 688 1418 l 497 1224 z "},"ǜ":{"ha":833,"x_min":104,"x_max":729,"o":"m 417 -14 l 417 -14 q 271 -14 188 67 q 104 149 104 289 l 104 289 l 104 764 l 278 764 l 278 290 q 278 218 314 178 q 350 138 417 138 l 417 138 q 482 138 519 178 q 556 218 556 290 l 556 290 l 556 764 l 729 764 l 729 289 q 729 149 644 67 q 560 -14 417 -14 z m 579 892 l 579 892 q 533 892 506 919 q 478 946 478 992 l 478 992 q 478 1038 506 1065 q 533 1092 579 1092 l 579 1092 q 626 1092 654 1065 q 682 1038 682 992 l 682 992 q 682 946 654 919 q 626 892 579 892 z m 254 892 l 254 892 q 207 892 179 919 q 151 946 151 992 l 151 992 q 151 1038 179 1065 q 207 1092 254 1092 l 254 1092 q 300 1092 328 1065 q 356 1038 356 992 l 356 992 q 356 946 328 919 q 300 892 254 892 z m 525 1224 l 346 1224 l 185 1418 l 376 1418 l 525 1224 z "},"ǖ":{"ha":833,"x_min":104,"x_max":729,"o":"m 417 -14 l 417 -14 q 271 -14 188 67 q 104 149 104 289 l 104 289 l 104 764 l 278 764 l 278 290 q 278 218 314 178 q 350 138 417 138 l 417 138 q 482 138 519 178 q 556 218 556 290 l 556 290 l 556 764 l 729 764 l 729 289 q 729 149 644 67 q 560 -14 417 -14 z m 579 892 l 579 892 q 533 892 506 919 q 478 946 478 992 l 478 992 q 478 1038 506 1065 q 533 1092 579 1092 l 579 1092 q 626 1092 654 1065 q 682 1038 682 992 l 682 992 q 682 946 654 919 q 626 892 579 892 z m 254 892 l 254 892 q 207 892 179 919 q 151 946 151 992 l 151 992 q 151 1038 179 1065 q 207 1092 254 1092 l 254 1092 q 300 1092 328 1065 q 356 1038 356 992 l 356 992 q 356 946 328 919 q 300 892 254 892 z m 656 1246 l 178 1246 l 178 1379 l 656 1379 l 656 1246 z "},"ụ":{"ha":833,"x_min":104,"x_max":729,"o":"m 417 -14 l 417 -14 q 271 -14 188 67 q 104 149 104 289 l 104 289 l 104 764 l 278 764 l 278 290 q 278 218 314 178 q 350 138 417 138 l 417 138 q 482 138 519 178 q 556 218 556 290 l 556 290 l 556 764 l 729 764 l 729 289 q 729 149 644 67 q 560 -14 417 -14 z m 417 -312 l 417 -312 q 364 -312 333 -285 q 303 -258 303 -212 l 303 -212 q 303 -165 333 -138 q 364 -111 417 -111 l 417 -111 q 469 -111 500 -138 q 531 -165 531 -212 l 531 -212 q 531 -258 500 -285 q 469 -312 417 -312 z "},"ù":{"ha":833,"x_min":104,"x_max":729,"o":"m 417 -14 l 417 -14 q 271 -14 188 67 q 104 149 104 289 l 104 289 l 104 764 l 278 764 l 278 290 q 278 218 314 178 q 350 138 417 138 l 417 138 q 482 138 519 178 q 556 218 556 290 l 556 290 l 556 764 l 729 764 l 729 289 q 729 149 644 67 q 560 -14 417 -14 z m 525 896 l 346 896 l 185 1090 l 376 1090 l 525 896 z "},"ủ":{"ha":833,"x_min":104,"x_max":729,"o":"m 417 -14 l 417 -14 q 271 -14 188 67 q 104 149 104 289 l 104 289 l 104 764 l 278 764 l 278 290 q 278 218 314 178 q 350 138 417 138 l 417 138 q 482 138 519 178 q 556 218 556 290 l 556 290 l 556 764 l 729 764 l 729 289 q 729 149 644 67 q 560 -14 417 -14 z m 485 896 l 346 896 l 415 979 q 435 1004 435 1021 l 435 1021 q 435 1047 394 1047 l 394 1047 l 283 1047 l 283 1153 l 429 1153 q 490 1153 527 1122 q 564 1092 564 1040 l 564 1040 q 564 994 536 960 l 536 960 l 485 896 z "},"ư":{"ha":833,"x_min":104,"x_max":861,"o":"m 104 285 l 104 285 l 104 764 l 278 764 l 278 283 q 278 213 310 175 q 342 138 400 138 l 400 138 q 458 138 491 175 q 524 213 524 283 l 524 283 l 524 764 l 672 764 q 721 764 721 813 l 721 813 l 721 917 l 861 917 l 861 810 q 861 736 819 691 q 778 646 697 646 l 697 646 l 697 285 q 697 146 617 66 q 538 -14 400 -14 l 400 -14 q 263 -14 183 66 q 104 146 104 285 z "},"ứ":{"ha":833,"x_min":104,"x_max":861,"o":"m 104 285 l 104 285 l 104 764 l 278 764 l 278 283 q 278 213 310 175 q 342 138 400 138 l 400 138 q 458 138 491 175 q 524 213 524 283 l 524 283 l 524 764 l 672 764 q 721 764 721 813 l 721 813 l 721 917 l 861 917 l 861 810 q 861 736 819 691 q 778 646 697 646 l 697 646 l 697 285 q 697 146 617 66 q 538 -14 400 -14 l 400 -14 q 263 -14 183 66 q 104 146 104 285 z m 469 896 l 294 896 l 442 1090 l 628 1090 l 469 896 z "},"ự":{"ha":833,"x_min":104,"x_max":861,"o":"m 104 285 l 104 285 l 104 764 l 278 764 l 278 283 q 278 213 310 175 q 342 138 400 138 l 400 138 q 458 138 491 175 q 524 213 524 283 l 524 283 l 524 764 l 672 764 q 721 764 721 813 l 721 813 l 721 917 l 861 917 l 861 810 q 861 736 819 691 q 778 646 697 646 l 697 646 l 697 285 q 697 146 617 66 q 538 -14 400 -14 l 400 -14 q 263 -14 183 66 q 104 146 104 285 z m 400 -312 l 400 -312 q 347 -312 317 -285 q 286 -258 286 -212 l 286 -212 q 286 -165 317 -138 q 347 -111 400 -111 l 400 -111 q 453 -111 483 -138 q 514 -165 514 -212 l 514 -212 q 514 -258 483 -285 q 453 -312 400 -312 z "},"ừ":{"ha":833,"x_min":104,"x_max":861,"o":"m 104 285 l 104 285 l 104 764 l 278 764 l 278 283 q 278 213 310 175 q 342 138 400 138 l 400 138 q 458 138 491 175 q 524 213 524 283 l 524 283 l 524 764 l 672 764 q 721 764 721 813 l 721 813 l 721 917 l 861 917 l 861 810 q 861 736 819 691 q 778 646 697 646 l 697 646 l 697 285 q 697 146 617 66 q 538 -14 400 -14 l 400 -14 q 263 -14 183 66 q 104 146 104 285 z m 508 896 l 329 896 l 168 1090 l 360 1090 l 508 896 z "},"ử":{"ha":833,"x_min":104,"x_max":861,"o":"m 104 285 l 104 285 l 104 764 l 278 764 l 278 283 q 278 213 310 175 q 342 138 400 138 l 400 138 q 458 138 491 175 q 524 213 524 283 l 524 283 l 524 764 l 672 764 q 721 764 721 813 l 721 813 l 721 917 l 861 917 l 861 810 q 861 736 819 691 q 778 646 697 646 l 697 646 l 697 285 q 697 146 617 66 q 538 -14 400 -14 l 400 -14 q 263 -14 183 66 q 104 146 104 285 z m 468 896 l 329 896 l 399 979 q 418 1004 418 1021 l 418 1021 q 418 1047 378 1047 l 378 1047 l 267 1047 l 267 1153 l 413 1153 q 474 1153 510 1122 q 547 1092 547 1040 l 547 1040 q 547 994 519 960 l 519 960 l 468 896 z "},"ữ":{"ha":833,"x_min":104,"x_max":861,"o":"m 104 285 l 104 285 l 104 764 l 278 764 l 278 283 q 278 213 310 175 q 342 138 400 138 l 400 138 q 458 138 491 175 q 524 213 524 283 l 524 283 l 524 764 l 672 764 q 721 764 721 813 l 721 813 l 721 917 l 861 917 l 861 810 q 861 736 819 691 q 778 646 697 646 l 697 646 l 697 285 q 697 146 617 66 q 538 -14 400 -14 l 400 -14 q 263 -14 183 66 q 104 146 104 285 z m 497 890 l 497 890 q 454 890 427 904 q 400 918 382 935 q 364 953 348 966 q 332 979 310 979 l 310 979 q 268 979 268 933 l 268 933 l 268 897 l 161 897 l 161 943 q 161 1011 200 1053 q 239 1096 303 1096 l 303 1096 q 346 1096 373 1082 q 400 1068 418 1051 q 436 1033 452 1020 q 468 1007 490 1007 l 490 1007 q 532 1007 532 1050 l 532 1050 l 532 1089 l 639 1089 l 639 1043 q 639 975 600 933 q 561 890 497 890 z "},"ű":{"ha":833,"x_min":104,"x_max":768,"o":"m 417 -14 l 417 -14 q 271 -14 188 67 q 104 149 104 289 l 104 289 l 104 764 l 278 764 l 278 290 q 278 218 314 178 q 350 138 417 138 l 417 138 q 482 138 519 178 q 556 218 556 290 l 556 290 l 556 764 l 729 764 l 729 289 q 729 149 644 67 q 560 -14 417 -14 z m 608 896 l 450 896 l 599 1090 l 768 1090 l 608 896 z m 328 896 l 169 896 l 319 1090 l 488 1090 l 328 896 z "},"ū":{"ha":833,"x_min":104,"x_max":729,"o":"m 417 -14 l 417 -14 q 271 -14 188 67 q 104 149 104 289 l 104 289 l 104 764 l 278 764 l 278 290 q 278 218 314 178 q 350 138 417 138 l 417 138 q 482 138 519 178 q 556 218 556 290 l 556 290 l 556 764 l 729 764 l 729 289 q 729 149 644 67 q 560 -14 417 -14 z m 656 918 l 178 918 l 178 1051 l 656 1051 l 656 918 z "}}}
